<?xml version="1.0" standalone="no"?>
<!DOCTYPE svg PUBLIC "-//W3C//DTD SVG 20010904//EN"
 "http://www.w3.org/TR/2001/REC-SVG-20010904/DTD/svg10.dtd">
<svg version="1.0" xmlns="http://www.w3.org/2000/svg"
 width="300.000000pt" height="300.000000pt" viewBox="0 0 300.000000 300.000000"
 preserveAspectRatio="xMidYMid meet">
<metadata>
Created by potrace 1.11, written by Peter Selinger 2001-2013
</metadata>
<g transform="translate(0.000000,300.000000) scale(0.100000,-0.100000)"
fill="#000000" stroke="none">
<path d="M1113 2085 c-31 -13 -33 -17 -33 -63 0 -58 18 -82 44 -57 9 9 16 25
16 35 0 10 5 22 11 26 8 4 10 -9 8 -45 -2 -28 -2 -51 1 -50 15 2 43 18 33 18
-19 1 -16 18 8 42 24 24 23 76 -1 70 -8 -2 -19 -4 -25 -5 -5 -1 -17 -6 -25
-11 -23 -14 -50 -13 -50 2 0 7 11 18 25 23 14 5 25 14 25 20 0 12 2 12 -37 -5z
m87 -60 c0 -14 -4 -25 -10 -25 -11 0 -14 33 -3 43 11 11 13 8 13 -18z m-80
-30 c0 -14 -4 -25 -10 -25 -11 0 -14 33 -3 43 11 11 13 8 13 -18z"/>
<path d="M1368 2095 c-2 -3 -20 -6 -39 -8 -19 -1 -34 -8 -33 -15 1 -6 2 -24 3
-39 1 -29 16 -22 24 12 4 18 5 18 6 -2 1 -27 21 -31 21 -5 0 9 5 24 10 32 8
11 10 8 8 -15 l-3 -30 60 3 c33 1 62 7 63 13 3 6 9 5 19 -2 12 -10 16 -10 24
2 7 11 9 11 9 -4 0 -15 3 -16 22 -6 13 7 18 14 12 16 -6 2 -9 15 -6 28 5 31
-4 32 -29 3 l-18 -23 -1 23 c0 17 -5 22 -17 20 -10 -2 -17 -11 -15 -20 3 -19
-2 -23 -43 -32 l-30 -6 23 19 c27 24 28 41 2 41 -12 0 -26 -12 -35 -30 -9 -16
-17 -30 -19 -30 -1 0 -1 14 2 30 4 27 -6 39 -20 25z"/>
<path d="M1647 2084 c-3 -3 -3 -13 0 -21 4 -9 -2 -16 -16 -20 -11 -3 -21 -9
-21 -14 0 -13 24 -11 38 3 9 9 12 8 12 -6 0 -15 3 -16 15 -6 10 9 15 9 15 1 0
-6 9 -11 19 -11 11 0 23 -5 27 -11 3 -6 19 -9 35 -7 16 3 29 1 29 -4 0 -13 27
-9 28 5 0 6 3 23 7 37 l7 25 -20 -22 -19 -21 -17 28 c-10 18 -22 27 -31 24 -8
-4 -12 -10 -9 -15 3 -5 0 -17 -5 -26 -6 -11 -11 -13 -11 -5 0 7 -5 10 -10 7
-6 -4 -5 5 2 19 15 34 4 44 -22 21 -19 -18 -20 -17 -20 3 0 21 -19 30 -33 16z
m133 -74 c0 -5 -4 -10 -10 -10 -5 0 -10 5 -10 10 0 6 5 10 10 10 6 0 10 -4 10
-10z"/>
<path d="M1242 2068 c-14 -14 -16 -68 -3 -68 17 0 41 12 41 21 0 4 -8 6 -17 2
-17 -6 -17 -5 0 14 9 11 17 25 17 31 0 16 -23 15 -38 0z"/>
<path d="M1022 1998 c-16 -16 -15 -53 1 -67 22 -18 49 9 45 44 -3 32 -26 43
-46 23z m28 -34 c0 -14 -4 -23 -10 -19 -5 3 -10 15 -10 26 0 10 5 19 10 19 6
0 10 -12 10 -26z"/>
<path d="M1893 2005 c4 -5 0 -19 -8 -32 -14 -21 -14 -23 0 -23 8 0 15 4 15 10
0 5 10 14 21 21 21 11 21 10 5 -12 -9 -13 -16 -27 -16 -32 0 -12 35 -4 36 8 0
6 4 18 9 28 4 10 5 20 3 22 -8 9 -73 18 -65 10z"/>
<path d="M861 1964 c-19 -14 -22 -23 -18 -51 13 -79 67 -108 67 -37 0 36 -25
58 -40 35 -5 -9 -9 -6 -13 8 -3 14 1 22 13 26 18 6 36 35 22 35 -4 0 -18 -7
-31 -16z m39 -101 c0 -7 -4 -13 -10 -13 -5 0 -10 12 -10 28 0 21 2 24 10 12 5
-8 10 -21 10 -27z"/>
<path d="M1979 1973 c-1 -4 -1 -11 0 -15 0 -3 -15 -20 -34 -37 -33 -28 -34
-31 -16 -41 26 -14 29 -13 27 8 -1 12 5 16 21 14 49 -7 88 47 46 62 -10 3 -24
9 -30 12 -7 3 -14 2 -14 -3z m41 -32 c0 -13 -29 -35 -37 -28 -7 8 15 37 28 37
5 0 9 -4 9 -9z"/>
<path d="M932 1948 c-14 -14 -15 -47 -2 -68 8 -13 11 -13 25 1 11 10 13 25 9
47 -7 35 -13 39 -32 20z m28 -38 c0 -5 -5 -10 -11 -10 -5 0 -7 5 -4 10 3 6 8
10 11 10 2 0 4 -4 4 -10z"/>
<path d="M2032 1908 c-17 -17 -15 -38 3 -38 8 0 15 -4 15 -10 0 -5 5 -10 11
-10 6 0 17 -7 25 -15 29 -29 74 -8 74 34 0 14 -35 14 -61 1 -22 -13 -26 2 -4
20 8 7 12 16 9 21 -8 13 -58 11 -72 -3z m35 -15 c-9 -9 -20 -13 -24 -9 -4 4
-1 11 7 16 25 16 35 11 17 -7z m63 -47 c0 -3 -4 -8 -10 -11 -5 -3 -10 -1 -10
4 0 6 5 11 10 11 6 0 10 -2 10 -4z"/>
<path d="M793 1843 c-3 -6 4 -22 16 -34 17 -19 23 -20 36 -9 26 21 15 53 -19
55 -15 0 -30 -5 -33 -12z m57 -24 c0 -5 -4 -9 -10 -9 -5 0 -10 7 -10 16 0 8 5
12 10 9 6 -3 10 -10 10 -16z"/>
<path d="M2158 1829 c-24 -13 -23 -46 2 -54 42 -13 85 43 44 59 -21 8 -26 7
-46 -5z m42 -19 c0 -12 -28 -25 -36 -17 -9 9 6 27 22 27 8 0 14 -5 14 -10z"/>
<path d="M743 1806 c-13 -13 -23 -28 -23 -34 0 -5 -9 -12 -20 -15 -23 -6 -26
-35 -6 -62 8 -12 19 -16 31 -11 14 5 17 14 12 46 -3 22 -4 40 -2 40 2 0 15
-18 28 -40 20 -34 26 -38 36 -27 9 12 8 16 -4 21 -13 5 -13 9 -3 25 9 14 9 28
3 47 -13 36 -25 38 -52 10z m37 -33 c0 -22 -2 -25 -10 -13 -13 20 -13 40 0 40
6 0 10 -12 10 -27z m-52 -56 c5 -24 -15 -21 -28 4 -10 18 -9 20 7 17 10 -2 19
-11 21 -21z"/>
<path d="M1947 1774 c-4 -4 -10 -29 -13 -56 -4 -26 -11 -48 -17 -48 -6 0 -18
-6 -26 -14 -13 -12 -27 -12 -71 -4 -126 23 -262 -3 -314 -61 l-18 -20 -32 24
c-85 65 -167 78 -331 53 l-80 -12 -192 -185 c-148 -141 -193 -191 -193 -209
l0 -25 178 7 c97 3 202 8 232 10 l55 5 -50 -9 c-27 -5 -130 -12 -228 -16 -139
-6 -180 -10 -184 -21 -3 -8 -3 -17 1 -20 11 -11 239 -4 375 12 73 8 161 14
194 13 51 -1 54 -2 17 -5 -25 -2 -112 -10 -195 -18 -82 -8 -205 -17 -273 -21
-105 -6 -122 -9 -120 -23 3 -14 20 -16 113 -14 61 0 192 9 292 19 202 19 251
15 351 -31 67 -31 69 -31 129 0 77 40 150 49 283 36 163 -17 177 -20 190 -36
15 -18 51 -20 68 -3 9 9 15 9 24 0 15 -15 54 -16 63 -2 3 6 33 10 66 10 52 0
59 2 59 20 0 12 -7 20 -17 20 -17 1 -17 1 0 11 22 13 24 54 2 45 -8 -3 -15 -1
-15 4 0 6 7 10 15 10 9 0 15 9 15 24 0 13 -7 29 -15 36 -12 10 -15 32 -13 99
l2 86 3 -72 c3 -63 6 -73 22 -73 25 0 31 19 31 99 0 90 -33 140 -95 141 l-29
0 22 16 c44 31 14 110 -39 102 -14 -2 -32 6 -47 20 -18 18 -29 22 -50 17 -38
-9 -52 -24 -52 -51 0 -17 -6 -24 -20 -24 -24 0 -32 27 -28 90 3 39 0 45 -17
48 -12 2 -24 0 -28 -4z m-572 -178 c71 -33 89 -56 80 -103 -14 -80 -17 -153
-6 -153 7 0 11 -25 11 -66 l0 -66 -35 22 c-103 64 -161 71 -388 46 -81 -9
-186 -16 -235 -16 l-87 1 170 168 171 168 64 10 c119 19 199 15 255 -11z m353
4 c-14 -22 -39 -26 -69 -10 -23 13 -59 -3 -59 -25 0 -16 -27 -20 -48 -6 -30
19 62 60 136 61 50 0 52 -1 40 -20z m419 -14 c3 -3 -15 -6 -40 -6 -26 0 -47 3
-47 8 0 9 78 8 87 -2z m-230 -32 c-3 -3 -12 -4 -19 -1 -8 3 -5 6 6 6 11 1 17
-2 13 -5z m90 -266 c-2 -13 -4 -3 -4 22 0 25 2 35 4 23 2 -13 2 -33 0 -45z
m-160 5 c-3 -10 -5 -2 -5 17 0 19 2 27 5 18 2 -10 2 -26 0 -35z m80 -5 c-2
-13 -4 -5 -4 17 -1 22 1 32 4 23 2 -10 2 -28 0 -40z m183 7 c0 -19 -4 -35 -10
-35 -5 0 -10 16 -10 35 0 19 5 35 10 35 6 0 10 -16 10 -35z m87 -22 c-3 -10
-5 -4 -5 12 0 17 2 24 5 18 2 -7 2 -21 0 -30z m-883 -32 c11 -4 -20 -6 -70 -4
-121 6 -137 11 -34 11 47 0 94 -3 104 -7z m211 -21 c-3 -5 -12 -10 -18 -10 -7
0 -6 4 3 10 19 12 23 12 15 0z m-198 -36 c-3 -3 -12 -4 -19 -1 -8 3 -5 6 6 6
11 1 17 -2 13 -5z m336 -1 c-7 -2 -19 -2 -25 0 -7 3 -2 5 12 5 14 0 19 -2 13
-5z m447 -23 c0 -5 -2 -10 -4 -10 -3 0 -8 5 -11 10 -3 6 -1 10 4 10 6 0 11 -4
11 -10z"/>
<path d="M622 1748 c-20 -20 -13 -62 17 -98 25 -30 31 -33 45 -21 21 18 20 34
-3 62 -16 19 -21 21 -34 11 -22 -19 -33 5 -13 27 26 28 15 46 -12 19z m57 -94
c3 -16 1 -17 -13 -5 -19 16 -21 34 -3 29 6 -3 14 -13 16 -24z"/>
<path d="M2223 1733 c-4 -11 1 -22 15 -31 12 -8 22 -20 22 -28 0 -7 9 -18 20
-24 11 -6 20 -19 20 -30 0 -13 9 -22 25 -26 36 -9 57 2 53 28 -2 18 -9 23 -35
23 -29 0 -30 1 -16 17 21 24 6 41 -32 36 -37 -4 -64 17 -46 35 9 9 16 8 31 -1
17 -10 20 -10 20 3 0 22 -68 21 -77 -2z m72 -63 c3 -5 1 -10 -4 -10 -6 0 -11
5 -11 10 0 6 2 10 4 10 3 0 8 -4 11 -10z m65 -50 c0 -5 -9 -10 -21 -10 -11 0
-17 5 -14 10 3 6 13 10 21 10 8 0 14 -4 14 -10z"/>
<path d="M547 1602 c-12 -13 -15 -34 -13 -85 3 -75 6 -80 30 -71 14 5 15 9 4
15 -10 7 -8 9 7 9 17 1 17 3 -5 12 -25 11 -25 11 -2 15 27 5 30 23 3 23 -10 0
-22 7 -25 16 -12 31 6 29 35 -3 27 -32 29 -32 39 -12 15 27 9 74 -10 74 -8 0
-19 6 -23 13 -11 17 -21 15 -40 -6z m33 -23 c0 -6 -4 -7 -10 -4 -5 3 -10 11
-10 16 0 6 5 7 10 4 6 -3 10 -11 10 -16z m40 -25 c0 -9 -5 -14 -12 -12 -18 6
-21 28 -4 28 9 0 16 -7 16 -16z"/>
<path d="M2358 1582 c-15 -3 -27 -42 -14 -42 2 0 13 -3 23 -7 15 -6 16 -4 5 9
-10 13 -10 17 4 22 9 4 19 4 22 1 3 -3 0 -5 -7 -5 -7 0 -9 -4 -6 -10 12 -19
38 -11 32 10 -3 11 -1 18 3 15 5 -3 11 -1 14 4 6 9 -35 10 -76 3z"/>
<path d="M2430 1560 c0 -5 5 -10 10 -10 6 0 10 5 10 10 0 6 -4 10 -10 10 -5 0
-10 -4 -10 -10z"/>
<path d="M2403 1518 c-18 -6 -33 -15 -33 -21 0 -5 8 -6 18 -2 9 4 32 9 50 12
17 3 32 10 32 14 0 11 -26 10 -67 -3z"/>
<path d="M2435 1480 c-4 -6 -16 -10 -26 -7 -23 6 -25 -6 -3 -27 19 -20 28 -20
44 -2 8 10 8 21 2 32 -7 12 -11 13 -17 4z"/>
<path d="M670 1030 c0 -38 17 -39 23 -2 l4 27 2 -27 c1 -23 6 -28 25 -28 13 0
26 6 29 13 3 10 9 10 26 0 25 -16 61 -17 61 -3 0 7 6 7 19 0 25 -13 51 -3 51
20 0 23 -26 33 -51 20 -11 -6 -19 -7 -19 -1 0 5 -38 10 -85 10 l-85 1 0 -30z
m150 -2 c0 -16 -3 -19 -11 -11 -6 6 -8 16 -5 22 11 17 16 13 16 -11z"/>
<path d="M920 1030 c0 -25 4 -30 25 -30 14 0 25 5 25 11 0 6 -7 9 -15 5 -10
-4 -15 1 -15 14 0 13 5 18 15 14 8 -4 15 -1 15 5 0 6 -11 11 -25 11 -21 0 -25
-5 -25 -30z"/>
<path d="M980 1030 c0 -28 0 -28 69 -29 52 0 70 3 75 14 13 35 -4 44 -75 44
-69 -1 -69 -1 -69 -29z m32 -12 c-9 -9 -12 -7 -12 12 0 19 3 21 12 12 9 -9 9
-15 0 -24z m85 0 c-3 -7 -5 -2 -5 12 0 14 2 19 5 13 2 -7 2 -19 0 -25z"/>
<path d="M1130 1050 c0 -6 7 -13 15 -16 8 -4 15 -10 15 -15 0 -4 -7 -6 -15 -3
-8 4 -15 1 -15 -5 0 -6 11 -11 25 -11 21 0 25 5 25 30 0 25 -4 30 -25 30 -14
0 -25 -5 -25 -10z"/>
<path d="M690 940 c6 -11 8 -25 5 -30 -3 -6 0 -10 8 -10 8 0 19 10 25 23 l11
22 0 -22 c1 -27 18 -31 24 -5 4 16 5 16 6 0 1 -21 56 -26 64 -5 4 10 6 10 6 0
1 -16 161 -19 161 -3 0 6 9 10 20 10 11 0 20 -5 20 -10 0 -6 23 -10 55 -9 51
2 55 4 55 26 0 12 5 23 10 23 6 0 10 -11 10 -25 0 -14 5 -25 10 -25 6 0 10 11
10 25 0 14 5 25 10 25 6 0 10 -11 10 -25 0 -21 5 -25 28 -24 16 1 20 3 10 6
-10 2 -18 9 -18 14 0 5 8 9 18 10 14 0 14 2 -3 9 -18 8 -17 9 8 9 22 1 27 -3
27 -24 0 -14 5 -25 10 -25 6 0 10 11 10 25 0 14 5 25 11 25 5 0 8 -4 5 -9 -4
-5 -3 -16 0 -25 7 -18 54 -22 54 -5 0 6 -7 9 -15 5 -10 -4 -15 1 -15 14 0 13
5 18 15 14 8 -4 15 -1 15 5 0 16 -327 14 -334 -2 -3 -9 -5 -9 -5 1 -1 9 -34
12 -130 12 -94 0 -131 -3 -134 -12 -4 -10 -6 -10 -6 0 -1 16 -41 16 -41 0 0
-9 -3 -9 -12 0 -19 19 -30 14 -18 -8z m290 -10 c0 -11 -7 -20 -15 -20 -8 0
-15 5 -15 10 0 6 6 10 13 10 8 0 7 4 -3 10 -13 8 -12 10 3 10 10 0 17 -8 17
-20z m110 0 c0 -4 -7 -10 -15 -14 -10 -4 -15 1 -15 14 0 13 5 18 15 14 8 -4
15 -10 15 -14z"/>
<path d="M1380 931 l0 -29 85 1 85 0 0 29 c0 25 -4 28 -31 28 -26 0 -31 -3
-26 -20 3 -11 2 -22 -3 -25 -4 -3 -11 6 -14 20 -8 33 -29 32 -44 -2 l-12 -28
4 28 c3 23 0 27 -20 27 -20 0 -24 -5 -24 -29z"/>
<path d="M1573 944 c-12 -32 4 -41 75 -42 70 -2 71 -1 75 26 l4 27 2 -28 c1
-24 5 -28 34 -27 17 0 51 -2 74 -4 23 -3 45 -1 48 5 4 5 21 7 41 3 22 -4 34
-2 34 5 0 6 7 11 15 11 8 0 15 9 15 20 0 15 -7 20 -25 20 -20 0 -25 -5 -26
-27 l-1 -28 -10 28 c-5 15 -15 27 -22 27 -7 0 -17 -12 -23 -27 l-11 -28 -1 28
c-1 22 -6 27 -25 27 -19 0 -26 -6 -29 -27 l-4 -28 -2 26 c-1 24 -4 26 -56 28
-39 1 -55 -2 -55 -11 0 -9 -2 -10 -8 -2 -11 17 -112 15 -119 -2z m57 -14 c0
-12 -29 -20 -35 -10 -9 15 4 30 20 23 8 -3 15 -9 15 -13z m40 -2 c0 -16 -3
-19 -11 -11 -6 6 -8 16 -5 22 11 17 16 13 16 -11z m177 -10 c-3 -7 -5 -2 -5
12 0 14 2 19 5 13 2 -7 2 -19 0 -25z"/>
<path d="M2000 930 c0 -32 16 -41 23 -12 4 16 5 16 6 0 1 -20 21 -25 21 -5 0
8 2 9 8 1 8 -14 110 -16 118 -3 3 5 -4 9 -15 9 -29 0 -26 17 4 22 21 4 25 1
25 -18 0 -34 28 -30 33 4 l4 27 2 -28 c1 -27 2 -28 54 -25 38 2 52 7 52 18 0
10 -12 16 -37 18 -21 2 -38 7 -38 12 0 5 -45 9 -100 8 -65 -1 -100 -5 -100
-12 0 -6 -5 -4 -10 4 -9 13 -11 13 -20 0 -6 -10 -10 -11 -10 -2 0 6 -4 12 -10
12 -5 0 -10 -13 -10 -30z m92 -12 c-9 -9 -12 -7 -12 12 0 19 3 21 12 12 9 -9
9 -15 0 -24z"/>
<path d="M645 930 c-8 -14 3 -30 21 -30 8 0 14 9 14 20 0 21 -24 28 -35 10z"/>
</g>
</svg>
