<?xml version="1.0" standalone="no"?>
<!DOCTYPE svg PUBLIC "-//W3C//DTD SVG 20010904//EN"
 "http://www.w3.org/TR/2001/REC-SVG-20010904/DTD/svg10.dtd">
<svg version="1.0" xmlns="http://www.w3.org/2000/svg"
 width="200.000000pt" height="200.000000pt" viewBox="0 0 200.000000 200.000000"
 preserveAspectRatio="xMidYMid meet">
<metadata>
Created by potrace 1.11, written by Peter Selinger 2001-2013
</metadata>
<g transform="translate(0.000000,200.000000) scale(0.100000,-0.100000)"
fill="#000000" stroke="none">
<path d="M868 1593 c-2 -5 -1 -24 3 -43 7 -40 9 -39 13 8 3 30 -8 53 -16 35z"/>
<path d="M911 1571 c-11 -15 -18 -31 -14 -35 10 -9 41 -7 48 4 3 6 -1 7 -9 4
-23 -9 -20 9 4 24 23 14 26 32 6 32 -8 0 -24 -13 -35 -29z m29 9 c0 -5 -5 -10
-11 -10 -5 0 -7 5 -4 10 3 6 8 10 11 10 2 0 4 -4 4 -10z"/>
<path d="M984 1588 c-5 -7 -3 -8 6 -3 10 6 12 4 7 -9 -4 -10 -7 -20 -7 -22 0
-2 -7 -4 -15 -4 -8 0 -15 -4 -15 -10 0 -15 11 -12 32 7 17 15 18 15 18 -1 0
-9 4 -15 8 -12 5 3 7 19 4 36 -4 30 -25 40 -38 18z"/>
<path d="M1046 1581 c-9 -10 -14 -25 -10 -35 11 -28 29 -17 31 19 2 41 1 41
-21 16z"/>
<path d="M610 1583 c-22 -9 -30 -24 -30 -60 0 -40 9 -63 25 -63 22 0 38 28 31
55 -5 20 -11 25 -26 20 -30 -10 -25 23 5 35 14 5 25 12 25 15 0 6 -10 5 -30
-2z m10 -88 c0 -14 -4 -25 -10 -25 -5 0 -10 11 -10 25 0 14 5 25 10 25 6 0 10
-11 10 -25z"/>
<path d="M803 1581 c-5 -3 -6 -22 -2 -41 l6 -35 8 33 c4 17 12 32 16 32 5 0 7
-11 3 -25 -4 -15 -2 -25 5 -25 6 0 11 11 11 25 0 14 0 28 0 33 0 9 -35 11 -47
3z"/>
<path d="M1150 1579 c-10 -6 -11 -9 -2 -9 6 0 11 -3 11 -7 -1 -5 -1 -19 0 -32
1 -19 4 -21 15 -12 7 6 11 22 8 36 -5 31 -13 37 -32 24z"/>
<path d="M740 1561 c-22 -43 -1 -77 28 -47 16 16 16 17 0 10 -10 -3 -18 -2
-18 4 0 5 7 12 15 16 19 7 20 36 0 36 -8 0 -19 -9 -25 -19z"/>
<path d="M1209 1564 c-20 -24 -22 -54 -3 -54 8 0 12 4 9 10 -3 5 -1 19 5 31
14 26 7 35 -11 13z"/>
<path d="M672 1553 c-16 -3 -22 -9 -18 -20 3 -8 6 -32 6 -54 0 -28 4 -39 15
-39 9 0 12 6 8 16 -3 9 3 24 16 35 22 21 26 61 6 64 -5 1 -20 0 -33 -2z m19
-56 c-8 -8 -11 -4 -11 14 0 33 14 47 18 19 2 -12 -1 -27 -7 -33z"/>
<path d="M1247 1553 c10 -3 10 -9 0 -23 -15 -25 3 -45 32 -35 25 8 28 30 5 39
-8 3 -12 10 -9 16 3 6 -4 10 -17 9 -13 0 -18 -3 -11 -6z m33 -38 c0 -8 -7 -15
-15 -15 -9 0 -12 6 -9 15 4 8 10 15 15 15 5 0 9 -7 9 -15z"/>
<path d="M1128 1542 c-10 -2 -18 -8 -18 -13 0 -13 27 -11 35 2 9 13 4 16 -17
11z"/>
<path d="M1316 1521 c-20 -37 -20 -41 0 -41 8 0 12 4 9 10 -3 5 -1 19 5 31 7
11 9 23 7 26 -3 3 -13 -9 -21 -26z"/>
<path d="M526 1495 c-33 -34 -6 -84 29 -55 19 16 19 44 1 59 -11 9 -18 8 -30
-4z m28 -22 c10 -25 -10 -39 -23 -15 -10 19 -6 32 10 32 4 0 10 -8 13 -17z"/>
<path d="M1396 1497 c3 -8 1 -18 -5 -22 -6 -3 -11 -11 -11 -17 0 -6 10 -2 23
10 31 29 43 28 24 -2 -15 -23 -13 -36 5 -36 4 0 7 3 6 8 -1 4 4 18 11 30 15
28 14 30 -27 38 -26 5 -31 4 -26 -9z"/>
<path d="M362 1460 c-26 -25 -27 -38 -5 -85 20 -42 46 -43 51 -1 4 32 -10 52
-28 41 -9 -6 -8 -10 4 -17 9 -5 16 -18 16 -28 0 -33 -16 -22 -34 22 -16 42
-16 43 6 60 13 9 20 19 17 22 -3 3 -15 -3 -27 -14z"/>
<path d="M1474 1462 c3 -5 -8 -23 -24 -40 -18 -20 -25 -34 -18 -38 6 -4 15 0
20 9 5 9 15 14 23 10 19 -7 65 23 65 41 0 8 -10 16 -22 20 -32 8 -50 7 -44 -2z
m46 -20 c0 -4 -5 -13 -12 -20 -7 -7 -16 -12 -20 -12 -13 0 -9 28 5 33 19 8 27
8 27 -1z"/>
<path d="M432 1448 c-27 -27 -3 -90 25 -67 7 7 13 16 13 21 0 6 -7 5 -15 -2
-18 -15 -19 -7 -4 22 13 24 -1 44 -19 26z m18 -12 c0 -3 -4 -8 -10 -11 -5 -3
-10 -1 -10 4 0 6 5 11 10 11 6 0 10 -2 10 -4z"/>
<path d="M1538 1409 c-24 -13 -23 -26 3 -40 17 -9 25 -7 45 12 13 12 21 26 18
30 -7 12 -45 11 -66 -2z m38 -14 c-22 -17 -36 -19 -36 -7 0 14 12 22 34 22 21
-1 21 -1 2 -15z"/>
<path d="M1596 1361 c-14 -16 -15 -20 -2 -30 16 -14 48 -11 46 3 -1 5 4 12 10
16 7 4 9 13 6 19 -11 17 -41 13 -60 -8z m51 3 c-3 -3 -12 -4 -19 -1 -8 3 -5 6
6 6 11 1 17 -2 13 -5z m-22 -24 c-3 -5 -10 -10 -16 -10 -5 0 -9 5 -9 10 0 6 7
10 16 10 8 0 12 -4 9 -10z"/>
<path d="M296 1352 c-4 -7 -1 -19 7 -27 9 -8 17 -20 19 -27 7 -19 38 9 38 34
0 16 -5 19 -24 14 -15 -4 -26 -1 -28 6 -3 9 -6 9 -12 0z m51 -38 c-9 -9 -28 6
-21 18 4 6 10 6 17 -1 6 -6 8 -13 4 -17z"/>
<path d="M249 1312 c-24 -28 -34 -46 -21 -38 7 4 20 -10 34 -38 17 -36 25 -43
35 -34 11 9 10 13 -4 23 -14 11 -15 15 -4 28 14 17 8 49 -12 66 -10 7 -17 5
-28 -7z m38 -45 c-6 -19 -22 -6 -25 20 -2 27 -2 27 13 8 8 -10 14 -23 12 -28z"/>
<path d="M1644 1315 c-8 -21 4 -35 30 -35 27 0 51 24 41 40 -9 15 -65 12 -71
-5z m56 -5 c0 -12 -28 -25 -36 -17 -9 9 6 27 22 27 8 0 14 -5 14 -10z"/>
<path d="M1445 1261 c-3 -10 -6 -34 -7 -52 -2 -47 -52 -72 -118 -59 -119 24
-234 5 -301 -50 l-39 -31 -37 30 c-77 62 -164 74 -323 46 l-85 -15 -182 -182
c-130 -129 -183 -189 -183 -205 0 -22 3 -23 103 -23 56 0 165 7 242 15 192 21
280 19 333 -5 58 -26 53 -31 -10 -9 -66 23 -108 23 -289 3 -79 -9 -197 -16
-261 -17 -105 -2 -118 -4 -118 -19 0 -16 12 -18 113 -17 61 0 148 4 192 10
143 16 308 22 335 10 20 -8 13 -9 -35 -5 -33 3 -123 -2 -200 -11 -77 -8 -200
-18 -272 -22 -102 -5 -133 -9 -133 -20 0 -7 11 -13 28 -14 100 -2 232 4 341
16 213 24 284 18 387 -32 l54 -26 72 34 c67 30 81 33 168 33 164 -1 277 -14
296 -35 21 -24 60 -24 74 -1 10 16 10 16 20 0 12 -19 50 -24 65 -9 6 6 35 11
65 13 43 2 56 7 58 21 2 10 -3 17 -12 17 -9 0 -16 5 -16 10 0 6 7 10 15 10 8
0 15 7 15 15 0 8 -7 15 -15 15 -8 0 -15 5 -15 10 0 6 7 10 15 10 9 0 15 9 15
24 0 13 -7 29 -15 36 -12 10 -15 33 -13 104 l2 91 3 -77 c3 -68 6 -78 22 -78
25 0 31 19 31 91 0 93 -39 148 -105 150 -16 0 -23 3 -15 6 23 8 40 34 40 60 0
27 -42 57 -70 50 -11 -3 -23 0 -28 7 -25 43 -98 34 -108 -12 -3 -15 -6 -30 -7
-33 -1 -4 -13 -3 -25 2 -21 8 -24 15 -22 62 2 28 2 58 1 65 -2 19 -39 14 -46
-7z m-580 -155 c17 -7 45 -26 63 -41 31 -26 33 -32 28 -72 -3 -23 -9 -64 -12
-89 -4 -28 -2 -50 5 -57 10 -10 17 -137 7 -137 -2 0 -29 16 -61 35 -32 19 -78
37 -104 41 -26 4 -125 0 -226 -9 -276 -25 -345 -29 -345 -20 0 4 75 83 168
175 l167 167 95 15 c99 15 164 13 215 -8z m368 18 c10 -11 -11 -41 -33 -47
-11 -3 -23 -1 -26 4 -3 5 -18 9 -34 9 -20 0 -31 -6 -35 -20 -7 -21 -39 -27
-63 -11 -10 6 -5 14 21 30 47 29 154 51 170 35z m414 -38 c3 -3 -15 -6 -40 -6
-26 0 -47 3 -47 8 0 9 78 8 87 -2z m-197 -32 c0 -2 -13 -4 -30 -4 -16 0 -30 4
-30 8 0 5 14 7 30 4 17 -2 30 -6 30 -8z m-103 -256 c-2 -13 -4 -3 -4 22 0 25
2 35 4 23 2 -13 2 -33 0 -45z m160 -15 c-2 -16 -4 -5 -4 22 0 28 2 40 4 28 2
-13 2 -35 0 -50z m-300 20 c-3 -10 -5 -4 -5 12 0 17 2 24 5 18 2 -7 2 -21 0
-30z m70 0 c-3 -10 -5 -4 -5 12 0 17 2 24 5 18 2 -7 2 -21 0 -30z m150 -15
c-2 -13 -4 -5 -4 17 -1 22 1 32 4 23 2 -10 2 -28 0 -40z m183 7 c0 -19 -4 -35
-10 -35 -5 0 -10 16 -10 35 0 19 5 35 10 35 6 0 10 -16 10 -35z m87 -27 c-2
-13 -4 -5 -4 17 -1 22 1 32 4 23 2 -10 2 -28 0 -40z m-677 -53 c-7 -9 -15 -13
-19 -10 -3 3 1 10 9 15 21 14 24 12 10 -5z m590 -5 c0 -5 -4 -10 -10 -10 -5 0
-10 5 -10 10 0 6 5 10 10 10 6 0 10 -4 10 -10z m-410 -19 c-17 -9 -107 -25
-99 -17 6 6 76 24 99 25 13 0 13 -1 0 -8z m410 -31 c0 -5 -4 -10 -10 -10 -5 0
-10 5 -10 10 0 6 5 10 10 10 6 0 10 -4 10 -10z"/>
<path d="M127 1242 c-25 -27 -21 -53 14 -90 35 -37 53 -32 47 14 -2 21 -9 30
-25 32 -14 2 -23 -2 -23 -10 0 -8 -4 -7 -11 4 -7 13 -5 24 7 43 19 29 14 33
-9 7z m53 -88 c0 -19 -16 -18 -24 2 -11 27 -7 37 9 24 8 -7 15 -19 15 -26z"/>
<path d="M185 1240 c-8 -26 12 -62 33 -58 21 4 28 44 12 64 -17 20 -38 18 -45
-6z m42 -15 c3 -9 3 -19 -1 -22 -7 -7 -36 16 -36 28 0 15 30 10 37 -6z"/>
<path d="M1731 1241 c-18 -12 -7 -41 16 -41 15 0 16 2 3 10 -12 7 -12 12 -2
22 10 10 17 10 33 -1 18 -10 20 -10 17 1 -5 16 -48 22 -67 9z"/>
<path d="M1764 1185 c-8 -20 4 -35 27 -35 24 0 53 26 44 40 -10 15 -65 12 -71
-5z m54 -2 c-10 -2 -18 -9 -18 -14 0 -5 -8 -9 -17 -9 -16 1 -16 2 1 15 11 8
27 14 35 14 13 -1 12 -2 -1 -6z"/>
<path d="M1810 1134 c-19 -22 9 -49 44 -40 28 7 33 25 14 44 -17 17 -43 15
-58 -4z m55 -3 c3 -6 -3 -15 -14 -20 -26 -14 -31 -14 -31 3 0 21 34 34 45 17z"/>
<path d="M46 1098 c-18 -25 -21 -64 -6 -73 7 -4 7 -12 0 -25 -14 -26 -2 -50
24 -49 21 0 21 0 -1 9 -13 5 -23 15 -22 22 0 10 2 10 6 1 2 -7 14 -13 26 -12
22 0 22 0 0 9 -13 5 -23 14 -23 19 0 6 7 8 15 5 8 -4 15 -1 15 7 0 7 -3 9 -7
6 -11 -12 -33 15 -33 40 0 23 2 23 33 -15 31 -37 34 -38 45 -21 16 26 15 54
-3 69 -8 7 -15 9 -15 4 0 -5 -5 -1 -11 9 -13 23 -25 22 -43 -5z m34 -13 c0 -9
-6 -12 -15 -9 -8 4 -15 10 -15 15 0 5 7 9 15 9 8 0 15 -7 15 -15z m38 -35 c3
-21 2 -22 -12 -11 -19 16 -21 44 -3 39 6 -3 14 -15 15 -28z"/>
<path d="M1920 1085 c0 -5 5 -17 10 -25 5 -8 10 -10 10 -5 0 6 -5 17 -10 25
-5 8 -10 11 -10 5z"/>
<path d="M1845 1070 c-8 -13 12 -40 29 -40 6 0 4 4 -4 10 -21 13 -5 23 19 11
21 -12 38 0 26 19 -8 13 -62 13 -70 0z"/>
<path d="M1923 1020 c-32 -13 -28 -17 12 -12 19 2 35 8 35 13 0 11 -18 11 -47
-1z"/>
<path d="M1870 1000 c0 -5 5 -10 10 -10 6 0 10 5 10 10 0 6 -4 10 -10 10 -5 0
-10 -4 -10 -10z"/>
<path d="M1910 969 c-20 -6 -21 -7 -5 -8 15 -1 17 -3 7 -10 -11 -6 -10 -10 4
-15 22 -8 39 7 28 26 -6 10 -17 12 -34 7z"/>
<path d="M170 530 c0 -38 17 -39 23 -2 l4 27 2 -27 c2 -38 21 -36 21 2 0 25
-4 30 -25 30 -21 0 -25 -5 -25 -30z"/>
<path d="M230 529 c0 -33 5 -36 27 -14 14 14 16 14 27 -1 18 -24 51 -14 51 16
0 23 -4 25 -52 27 -52 2 -53 1 -53 -28z m90 1 c0 -11 -4 -20 -10 -20 -5 0 -10
9 -10 20 0 11 5 20 10 20 6 0 10 -9 10 -20z"/>
<path d="M363 553 c-18 -7 -16 -40 2 -47 22 -8 45 4 45 24 0 14 -23 34 -33 29
-1 0 -8 -3 -14 -6z"/>
<path d="M424 545 c-4 -8 -4 -22 0 -30 6 -17 46 -21 46 -4 0 6 -7 9 -15 5 -10
-4 -15 1 -15 14 0 13 5 18 15 14 8 -4 15 -1 15 5 0 17 -40 13 -46 -4z"/>
<path d="M484 546 c-10 -26 4 -48 28 -44 33 4 33 52 0 56 -13 2 -25 -3 -28
-12z m36 -16 c0 -11 -4 -20 -10 -20 -5 0 -10 9 -10 20 0 11 5 20 10 20 6 0 10
-9 10 -20z"/>
<path d="M551 530 c1 -19 3 -27 6 -17 4 17 5 17 17 1 18 -24 48 -11 44 18 -3
25 -48 40 -48 16 0 -10 -3 -9 -10 2 -7 11 -9 6 -9 -20z m54 -10 c-5 -8 -11 -8
-17 -2 -6 6 -7 16 -3 22 5 8 11 8 17 2 6 -6 7 -16 3 -22z"/>
<path d="M634 549 c-5 -8 -2 -11 7 -7 10 4 15 -1 16 -13 1 -13 -3 -16 -15 -12
-13 5 -14 3 -5 -7 18 -19 44 -5 39 22 -3 25 -30 36 -42 17z"/>
<path d="M190 445 c7 -8 10 -22 6 -30 -10 -26 13 -16 28 13 l15 27 1 -27 c0
-16 5 -28 10 -28 6 0 10 7 10 15 0 21 18 19 23 -2 3 -10 5 -2 6 17 0 27 -2 32
-10 20 -8 -11 -12 -12 -16 -2 -6 15 -43 16 -43 0 0 -9 -3 -9 -12 0 -17 17 -33
15 -18 -3z"/>
<path d="M300 430 c0 -30 23 -43 33 -17 4 10 6 10 6 0 2 -27 21 -11 21 17 0
32 -9 37 -28 18 -9 -9 -12 -9 -12 0 0 7 -4 12 -10 12 -5 0 -10 -13 -10 -30z"/>
<path d="M370 430 c0 -27 1 -28 65 -29 37 0 65 4 65 9 0 6 7 10 15 10 8 0 15
9 15 20 0 15 -7 20 -25 20 -20 0 -25 -5 -25 -25 0 -18 -5 -25 -20 -25 -25 0
-27 20 -2 21 14 0 14 2 -3 8 l-20 8 20 5 c11 3 -4 5 -32 6 -51 0 -53 -1 -53
-28z m30 -10 c0 -5 -4 -10 -10 -10 -5 0 -10 5 -10 10 0 6 5 10 10 10 6 0 10
-4 10 -10z"/>
<path d="M544 445 c-13 -33 24 -63 41 -34 4 6 0 9 -11 7 -12 -2 -19 3 -19 12
0 9 7 14 19 12 11 -2 15 1 11 7 -9 16 -35 13 -41 -4z"/>
<path d="M600 428 c0 -29 14 -38 23 -15 4 10 6 10 6 0 2 -24 21 -13 21 12 0
14 5 25 10 25 6 0 10 -11 10 -25 0 -35 17 -31 22 5 l5 30 -49 -1 c-46 -2 -48
-4 -48 -31z"/>
<path d="M710 430 c0 -26 3 -30 28 -29 16 1 20 3 10 6 -10 2 -18 9 -18 14 0 5
8 9 18 10 14 0 14 2 -3 9 -18 8 -17 9 8 9 22 1 27 -3 27 -24 0 -35 17 -31 22
5 5 30 4 30 -44 30 -47 0 -48 -1 -48 -30z"/>
<path d="M824 445 c-13 -33 24 -63 41 -34 4 6 0 9 -11 7 -12 -2 -19 3 -19 12
0 9 7 14 19 12 11 -2 15 1 11 7 -9 16 -35 13 -41 -4z"/>
<path d="M880 430 c0 -27 2 -28 50 -26 27 0 50 3 50 6 -1 18 -14 50 -21 50 -5
0 -15 -12 -22 -26 -9 -18 -16 -23 -21 -15 -4 7 -3 18 3 25 9 11 6 14 -14 14
-21 0 -25 -5 -25 -28z"/>
<path d="M999 458 c-12 -45 1 -78 16 -40 7 16 8 15 15 -3 7 -17 9 -14 9 13 1
26 -3 32 -19 32 -11 0 -20 -1 -21 -2z"/>
<path d="M1076 445 c-13 -34 31 -64 50 -34 4 8 0 9 -15 4 -17 -5 -21 -2 -21
15 0 17 4 20 21 15 15 -5 19 -4 15 4 -10 16 -43 13 -50 -4z"/>
<path d="M1137 446 c-12 -30 3 -45 43 -44 34 0 39 4 43 27 l4 26 2 -27 c2 -38
21 -36 21 2 0 25 -4 30 -25 30 -20 0 -25 -5 -26 -27 l-1 -28 -7 25 c-8 29 -45
39 -54 16z m38 -26 c-5 -8 -11 -8 -17 -2 -6 6 -7 16 -3 22 5 8 11 8 17 2 6 -6
7 -16 3 -22z"/>
<path d="M1260 429 c0 -16 5 -29 10 -29 6 0 10 6 10 13 0 8 3 8 9 -2 5 -8 25
-15 45 -16 34 -1 36 1 36 32 0 28 -3 33 -24 33 -19 0 -26 -6 -29 -27 l-4 -28
-2 26 c-1 21 -6 27 -26 27 -21 0 -25 -5 -25 -29z m87 -11 c-3 -7 -5 -2 -5 12
0 14 2 19 5 13 2 -7 2 -19 0 -25z"/>
<path d="M1390 441 c-15 -29 -12 -36 15 -36 27 0 27 0 19 33 -8 27 -20 28 -34
3z"/>
<path d="M1440 430 c0 -35 4 -37 31 -11 24 22 18 41 -12 41 -14 0 -19 -7 -19
-30z"/>
<path d="M1500 430 c0 -32 16 -41 23 -12 4 16 5 16 6 0 2 -31 21 -19 21 12 0
30 -14 41 -23 18 -4 -10 -6 -10 -6 0 -2 26 -21 10 -21 -18z"/>
<path d="M1564 445 c-4 -8 -4 -22 0 -30 6 -18 46 -20 46 -3 0 9 3 9 12 0 14
-14 48 -16 48 -2 0 5 -7 7 -15 4 -11 -4 -15 0 -15 16 0 16 4 20 15 16 8 -3 15
-1 15 4 0 14 -34 12 -48 -2 -9 -9 -12 -9 -12 0 0 17 -40 15 -46 -3z m31 -25
c-5 -8 -11 -8 -17 -2 -6 6 -7 16 -3 22 5 8 11 8 17 2 6 -6 7 -16 3 -22z"/>
<path d="M1688 430 c5 -36 22 -40 22 -6 0 13 6 27 13 29 6 3 0 6 -14 6 -23 1
-25 -2 -21 -29z"/>
<path d="M1740 432 c0 -29 3 -33 22 -30 28 4 35 26 11 35 -10 3 -21 11 -25 17
-4 6 -8 -4 -8 -22z m30 -12 c0 -5 -4 -10 -10 -10 -5 0 -10 5 -10 10 0 6 5 10
10 10 6 0 10 -4 10 -10z"/>
<path d="M145 430 c-8 -14 3 -30 21 -30 8 0 14 9 14 20 0 21 -24 28 -35 10z"/>
<path d="M1800 420 c0 -11 7 -20 15 -20 8 0 15 9 15 20 0 11 -7 20 -15 20 -8
0 -15 -9 -15 -20z"/>
</g>
</svg>
