<svg xmlns="http://www.w3.org/2000/svg" viewBox="0 0 511.68 336">
  <path d="M0 336h511.68V0H0z" fill="#194093"/>
  <path d="M447.66 0L314.356 87.415V0H196.957v91.007L56.05 0H0v45.433l101.057 65.586H0V227.42h100.237L0 293.475V336h66.316l130.641-85.983V336h117.399v-87.49L449.326 336h62.354v-42.05l-102.7-66.529h102.7V111.02H409.496L511.68 43.813V0z" fill="#fff"/>
  <path d="M0 0v29.3l123.061 81.719h41.655zM347.197 227.422L511.68 336v-27.256l-122.83-81.322zM163.076 227.422L0 336h39.058l157.9-103.248v-5.33zM474.373 0L314.356 104.165v6.854h31.55L511.68 2.716V0z" fill="#e30613"/>
  <path d="M222.114 0v135.723H.001v66.996h222.113V336h67.085V202.719h222.48v-66.996H289.2V0z" fill="#e30613"/>
</svg>
