<svg xmlns="http://www.w3.org/2000/svg" viewBox="0 0 6729.613 4251.08">
  <g transform="matrix(1.33333 0 0 -1.33333 0 4251.08)">
    <path d="M4001.387 1580.8l.022-728.35c0-8.913-2.284-17.782-6.11-25.804-8.223-17.24-25.604-33.802-45.787-33.697l-30.598.16a24.596 24.596 0 0 0-7.157.945c-10.577 3.03-17.806 12.589-22.253 22.144-5.121 11.006-7.617 23.958-7.86 36.06l-8.122 405.18c-2.063 5.457-8.587 10.626-14.41 10.623l-34.827-.016c-3.636-.15-7.372-.73-10.898-1.615-3.735-.94-14.907-4.562-15.041-9.562-.385-14.292-.258-28.648-.016-42.943.31-18.317.87-36.636 1.519-54.944 1.53-43.28 3.557-86.55 5.497-129.812 1.502-33.492 2.986-66.987 4.2-100.49 1.049-28.882 1.95-57.826 2.123-86.728.153-25.817-21.137-48.972-47.323-48.996l-30.814-.027c-21.046-.02-39.296 17.84-47.187 36.118-3.173 7.354-5.01 15.315-5.007 23.342l.141 776.49c.006 24.385-6.3 47.545-22.625 66.077-4.659 5.288-9.799 9.792-15.446 13.983-1.769 1.313-3.606 2.576-5.339 3.932-2.546 1.992-4.738 4.576-3.683 8.125 1.431 4.81 6.686 4.805 10.704 4.71 5.442-.128 10.946-.518 16.387-.802 25.492-1.33 50.95-1.856 76.476-1.856h206.302l9.704.01c11.717.012 23.23-1.934 34.346-5.612 27.483-9.098 50.988-28.171 69.98-49.584 16.904-19.06 31.33-41.086 43.01-63.704 4.902-9.496 9.408-19.261 13.31-29.212 2.907-7.413 5.644-15.215 7.472-22.971 4.096-17.383 8.342-35.126 10.5-52.875 1.645-13.556 2.196-27.37 2.87-41.004a679 679 0 0 0 .715-22.15c.38-23.243-.246-46.624-1.727-69.824-.597-9.364-1.337-18.733-2.309-28.066-.69-6.655-1.474-13.401-2.628-19.994-1.624-9.285-3.085-18.6-4.697-27.888-2.349-13.546-4.968-27.768-9.266-40.834-3.062-9.303-8.233-21.855-17.66-26.308-18.044-8.52-32.77-9.364-48.626 4.195-5.624 4.808-9.095 13.687-10.822 20.689-2.639 10.707-2.728 22.2-.742 33.023 4.05 22.067 8.775 44.152 11.732 66.393 2.802 21.073 3.67 41.568 2.158 62.794-1.34 18.812-2.205 37.637-3.482 56.445-.903 13.292-2.09 26.637-4.862 39.69-2.4 11.298-5.958 22.005-10.476 32.626-.415.976-.846 1.946-1.289 2.91-5.952 12.902-17.752 30.613-29.62 38.804-.103.07-.275.144-.46.2m-159.504 407.418c63.264 0 114.555-51.29 114.555-114.554 0-63.265-51.29-114.555-114.555-114.555-63.265 0-114.555 51.29-114.555 114.555 0 63.264 51.291 114.554 114.555 114.554" fill="#ffffff" fill-rule="evenodd"/>
    <path d="M4001.387 1580.8l.022-728.35c0-8.913-2.284-17.782-6.11-25.804-8.223-17.24-25.604-33.802-45.787-33.697l-30.598.16a24.596 24.596 0 0 0-7.157.945c-10.577 3.03-17.806 12.589-22.253 22.144-5.121 11.006-7.617 23.958-7.86 36.06l-8.122 405.18c-2.063 5.457-8.587 10.626-14.41 10.623l-34.827-.016c-3.636-.15-7.372-.73-10.898-1.615-3.735-.94-14.907-4.562-15.041-9.562-.385-14.292-.258-28.648-.016-42.943.31-18.317.87-36.636 1.519-54.944 1.53-43.28 3.557-86.55 5.497-129.812 1.502-33.492 2.986-66.987 4.2-100.49 1.049-28.882 1.95-57.826 2.123-86.728.153-25.817-21.137-48.972-47.323-48.996l-30.814-.027c-21.046-.02-39.296 17.84-47.187 36.118-3.173 7.354-5.01 15.315-5.007 23.342l.141 776.49c.006 24.385-6.3 47.545-22.625 66.077-4.659 5.288-9.799 9.792-15.446 13.983-1.769 1.313-3.606 2.576-5.339 3.932-2.546 1.992-4.738 4.576-3.683 8.125 1.431 4.81 6.686 4.805 10.704 4.71 5.442-.128 10.946-.518 16.387-.802 25.492-1.33 50.95-1.856 76.476-1.856h206.302l9.704.01c11.717.012 23.23-1.934 34.346-5.612 27.483-9.098 50.988-28.171 69.98-49.584 16.904-19.06 31.33-41.086 43.01-63.704 4.902-9.496 9.408-19.261 13.31-29.212 2.907-7.413 5.644-15.215 7.472-22.971 4.096-17.383 8.342-35.126 10.5-52.875 1.645-13.556 2.196-27.37 2.87-41.004a679 679 0 0 0 .715-22.15c.38-23.243-.246-46.624-1.727-69.824-.597-9.364-1.337-18.733-2.309-28.066-.69-6.655-1.474-13.401-2.628-19.994-1.624-9.285-3.085-18.6-4.697-27.888-2.349-13.546-4.968-27.768-9.266-40.834-3.062-9.303-8.233-21.855-17.66-26.308-18.044-8.52-32.77-9.364-48.626 4.195-5.624 4.808-9.095 13.687-10.822 20.689-2.639 10.707-2.728 22.2-.742 33.023 4.05 22.067 8.775 44.152 11.732 66.393 2.802 21.073 3.67 41.568 2.158 62.794-1.34 18.812-2.205 37.637-3.482 56.445-.903 13.292-2.09 26.637-4.862 39.69-2.4 11.298-5.958 22.005-10.476 32.626-.415.976-.846 1.946-1.289 2.91-5.952 12.902-17.752 30.613-29.62 38.804-.103.07-.275.144-.46.2zm-159.505 407.418c63.265 0 114.556-51.29 114.556-114.554 0-63.265-51.29-114.555-114.556-114.555-63.264 0-114.554 51.29-114.554 114.555 0 63.264 51.29 114.554 114.555 114.554z" fill="none" stroke="#fff" stroke-width="28.346" stroke-miterlimit="22.926"/>
    <path d="M3737.953 1717.377h206.309l9.703.011c91.502.093 152.744-124.942 162.593-166.715 10.8-45.807 11.26-52.989 13.226-92.858 2.725-55.213-1.956-116.419-5.87-138.777-6.147-35.118-11.826-83.025-28.461-90.881-15.961-7.537-28.386-8.708-42.52 3.377-6.871 5.876-13.908 25.298-9.671 48.38 8.71 47.473 17.419 82.209 13.968 130.614-4.726 66.331-2.431 91.012-19.257 130.577-8.291 19.496-22.454 36.948-32.91 44.162-3.146 2.172-9.346 2.14-9.346-4.405l.023-728.411c.002-26.595-22.85-53.954-46.2-53.833l-30.661.161c-18.78-.361-31.03 26.78-31.567 53.594l-8.14 406.057c-2.487 8.073-11.492 15.3-20.063 15.3l-34.937-.016c-12.68-.489-31.211-6.155-31.494-16.693-2.266-84.37 12.634-299.373 13.322-415.103.133-22.411-18.364-43.272-41.658-43.293l-30.814-.028c-23.132-.02-46.526 26.724-46.521 53.789l.14 776.491c.017 115.203-134.952 88.5 50.806 88.5m103.93 265.171c60.134 0 108.884-48.749 108.884-108.884 0-60.136-48.75-108.886-108.884-108.886-60.135 0-108.885 48.75-108.885 108.886 0 60.135 48.75 108.884 108.885 108.884" fill="#ffffff" fill-rule="evenodd"/>
    <path d="M3737.953 1717.377h206.309l9.703.011c91.502.093 152.744-124.942 162.593-166.715 10.8-45.807 11.26-52.989 13.226-92.858 2.725-55.213-1.956-116.419-5.87-138.777-6.147-35.118-11.826-83.025-28.461-90.881-15.961-7.537-28.386-8.708-42.52 3.377-6.871 5.876-13.908 25.298-9.671 48.38 8.71 47.473 17.419 82.209 13.968 130.614-4.726 66.331-2.431 91.012-19.257 130.577-8.291 19.496-22.454 36.948-32.91 44.162-3.146 2.172-9.346 2.14-9.346-4.405l.023-728.411c.002-26.595-22.85-53.954-46.2-53.833l-30.661.161c-18.78-.361-31.03 26.78-31.567 53.594l-8.14 406.057c-2.487 8.073-11.492 15.3-20.063 15.3l-34.937-.016c-12.68-.489-31.211-6.155-31.494-16.693-2.266-84.37 12.634-299.373 13.322-415.103.133-22.411-18.364-43.272-41.658-43.293l-30.814-.028c-23.132-.02-46.526 26.724-46.521 53.789l.14 776.491c.017 115.203-134.952 88.5 50.806 88.5zm103.93 265.171c60.134 0 108.884-48.749 108.884-108.884 0-60.136-48.75-108.886-108.884-108.886-60.135 0-108.885 48.75-108.885 108.886 0 60.135 48.75 108.884 108.885 108.884z" fill="none" stroke="#000000" stroke-width="28.346" stroke-miterlimit="22.926"/>
    <path d="M1343.584 1930.16c324.695 43.028 374.89 76.877 596.083 77.167 187.24-12.095 356.858-70.49 538.096-265.708 168.636 183.496 288.322 240.643 538.53 265.708 231.143 1.916 298.033-35.144 594.974-77.253l943.012-926.758.135-50.561c-579.917-36.284-1269.064 102.938-1450.808 89.155-222.473-.431-342.3-63.202-626.254-282.715-289.442 219.619-404.512 282.099-628.607 282.632-208.637 14.928-881.973-119.38-1448.455-89.072l.249 50.504zM2477.762 1741.62l-.41-982.426M2477.362 542.31l-.01 216.885" fill="none" stroke="#ffffff" stroke-width="85.039" stroke-miterlimit="22.926"/>
    <path d="M2477.276 656.02c139.54 124.396 352.971 223.514 543.205 247.567 165.627 20.942 399.593-21.14 592.334-41.713 196.767-21.004 435.657-45.98 624.917-48.094 121.795-1.361 236.23-2.18 360.043 4.543" fill="none" stroke="#ffffff" stroke-width="85.039" stroke-miterlimit="22.926"/>
    <path d="M2483.933 578.693c152.8 108.956 346.642 183.272 587.684 195.718 174.515 9.01 564.81-53.053 801.27-70.84 271.017-28.67 527.222-31.504 724.696-21.457M2470.092 580.276c-157.71 108.956-357.784 183.272-606.574 195.718-180.126 9.01-582.965-53.054-827.026-70.842-264.414-21.855-485.497-26.07-678.727-21.139" fill="none" stroke="#ffffff" stroke-width="85.039" stroke-miterlimit="22.926"/>
    <path d="M2474.725 659.138c-143.481 124.396-362.941 223.514-558.55 247.567-170.304 20.942-410.88-21.14-609.065-41.713-202.326-21.004-447.964-45.982-642.57-48.094-125.234-1.36-201.353 1.345-306.844 4.809" fill="none" stroke="#ffffff" stroke-width="85.039" stroke-miterlimit="22.926"/>
    <path d="M2840.64 1480.235l.016-474.14c0-6.144-1.565-12.25-4.203-17.78-5.732-12.016-17.79-23.295-31.819-23.223l-20.053.106c-17.754-.313-19.359 28.308-19.77 40.656l-8.847 265.054c-2.236 3.252-6.853 6.018-10.652 6.016l-23.318-.01-.385.052c-1.142.158-2.337.14-3.48.011-1.325-.148-4.703-.906-5.845-2.008-.313-20.645-.396-41.306-.46-61.955-.086-27.068-.084-54.138-.039-81.207.068-40.388.214-80.782.556-121.169a69.23 69.23 0 0 0-.572-9.425c-1.966-15.24-10.406-36.1-28.652-36.117l-20.225-.017c-14.62-.014-27.265 12.15-32.76 24.882-2.19 5.071-3.449 10.557-3.447 16.091l.093 509.638c.003 15.522-3.967 30.28-14.365 42.08-2.966 3.368-6.239 6.233-9.835 8.901-1.175.872-2.393 1.71-3.544 2.611-2.329 1.821-4.032 4.236-3.084 7.424 1.263 4.248 5.335 4.567 8.938 4.482 3.591-.084 7.222-.342 10.812-.529 16.696-.869 33.372-1.215 50.091-1.215h135.403l6.368.006c7.898.008 15.663-1.303 23.156-3.782 18.375-6.083 34.074-18.78 46.774-33.099 11.203-12.63 20.762-27.22 28.502-42.21 5.41-10.474 11.091-23.185 13.806-34.697 2.707-11.483 5.506-23.193 6.93-34.915 1.087-8.946 1.453-18.056 1.896-27.053.241-4.863.391-9.732.471-14.602.252-15.308-.162-30.705-1.137-45.984-.392-6.172-.88-12.346-1.52-18.498-.46-4.413-.98-8.885-1.745-13.257-1.067-6.093-2.026-12.205-3.082-18.3-1.559-8.988-3.299-18.407-6.152-27.077-2.208-6.71-5.827-15.217-12.61-18.42-12.543-5.923-23.002-6.38-34.012 3.034-4.032 3.45-6.488 9.564-7.727 14.594-1.798 7.296-1.866 15.117-.513 22.492 2.652 14.452 5.75 28.918 7.687 43.483 1.821 13.7 2.387 27.017 1.403 40.817-.88 12.35-1.447 24.706-2.285 37.052-.587 8.632-1.354 17.305-3.155 25.78-1.547 7.29-3.846 14.198-6.76 21.054-3.292 7.74-9.888 18.26-16.849 24.373m-106.636 273.25c42.598 0 77.134-34.537 77.134-77.135 0-42.597-34.536-77.134-77.134-77.134s-77.135 34.537-77.135 77.134c0 42.6 34.537 77.135 77.135 77.135" fill="#ffffff" fill-rule="evenodd"/>
    <path d="M2840.64 1480.235l.016-474.14c0-6.144-1.565-12.25-4.203-17.78-5.732-12.016-17.79-23.295-31.819-23.223l-20.053.106c-17.754-.313-19.359 28.308-19.77 40.656l-8.847 265.054c-2.236 3.252-6.853 6.018-10.652 6.016l-23.318-.01-.385.052c-1.142.158-2.337.14-3.48.011-1.325-.148-4.703-.906-5.845-2.008-.313-20.645-.396-41.306-.46-61.955-.086-27.068-.084-54.138-.039-81.207.068-40.388.214-80.782.556-121.169a69.23 69.23 0 0 0-.572-9.425c-1.966-15.24-10.406-36.1-28.652-36.117l-20.225-.017c-14.62-.014-27.265 12.15-32.76 24.882-2.19 5.071-3.449 10.557-3.447 16.091l.093 509.638c.003 15.522-3.967 30.28-14.365 42.08-2.966 3.368-6.239 6.233-9.835 8.901-1.175.872-2.393 1.71-3.544 2.611-2.329 1.821-4.032 4.236-3.084 7.424 1.263 4.248 5.335 4.567 8.938 4.482 3.591-.084 7.222-.342 10.812-.529 16.696-.869 33.372-1.215 50.091-1.215h135.403l6.368.006c7.898.008 15.663-1.303 23.156-3.782 18.375-6.083 34.074-18.78 46.774-33.099 11.203-12.63 20.762-27.22 28.502-42.21 5.41-10.474 11.091-23.185 13.806-34.697 2.707-11.483 5.506-23.193 6.93-34.915 1.087-8.946 1.453-18.056 1.896-27.053.241-4.863.391-9.732.471-14.602.252-15.308-.162-30.705-1.137-45.984-.392-6.172-.88-12.346-1.52-18.498-.46-4.413-.98-8.885-1.745-13.257-1.067-6.093-2.026-12.205-3.082-18.3-1.559-8.988-3.299-18.407-6.152-27.077-2.208-6.71-5.827-15.217-12.61-18.42-12.543-5.923-23.002-6.38-34.012 3.034-4.032 3.45-6.488 9.564-7.727 14.594-1.798 7.296-1.866 15.117-.513 22.492 2.652 14.452 5.75 28.918 7.687 43.483 1.821 13.7 2.387 27.017 1.403 40.817-.88 12.35-1.447 24.706-2.285 37.052-.587 8.632-1.354 17.305-3.155 25.78-1.547 7.29-3.846 14.198-6.76 21.054-3.292 7.74-9.888 18.26-16.849 24.373zm-106.636 273.25c42.598 0 77.134-34.537 77.134-77.135 0-42.597-34.536-77.134-77.134-77.134s-77.135 34.537-77.135 77.134c0 42.6 34.537 77.135 77.135 77.135z" fill="none" stroke="#fff" stroke-width="28.346" stroke-miterlimit="22.926"/>
    <path d="M2665.792 1573.774h135.407l6.369.007c60.055.061 100.25-82.003 106.714-109.42 7.089-30.065 7.392-34.778 8.683-60.946 1.787-36.239-1.285-76.41-3.854-91.084-4.035-23.049-7.762-54.493-18.68-59.648-10.475-4.947-18.63-5.716-27.906 2.216-4.51 3.856-9.13 16.604-6.35 31.754 5.719 31.157 11.434 53.957 9.17 85.726-3.103 43.536-1.597 59.734-12.64 85.702-5.441 12.796-14.736 24.25-21.6 28.984-2.065 1.426-6.134 1.406-6.134-2.89l.016-478.08c0-17.456-14.998-35.413-30.323-35.333l-20.124.106c-10.328-.238-13.46 17.074-14.063 35.176l-8.895 266.507c-2.762 5.3-9.73 10.042-16.271 10.042l-22.931-.009c-6.777.93-15.683-2.19-15.756-6.972-.861-56.182-.568-192.21.049-265.022.157-18.625-8.273-39.81-23.562-39.824l-20.223-.018c-15.183-.013-30.536 17.54-30.534 35.303l.094 509.637c.01 75.613-88.575 58.086 33.344 58.086m68.213 174.041c39.469 0 71.464-31.996 71.464-71.465 0-39.469-31.995-71.465-71.464-71.465-39.47 0-71.466 31.996-71.466 71.465 0 39.47 31.996 71.465 71.466 71.465" fill="#ffffff" fill-rule="evenodd"/>
    <path d="M2665.792 1573.774h135.407l6.369.007c60.055.061 100.25-82.003 106.714-109.42 7.089-30.065 7.392-34.778 8.683-60.946 1.787-36.239-1.285-76.41-3.854-91.084-4.035-23.049-7.762-54.493-18.68-59.648-10.475-4.947-18.63-5.716-27.906 2.216-4.51 3.856-9.13 16.604-6.35 31.754 5.719 31.157 11.434 53.957 9.17 85.726-3.103 43.536-1.597 59.734-12.64 85.702-5.441 12.796-14.736 24.25-21.6 28.984-2.065 1.426-6.134 1.406-6.134-2.89l.016-478.08c0-17.456-14.998-35.413-30.323-35.333l-20.124.106c-10.328-.238-13.46 17.074-14.063 35.176l-8.895 266.507c-2.762 5.3-9.73 10.042-16.271 10.042l-22.931-.009c-6.777.93-15.683-2.19-15.756-6.972-.861-56.182-.568-192.21.049-265.022.157-18.625-8.273-39.81-23.562-39.824l-20.223-.018c-15.183-.013-30.536 17.54-30.534 35.303l.094 509.637c.01 75.613-88.575 58.086 33.344 58.086zm68.213 174.041c39.469 0 71.464-31.996 71.464-71.465 0-39.469-31.995-71.465-71.464-71.465-39.47 0-71.466 31.996-71.466 71.465 0 39.47 31.996 71.465 71.466 71.465z" fill="none" stroke="#000000" stroke-width="28.346" stroke-miterlimit="22.926"/>
    <path d="M2712.256 1481.324l.096-521.077c0-6.08-1.4-12.109-3.825-17.67-6.007-13.77-19.738-26.957-35.58-26.943l-22.34.02c-13.94.012-26.198 10.6-32.85 22.113-3.921 6.792-6.41 14.66-6.377 22.544.399 97.992-.15 195.991-.032 293.984.003 2.057-1.856 5.323-4.116 5.324l-25.33.011c-.806 0-1.84-.876-2.334-1.435-.951-1.073-1.592-2.529-1.592-3.974l.024-293.984c0-7.446-2.198-14.854-5.742-21.366-6.568-12.068-19.262-23.297-33.716-23.106l-22.175-.116c-15.212-.079-28.31 12.172-34.56 25.18-2.906 6.048-4.635 12.736-4.635 19.465l.018 524.297c-8.12-6.653-15.921-18.94-19.752-27.934-3.236-7.599-5.787-15.256-7.505-23.34-1.993-9.375-2.844-18.966-3.494-28.514-.926-13.617-1.552-27.246-2.524-40.866-1.09-15.259-.464-29.987 1.553-45.135 2.14-16.079 5.564-32.047 8.496-48 1.48-8.055 1.408-16.6-.56-24.569-1.337-5.422-3.997-12.08-8.348-15.795-11.98-10.229-23.287-9.693-36.926-3.26-7.312 3.447-11.241 12.744-13.622 19.97-3.142 9.534-5.057 19.9-6.774 29.785-1.168 6.725-2.227 13.468-3.406 20.191-.843 4.808-1.415 9.728-1.921 14.584-.706 6.777-1.244 13.581-1.68 20.383-1.075 16.837-1.531 33.807-1.253 50.678.089 5.365.255 10.73.52 16.087.49 9.91.892 19.947 2.09 29.8 1.57 12.91 4.659 25.808 7.645 38.452 1.344 5.697 3.353 11.424 5.492 16.867 2.854 7.266 6.149 14.397 9.736 21.328 8.545 16.514 19.1 32.588 31.468 46.493 19.828 22.29 45.82 40.412 76.71 40.381l7.03-.008h149.579c25.87 0 51.736-9.047 71.785-25.432 20.497-16.749 20.825-59.804 19.805-83.4-.224-5.196-3.176-13.565-5.144-18.379-2.83-6.919-8.9-20.002-18.305-18.016-8.004 1.691-14.576 13.656-18.214 20.296-1.984 3.622-3.854 7.3-5.773 10.956-.507.965-1.058 2.051-1.642 3.13m-117.528 303.918c46.667 0 84.502-37.835 84.502-84.502 0-46.667-37.835-84.502-84.502-84.502-46.667 0-84.501 37.835-84.501 84.502 0 46.667 37.834 84.502 84.5 84.502" fill="#ffffff" fill-rule="evenodd"/>
    <path d="M2712.256 1481.324l.096-521.077c0-6.08-1.4-12.109-3.825-17.67-6.007-13.77-19.738-26.957-35.58-26.943l-22.34.02c-13.94.012-26.198 10.6-32.85 22.113-3.921 6.792-6.41 14.66-6.377 22.544.399 97.992-.15 195.991-.032 293.984.003 2.057-1.856 5.323-4.116 5.324l-25.33.011c-.806 0-1.84-.876-2.334-1.435-.951-1.073-1.592-2.529-1.592-3.974l.024-293.984c0-7.446-2.198-14.854-5.742-21.366-6.568-12.068-19.262-23.297-33.716-23.106l-22.175-.116c-15.212-.079-28.31 12.172-34.56 25.18-2.906 6.048-4.635 12.736-4.635 19.465l.018 524.297c-8.12-6.653-15.921-18.94-19.752-27.934-3.236-7.599-5.787-15.256-7.505-23.34-1.993-9.375-2.844-18.966-3.494-28.514-.926-13.617-1.552-27.246-2.524-40.866-1.09-15.259-.464-29.987 1.553-45.135 2.14-16.079 5.564-32.047 8.496-48 1.48-8.055 1.408-16.6-.56-24.569-1.337-5.422-3.997-12.08-8.348-15.795-11.98-10.229-23.287-9.693-36.926-3.26-7.312 3.447-11.241 12.744-13.622 19.97-3.142 9.534-5.057 19.9-6.774 29.785-1.168 6.725-2.227 13.468-3.406 20.191-.843 4.808-1.415 9.728-1.921 14.584-.706 6.777-1.244 13.581-1.68 20.383-1.075 16.837-1.531 33.807-1.253 50.678.089 5.365.255 10.73.52 16.087.49 9.91.892 19.947 2.09 29.8 1.57 12.91 4.659 25.808 7.645 38.452 1.344 5.697 3.353 11.424 5.492 16.867 2.854 7.266 6.149 14.397 9.736 21.328 8.545 16.514 19.1 32.588 31.468 46.493 19.828 22.29 45.82 40.412 76.71 40.381l7.03-.008h149.579c25.87 0 51.736-9.047 71.785-25.432 20.497-16.749 20.825-59.804 19.805-83.4-.224-5.196-3.176-13.565-5.144-18.379-2.83-6.919-8.9-20.002-18.305-18.016-8.004 1.691-14.576 13.656-18.214 20.296-1.984 3.622-3.854 7.3-5.773 10.956-.507.965-1.058 2.051-1.642 3.13zm-117.528 303.918c46.667 0 84.502-37.835 84.502-84.502 0-46.667-37.835-84.502-84.502-84.502-46.667 0-84.501 37.835-84.501 84.502 0 46.667 37.834 84.502 84.5 84.502z" fill="none" stroke="#fff" stroke-width="28.346" stroke-miterlimit="22.926"/>
    <path d="M2669.744 1586.5h-149.579l-7.036.007c-66.34.068-110.742-90.457-117.883-120.701-7.83-33.163-8.164-38.364-9.59-67.229-1.975-39.974 1.419-84.288 4.256-100.474 4.457-25.426 8.575-60.111 20.635-65.798 11.572-5.456 20.58-6.305 30.828 2.445 4.98 4.254 10.083 18.315 7.013 35.026-6.317 34.371-12.63 59.52-10.128 94.565 3.427 48.023 1.763 65.892 13.962 94.538 6.01 14.114 16.279 26.75 23.859 31.973 2.282 1.573 6.778 1.55 6.778-3.189l-.017-527.369c-.002-19.254 16.567-39.064 33.496-38.975l22.23.116c16.87-.261 33.764 19.795 33.763 38.802l-.025 293.984c.003 5.845 4.844 11.078 9.597 11.078l25.33-.011c5.093-.014 9.79-5.288 9.783-11-.073-61.268.366-212.335.033-294-.076-18.725 16.674-38.95 33.563-38.965l22.34-.019c16.77-.015 33.733 19.348 33.73 38.942l-.097 525.577c0 3.384 4.276 7.562 7.936 2.612 4.975-6.727 15.8-34.102 24.536-35.946 7.58-1.601 16.349 24.964 16.614 31.092 2.087 48.319-7.091 70.072-17.73 78.767-26.566 21.711-55.832 24.152-68.197 24.152m-75.017 193.073c43.538 0 78.833-35.295 78.833-78.833s-35.295-78.833-78.833-78.833-78.832 35.295-78.832 78.833 35.294 78.833 78.832 78.833" fill="#ffffff" fill-rule="evenodd"/>
    <path d="M2669.744 1586.5h-149.579l-7.036.007c-66.34.068-110.742-90.457-117.883-120.701-7.83-33.163-8.164-38.364-9.59-67.229-1.975-39.974 1.419-84.288 4.256-100.474 4.457-25.426 8.575-60.111 20.635-65.798 11.572-5.456 20.58-6.305 30.828 2.445 4.98 4.254 10.083 18.315 7.013 35.026-6.317 34.371-12.63 59.52-10.128 94.565 3.427 48.023 1.763 65.892 13.962 94.538 6.01 14.114 16.279 26.75 23.859 31.973 2.282 1.573 6.778 1.55 6.778-3.189l-.017-527.369c-.002-19.254 16.567-39.064 33.496-38.975l22.23.116c16.87-.261 33.764 19.795 33.763 38.802l-.025 293.984c.003 5.845 4.844 11.078 9.597 11.078l25.33-.011c5.093-.014 9.79-5.288 9.783-11-.073-61.268.366-212.335.033-294-.076-18.725 16.674-38.95 33.563-38.965l22.34-.019c16.77-.015 33.733 19.348 33.73 38.942l-.097 525.577c0 3.384 4.276 7.562 7.936 2.612 4.975-6.727 15.8-34.102 24.536-35.946 7.58-1.601 16.349 24.964 16.614 31.092 2.087 48.319-7.091 70.072-17.73 78.767-26.566 21.711-55.832 24.152-68.197 24.152zm-75.017 193.073c43.538 0 78.833-35.295 78.833-78.833s-35.295-78.833-78.833-78.833-78.832 35.295-78.832 78.833 35.294 78.833 78.832 78.833z" fill="none" stroke="#000000" stroke-width="28.346" stroke-miterlimit="22.926"/>
    <path d="M3175.623 1511.188l.019-550.537c0-6.975-1.782-13.91-4.777-20.189-6.48-13.582-20.134-26.446-36.01-26.363l-23.212.121c-19.992-.353-22.473 32.102-23.071 46.13l-12.871 301.829c-1.258 4.89-5.511 11.004-10.35 12.735l-25.672-.011c-1.743-.001-3.58-.378-5.225-.941-1.62-.552-6.553-2.903-6.581-5.004-.331-24.243-.418-48.5-.486-72.744-.09-31.648-.09-63.296-.041-94.945.07-46.357.219-92.722.584-139.078a65.825 65.825 0 0 0-.49-8.49c-2.151-17.625-12.706-39.578-33.195-39.597l-23.401-.02c-16.55-.014-30.874 13.857-37.09 28.252-2.484 5.756-3.915 11.986-3.914 18.267l.108 589.693c.003 18.18-4.667 35.458-16.843 49.28-3.474 3.943-7.307 7.299-11.518 10.425-1.354 1.003-2.757 1.969-4.083 3.006-2.4 1.877-4.248 4.325-3.264 7.635 1.322 4.443 5.729 4.639 9.468 4.55 4.146-.097 8.339-.394 12.484-.61 19.335-1.007 38.645-1.408 58.007-1.408h156.672l7.369.008c9.044.009 17.933-1.491 26.512-4.331 21.109-6.987 39.15-21.598 53.737-38.046 12.913-14.56 23.933-31.38 32.855-48.657 3.745-7.254 7.185-14.713 10.167-22.313 2.23-5.69 4.327-11.676 5.73-17.63 3.125-13.252 6.358-26.773 8.002-40.303 1.255-10.328 1.676-20.85 2.189-31.238.277-5.618.452-11.242.544-16.866.29-17.69-.188-35.48-1.314-53.136-.455-7.13-1.018-14.262-1.758-21.37-.53-5.084-1.128-10.24-2.01-15.277-1.234-7.051-2.343-14.123-3.566-21.176-1.796-10.356-3.8-21.215-7.086-31.204-2.465-7.491-6.547-17.208-14.125-20.786-14.194-6.703-25.931-7.277-38.395 3.382-4.511 3.856-7.271 10.8-8.656 16.423-2.05 8.319-2.125 17.24-.582 25.65 3.072 16.736 6.657 33.488 8.9 50.354 2.116 15.913 2.772 31.385 1.63 47.413-1.018 14.287-1.674 28.585-2.645 42.869-.681 10.03-1.574 20.104-3.666 29.952-1.803 8.493-4.48 16.542-7.876 24.527-4.105 9.656-12.54 22.893-21.204 29.77m-122.496 313.365c48.798 0 88.359-39.562 88.359-88.36s-39.561-88.36-88.36-88.36c-48.797 0-88.358 39.562-88.358 88.36s39.56 88.36 88.359 88.36" fill="#ffffff" fill-rule="evenodd"/>
    <path d="M3175.623 1511.188l.019-550.537c0-6.975-1.782-13.91-4.777-20.189-6.48-13.582-20.134-26.446-36.01-26.363l-23.212.121c-19.992-.353-22.473 32.102-23.071 46.13l-12.871 301.829c-1.258 4.89-5.511 11.004-10.35 12.735l-25.672-.011c-1.743-.001-3.58-.378-5.225-.941-1.62-.552-6.553-2.903-6.581-5.004-.331-24.243-.418-48.5-.486-72.744-.09-31.648-.09-63.296-.041-94.945.07-46.357.219-92.722.584-139.078a65.825 65.825 0 0 0-.49-8.49c-2.151-17.625-12.706-39.578-33.195-39.597l-23.401-.02c-16.55-.014-30.874 13.857-37.09 28.252-2.484 5.756-3.915 11.986-3.914 18.267l.108 589.693c.003 18.18-4.667 35.458-16.843 49.28-3.474 3.943-7.307 7.299-11.518 10.425-1.354 1.003-2.757 1.969-4.083 3.006-2.4 1.877-4.248 4.325-3.264 7.635 1.322 4.443 5.729 4.639 9.468 4.55 4.146-.097 8.339-.394 12.484-.61 19.335-1.007 38.645-1.408 58.007-1.408h156.672l7.369.008c9.044.009 17.933-1.491 26.512-4.331 21.109-6.987 39.15-21.598 53.737-38.046 12.913-14.56 23.933-31.38 32.855-48.657 3.745-7.254 7.185-14.713 10.167-22.313 2.23-5.69 4.327-11.676 5.73-17.63 3.125-13.252 6.358-26.773 8.002-40.303 1.255-10.328 1.676-20.85 2.189-31.238.277-5.618.452-11.242.544-16.866.29-17.69-.188-35.48-1.314-53.136-.455-7.13-1.018-14.262-1.758-21.37-.53-5.084-1.128-10.24-2.01-15.277-1.234-7.051-2.343-14.123-3.566-21.176-1.796-10.356-3.8-21.215-7.086-31.204-2.465-7.491-6.547-17.208-14.125-20.786-14.194-6.703-25.931-7.277-38.395 3.382-4.511 3.856-7.271 10.8-8.656 16.423-2.05 8.319-2.125 17.24-.582 25.65 3.072 16.736 6.657 33.488 8.9 50.354 2.116 15.913 2.772 31.385 1.63 47.413-1.018 14.287-1.674 28.585-2.645 42.869-.681 10.03-1.574 20.104-3.666 29.952-1.803 8.493-4.48 16.542-7.876 24.527-4.105 9.656-12.54 22.893-21.204 29.77zm-122.496 313.365c48.798 0 88.359-39.562 88.359-88.36 0-48.797-39.561-88.36-88.36-88.36-48.797 0-88.358 39.563-88.358 88.36 0 48.799 39.56 88.36 88.359 88.36z" fill="none" stroke="#fff" stroke-width="28.346" stroke-miterlimit="22.926"/>
    <path d="M2974.199 1617.505h156.678l7.369.008c69.489.07 115.998-94.885 123.477-126.61 8.203-34.787 8.552-40.241 10.046-70.52 2.069-41.93-1.486-88.411-4.459-105.391-4.668-26.67-8.981-63.051-21.614-69.017-12.12-5.724-21.557-6.614-32.29 2.564-5.218 4.462-10.562 19.212-7.346 36.74 6.616 36.054 13.229 62.434 10.609 99.195-3.59 50.373-1.847 69.117-14.624 99.164-6.297 14.804-17.053 28.058-24.992 33.537-2.391 1.649-7.1 1.627-7.1-3.344l.019-553.18c0-20.196-17.354-40.974-35.086-40.882l-23.286.122c-12.277-.274-16.476 19.874-17.364 40.7l-12.894 302.373c-1.852 8.314-8.655 15.848-15.133 17.62l-26.533-.012c-7.604-.014-17.383-5.03-17.472-11.538-.878-64.28-.612-221.631.057-306.887.159-20.292-10.332-42.36-28.021-42.373l-23.402-.021c-17.567-.016-35.332 20.295-35.328 40.849l.107 589.692c.012 87.489-102.488 67.21 38.582 67.21m78.928 201.38c45.669 0 82.69-37.022 82.69-82.691 0-45.668-37.021-82.69-82.69-82.69s-82.691 37.022-82.691 82.69c0 45.669 37.022 82.69 82.691 82.69" fill="#ffffff" fill-rule="evenodd"/>
    <path d="M2974.199 1617.505h156.678l7.369.008c69.489.07 115.998-94.885 123.477-126.61 8.203-34.787 8.552-40.241 10.046-70.52 2.069-41.93-1.486-88.411-4.459-105.391-4.668-26.67-8.981-63.051-21.614-69.017-12.12-5.724-21.557-6.614-32.29 2.564-5.218 4.462-10.562 19.212-7.346 36.74 6.616 36.054 13.229 62.434 10.609 99.195-3.59 50.373-1.847 69.117-14.624 99.164-6.297 14.804-17.053 28.058-24.992 33.537-2.391 1.649-7.1 1.627-7.1-3.344l.019-553.18c0-20.196-17.354-40.974-35.086-40.882l-23.286.122c-12.277-.274-16.476 19.874-17.364 40.7l-12.894 302.373c-1.852 8.314-8.655 15.848-15.133 17.62l-26.533-.012c-7.604-.014-17.383-5.03-17.472-11.538-.878-64.28-.612-221.631.057-306.887.159-20.292-10.332-42.36-28.021-42.373l-23.402-.021c-17.567-.016-35.332 20.295-35.328 40.849l.107 589.692c.012 87.489-102.488 67.21 38.582 67.21zm78.928 201.379c45.669 0 82.69-37.022 82.69-82.691 0-45.668-37.021-82.69-82.69-82.69s-82.691 37.022-82.691 82.69c0 45.669 37.022 82.69 82.691 82.69z" fill="none" stroke="#000000" stroke-width="28.346" stroke-miterlimit="22.926"/>
    <path d="M3027.828 1513.95l.113-610.353c0-6.952-1.601-13.845-4.376-20.204-6.842-15.688-22.516-30.838-40.582-30.822l-26.02.023c-15.888.014-29.877 12.177-37.45 25.29-4.486 7.765-7.34 16.767-7.304 25.785.466 114.13-.175 228.266-.037 342.396.004 2.916-2.54 7.134-5.727 7.136l-29.502.013c-1.25.001-2.637-1.105-3.418-1.987-1.258-1.42-2.09-3.334-2.088-5.246l.029-342.395c0-8.516-2.522-16.99-6.575-24.438-7.48-13.743-21.966-26.646-38.444-26.425l-25.835-.134c-17.343-.09-32.288 13.982-39.406 28.798-3.323 6.916-5.306 14.57-5.306 22.264l.022 612.55c-10.123-7.51-20.033-22.897-24.797-34.082-3.793-8.905-6.781-17.882-8.796-27.355-2.331-10.963-3.327-22.175-4.087-33.34-1.078-15.859-1.808-31.732-2.94-47.593-1.273-17.835-.542-35.05 1.815-52.758 2.495-18.742 6.484-37.354 9.902-55.95 1.7-9.25 1.62-19.07-.64-28.222-1.506-6.105-4.52-13.722-9.423-17.909-13.664-11.669-26.452-10.997-42.002-3.664-8.231 3.882-12.698 14.581-15.376 22.708-3.645 11.06-5.865 23.09-7.857 34.558-1.36 7.832-2.594 15.685-3.967 23.515-.978 5.58-1.642 11.288-2.23 16.921-.82 7.883-1.446 15.794-1.951 23.702-1.251 19.587-1.782 39.326-1.46 58.95a569.03 569.03 0 0 0 .606 18.705c.569 11.52 1.036 23.188 2.429 34.64 1.825 15 5.416 29.992 8.885 44.684 1.556 6.591 3.883 13.22 6.357 19.517 3.313 8.433 7.137 16.708 11.299 24.753 9.916 19.164 22.166 37.822 36.52 53.957 22.906 25.751 52.948 46.752 88.642 46.717l8.189-.009h174.212c29.914 0 59.83-10.462 83.014-29.409 23.56-19.254 23.896-69.277 22.725-96.37-.255-5.925-3.68-15.603-5.924-21.093-3.081-7.535-9.948-22.6-20.261-20.423-8.93 1.885-16.53 15.768-20.587 23.173-2.31 4.214-4.486 8.492-6.717 12.746-1.084 2.066-2.332 4.571-3.674 6.68m-135.946 349.563c53.837 0 97.483-43.647 97.483-97.483 0-53.837-43.646-97.483-97.483-97.483s-97.484 43.646-97.484 97.483c0 53.836 43.647 97.483 97.484 97.483" fill="#ffffff" fill-rule="evenodd"/>
    <path d="M3027.828 1513.95l.113-610.353c0-6.952-1.601-13.845-4.376-20.204-6.842-15.688-22.516-30.838-40.582-30.822l-26.02.023c-15.888.014-29.877 12.177-37.45 25.29-4.486 7.765-7.34 16.767-7.304 25.785.466 114.13-.175 228.266-.037 342.396.004 2.916-2.54 7.134-5.727 7.136l-29.502.013c-1.25.001-2.637-1.105-3.418-1.987-1.258-1.42-2.09-3.334-2.088-5.246l.029-342.395c0-8.516-2.522-16.99-6.575-24.438-7.48-13.743-21.966-26.646-38.444-26.425l-25.835-.134c-17.343-.09-32.288 13.982-39.406 28.798-3.323 6.916-5.306 14.57-5.306 22.264l.022 612.55c-10.123-7.51-20.033-22.897-24.797-34.082-3.793-8.905-6.781-17.882-8.796-27.355-2.331-10.963-3.327-22.175-4.087-33.34-1.078-15.859-1.808-31.732-2.94-47.593-1.273-17.835-.542-35.05 1.815-52.758 2.495-18.742 6.484-37.354 9.902-55.95 1.7-9.25 1.62-19.07-.64-28.222-1.506-6.105-4.52-13.722-9.423-17.909-13.664-11.669-26.452-10.997-42.002-3.664-8.231 3.882-12.698 14.581-15.376 22.708-3.645 11.06-5.865 23.09-7.857 34.558-1.36 7.832-2.594 15.685-3.967 23.515-.978 5.58-1.642 11.288-2.23 16.921-.82 7.883-1.446 15.794-1.951 23.702-1.251 19.587-1.782 39.326-1.46 58.95a569.03 569.03 0 0 0 .606 18.705c.569 11.52 1.036 23.188 2.429 34.64 1.825 15 5.416 29.992 8.885 44.684 1.556 6.591 3.883 13.22 6.357 19.517 3.313 8.433 7.137 16.708 11.299 24.753 9.916 19.164 22.166 37.822 36.52 53.957 22.906 25.751 52.948 46.752 88.642 46.717l8.189-.009h174.212c29.914 0 59.83-10.462 83.014-29.409 23.56-19.254 23.896-69.277 22.725-96.37-.255-5.925-3.68-15.603-5.924-21.093-3.081-7.535-9.948-22.6-20.261-20.423-8.93 1.885-16.53 15.768-20.587 23.173-2.31 4.214-4.486 8.492-6.717 12.746-1.084 2.066-2.332 4.571-3.674 6.68zm-135.946 349.563c53.837 0 97.483-43.647 97.483-97.483 0-53.837-43.646-97.483-97.483-97.483s-97.484 43.646-97.484 97.483c0 53.836 43.647 97.483 97.484 97.483z" fill="none" stroke="#fff" stroke-width="28.346" stroke-miterlimit="22.926"/>
    <path d="M2979.252 1632.977H2805.04l-8.193.008c-77.266.08-128.98-105.352-137.296-140.576-9.12-38.626-9.51-44.683-11.17-78.3-2.3-46.558 1.652-98.168 4.958-117.02 5.19-29.612 9.986-70.01 24.032-76.632 13.478-6.357 23.97-7.345 35.904 2.845 5.802 4.956 11.745 21.333 8.168 40.796-7.356 40.03-14.71 69.32-11.795 110.138 3.99 55.93 2.053 76.742 16.26 110.104 7 16.44 18.96 31.156 27.789 37.239 2.659 1.832 7.894 1.805 7.894-3.713l-.021-614.214c-.001-22.425 19.296-45.495 39.013-45.393l25.89.135c19.649-.304 39.326 23.055 39.323 45.19l-.028 342.398c.004 6.808 5.642 12.9 11.177 12.902l29.502-.013c5.93-.016 11.403-6.16 11.394-12.812-.086-71.357.425-247.301.038-342.413-.09-21.81 19.42-45.365 39.09-45.382l26.019-.023c19.533-.017 39.287 22.535 39.284 45.356l-.113 612.125c-.001 3.942 4.98 8.807 9.243 3.042 5.793-7.834 18.403-39.718 28.575-41.865 8.83-1.864 19.043 29.075 19.35 36.213 2.43 56.275-8.258 81.61-20.647 91.736-30.943 25.286-65.028 28.13-79.428 28.13m-87.37 224.867c50.708 0 91.814-41.107 91.814-91.814 0-50.708-41.106-91.815-91.814-91.815-50.708 0-91.815 41.107-91.815 91.815 0 50.707 41.107 91.814 91.815 91.814" fill="#ffffff" fill-rule="evenodd"/>
    <path d="M2979.252 1632.977H2805.04l-8.193.008c-77.266.08-128.98-105.352-137.296-140.576-9.12-38.626-9.51-44.683-11.17-78.3-2.3-46.558 1.652-98.168 4.958-117.02 5.19-29.612 9.986-70.01 24.032-76.632 13.478-6.357 23.97-7.345 35.904 2.845 5.802 4.956 11.745 21.333 8.168 40.796-7.356 40.03-14.71 69.32-11.795 110.138 3.99 55.93 2.053 76.742 16.26 110.104 7 16.44 18.96 31.156 27.789 37.239 2.659 1.832 7.894 1.805 7.894-3.713l-.021-614.214c-.001-22.425 19.296-45.495 39.013-45.393l25.89.135c19.649-.304 39.326 23.055 39.323 45.19l-.028 342.398c.004 6.808 5.642 12.9 11.177 12.902l29.502-.013c5.93-.016 11.403-6.16 11.394-12.812-.086-71.357.425-247.301.038-342.413-.09-21.81 19.42-45.365 39.09-45.382l26.019-.023c19.533-.017 39.287 22.535 39.284 45.356l-.113 612.125c-.001 3.942 4.98 8.807 9.243 3.042 5.793-7.834 18.403-39.718 28.575-41.865 8.83-1.864 19.043 29.075 19.35 36.213 2.43 56.275-8.258 81.61-20.647 91.736-30.943 25.286-65.028 28.13-79.428 28.13zm-87.37 224.867c50.708 0 91.814-41.107 91.814-91.814 0-50.708-41.106-91.815-91.814-91.815-50.708 0-91.815 41.107-91.815 91.815 0 50.707 41.107 91.814 91.815 91.814z" fill="none" stroke="#000000" stroke-width="28.346" stroke-miterlimit="22.926"/>
    <path d="M3557.783 1541.884l.021-630.924c0-7.85-2.009-15.66-5.379-22.724-7.267-15.234-22.604-29.77-40.425-29.676l-26.557.138c-1.56-.022-3.12.096-4.66.352-9.303 1.542-16.975 7.83-22.43 15.246-5.883 7.998-9.711 17.899-11.164 27.696a60.82 60.82 0 0 0-.666 8.9l.012 351.347c-2.187 4.59-7.996 8.756-13.006 8.754l-30.443-.013-.115.005c-3.006.12-6.101-.075-9.076-.51-3.201-.466-6.75-1.278-9.68-2.678-.949-.452-3.156-1.671-3.522-2.765a.81.81 0 0 1-.041-.234c-.793-27.746-.975-55.574-1.123-83.332-.192-36.282-.174-72.568-.062-108.851.163-53.362.512-106.735 1.149-160.093.185-15.518-.967-39.422-14.745-49.431-4.311-3.133-9.306-4.521-14.604-4.526l-26.75-.024c-18.578-.016-34.674 15.655-41.647 31.802-2.797 6.479-4.411 13.49-4.41 20.562l.124 674.053c.004 20.983-5.405 40.918-19.455 56.866-4.009 4.55-8.432 8.425-13.291 12.032-1.542 1.143-3.141 2.244-4.651 3.424-2.471 1.934-4.474 4.423-3.453 7.857 1.379 4.638 6.149 4.714 10.027 4.622 4.731-.11 9.516-.45 14.247-.697 22.115-1.152 44.201-1.61 66.347-1.61h179.086l8.424.008c10.249.01 20.324-1.69 30.048-4.91 23.989-7.94 44.497-24.566 61.074-43.256 14.715-16.592 27.274-35.763 37.441-55.452 4.267-8.267 8.189-16.767 11.585-25.43 2.538-6.466 4.922-13.273 6.518-20.04 3.565-15.12 7.254-30.546 9.13-45.982 1.432-11.785 1.911-23.794 2.496-35.65.316-6.412.517-12.831.621-19.252.332-20.198-.214-40.512-1.499-60.671-.519-8.14-1.163-16.282-2.007-24.394-.602-5.795-1.284-11.668-2.29-17.407-1.41-8.06-2.678-16.145-4.076-24.207-2.047-11.797-4.327-24.175-8.071-35.554-2.735-8.31-7.307-19.306-15.722-23.28-15.934-7.524-29.017-8.22-43.015 3.75-5.013 4.287-8.094 12.104-9.633 18.349-2.317 9.398-2.399 19.482-.655 28.98 3.513 19.143 7.614 38.305 10.179 57.599 2.426 18.243 3.178 35.982 1.868 54.358-1.164 16.33-1.914 32.674-3.022 49-.782 11.504-1.808 23.055-4.206 34.35-2.074 9.76-5.149 19.009-9.051 28.185-4.946 11.63-15.277 27.662-25.795 35.338m-139.209 355.757c55.331 0 100.189-44.86 100.189-100.19 0-55.332-44.859-100.19-100.189-100.19-55.331 0-100.189 44.858-100.189 100.19 0 55.33 44.857 100.19 100.189 100.19" fill="#ffffff" fill-rule="evenodd"/>
    <path d="M3557.783 1541.884l.021-630.924c0-7.85-2.009-15.66-5.379-22.724-7.267-15.234-22.604-29.77-40.425-29.676l-26.557.138c-1.56-.022-3.12.096-4.66.352-9.303 1.542-16.975 7.83-22.43 15.246-5.883 7.998-9.711 17.899-11.164 27.696a60.82 60.82 0 0 0-.666 8.9l.012 351.347c-2.187 4.59-7.996 8.756-13.006 8.754l-30.443-.013-.115.005c-3.006.12-6.101-.075-9.076-.51-3.201-.466-6.75-1.278-9.68-2.678-.949-.452-3.156-1.671-3.522-2.765a.81.81 0 0 1-.041-.234c-.793-27.746-.975-55.574-1.123-83.332-.192-36.282-.174-72.568-.062-108.851.163-53.362.512-106.735 1.149-160.093.185-15.518-.967-39.422-14.745-49.431-4.311-3.133-9.306-4.521-14.604-4.526l-26.75-.024c-18.578-.016-34.674 15.655-41.647 31.802-2.797 6.479-4.411 13.49-4.41 20.562l.124 674.053c.004 20.983-5.405 40.918-19.455 56.866-4.009 4.55-8.432 8.425-13.291 12.032-1.542 1.143-3.141 2.244-4.651 3.424-2.471 1.934-4.474 4.423-3.453 7.857 1.379 4.638 6.149 4.714 10.027 4.622 4.731-.11 9.516-.45 14.247-.697 22.115-1.152 44.201-1.61 66.347-1.61h179.086l8.424.008c10.249.01 20.324-1.69 30.048-4.91 23.989-7.94 44.497-24.566 61.074-43.256 14.715-16.592 27.274-35.763 37.441-55.452 4.267-8.267 8.189-16.767 11.585-25.43 2.538-6.466 4.922-13.273 6.518-20.04 3.565-15.12 7.254-30.546 9.13-45.982 1.432-11.785 1.911-23.794 2.496-35.65.316-6.412.517-12.831.621-19.252.332-20.198-.214-40.512-1.499-60.671-.519-8.14-1.163-16.282-2.007-24.394-.602-5.795-1.284-11.668-2.29-17.407-1.41-8.06-2.678-16.145-4.076-24.207-2.047-11.797-4.327-24.175-8.071-35.554-2.735-8.31-7.307-19.306-15.722-23.28-15.934-7.524-29.017-8.22-43.015 3.75-5.013 4.287-8.094 12.104-9.633 18.349-2.317 9.398-2.399 19.482-.655 28.98 3.513 19.143 7.614 38.305 10.179 57.599 2.426 18.243 3.178 35.982 1.868 54.358-1.164 16.33-1.914 32.674-3.022 49-.782 11.504-1.808 23.055-4.206 34.35-2.074 9.76-5.149 19.009-9.051 28.185-4.946 11.63-15.277 27.662-25.795 35.338zm-139.209 355.757c55.331 0 100.189-44.86 100.189-100.19 0-55.332-44.859-100.19-100.189-100.19-55.331 0-100.189 44.858-100.189 100.19 0 55.33 44.857 100.19 100.189 100.19z" fill="none" stroke="#fff" stroke-width="28.346" stroke-miterlimit="22.926"/>
    <path d="M3328.355 1661.782h179.092l8.424.01c79.428.08 132.591-108.459 141.141-144.722 9.375-39.764 9.775-45.999 11.483-80.608 2.364-47.929-1.7-101.06-5.097-120.469-5.336-30.484-10.267-72.072-24.706-78.892-13.855-6.542-24.642-7.559-36.909 2.932-5.965 5.101-12.074 21.961-8.397 41.997 7.562 41.21 15.12 71.364 12.126 113.384-4.104 57.58-2.112 79.005-16.718 113.35-7.196 16.923-19.49 32.074-28.566 38.336-2.732 1.885-8.115 1.86-8.115-3.823l.021-632.317c.001-23.086-19.836-46.837-40.105-46.73l-26.616.138c-18.045-.314-33.22 23.557-33.22 46.524l.012 352.488c-2.62 7.008-10.866 13.281-18.678 13.282l-30.329-.013c-11.28.454-27.968-3.105-28.213-11.689-2.109-73.828-1.202-254.924-.038-352.506.281-23.624-3.465-48.202-23.686-48.22l-26.749-.024c-20.079-.018-40.387 23.2-40.383 46.693l.123 674.054c.014 100.006-117.15 76.825 44.103 76.825m90.22 230.19c52.2 0 94.518-42.319 94.518-94.522 0-52.2-42.318-94.52-94.519-94.52-52.202 0-94.52 42.32-94.52 94.52 0 52.203 42.318 94.521 94.52 94.521" fill="#ffffff" fill-rule="evenodd"/>
    <path d="M3328.355 1661.782h179.092l8.424.01c79.428.08 132.591-108.459 141.141-144.722 9.375-39.764 9.775-45.999 11.483-80.608 2.364-47.929-1.7-101.06-5.097-120.469-5.336-30.484-10.267-72.072-24.706-78.892-13.855-6.542-24.642-7.559-36.909 2.932-5.965 5.101-12.074 21.961-8.397 41.997 7.562 41.21 15.12 71.364 12.126 113.384-4.104 57.58-2.112 79.005-16.718 113.35-7.196 16.923-19.49 32.074-28.566 38.336-2.732 1.885-8.115 1.86-8.115-3.823l.021-632.317c.001-23.086-19.836-46.837-40.105-46.73l-26.616.138c-18.045-.314-33.22 23.557-33.22 46.524l.012 352.488c-2.62 7.008-10.866 13.281-18.678 13.282l-30.329-.013c-11.28.454-27.968-3.105-28.213-11.689-2.109-73.828-1.202-254.924-.038-352.506.281-23.624-3.465-48.202-23.686-48.22l-26.749-.024c-20.079-.018-40.387 23.2-40.383 46.693l.123 674.054c.014 100.006-117.15 76.825 44.103 76.825zm90.22 230.19c52.2 0 94.518-42.319 94.518-94.522 0-52.2-42.318-94.52-94.519-94.52-52.202 0-94.52 42.32-94.52 94.52 0 52.203 42.318 94.521 94.52 94.521z" fill="none" stroke="#000000" stroke-width="28.346" stroke-miterlimit="22.926"/>
    <path d="M3392.287 1548.995c-.132-.223-.232-.47-.237-.626l.132-716.573c0-8.006-1.848-15.944-5.041-23.265-7.852-18.002-25.871-35.519-46.62-35.5l-30.46.026c-18.24.015-34.318 14.082-43.004 29.121-5.165 8.941-8.462 19.313-8.42 29.696.545 133.605-.204 267.22-.043 400.824.005 3.953-3.375 9.32-7.671 9.321l-34.536.015c-1.771.002-3.61-1.39-4.726-2.65-1.63-1.84-2.688-4.308-2.687-6.784l.033-400.818c0-9.807-2.911-19.57-7.58-28.145-8.577-15.764-25.231-30.688-44.15-30.428l-30.251-.158c-19.915-.104-37.087 16.167-45.253 33.163-3.827 7.965-6.115 16.781-6.115 25.645l.024 718.86a1.58 1.58 0 0 1-.354-.164c-11.71-8.068-23.354-25.514-29.235-38.229-.447-.966-.88-1.937-1.296-2.916-4.464-10.483-7.983-21.05-10.353-32.2-2.738-12.88-3.911-26.048-4.803-39.166-1.262-18.563-2.117-37.143-3.442-55.709-1.494-20.944-.637-41.164 2.13-61.956 2.925-21.957 7.597-43.76 11.6-65.546 1.965-10.693 1.876-22.05-.736-32.63-1.71-6.93-5.15-15.705-10.72-20.462-15.694-13.4-30.276-12.568-48.13-4.149-9.338 4.403-14.458 16.8-17.493 26.01-4.25 12.9-6.84 26.942-9.163 40.317-1.591 9.17-3.037 18.363-4.643 27.53-1.142 6.51-1.915 13.17-2.6 19.741-.96 9.215-1.692 18.463-2.282 27.708-1.463 22.904-2.084 45.984-1.706 68.931.12 7.291.347 14.582.706 21.865.665 13.461 1.21 27.1 2.838 40.481 2.133 17.523 6.33 35.042 10.383 52.204 1.81 7.67 4.52 15.387 7.4 22.716 3.866 9.84 8.329 19.497 13.187 28.885 11.57 22.363 25.865 44.137 42.613 62.965 26.623 29.93 61.55 54.405 103.045 54.364l9.587-.009h203.937c34.795 0 69.6-12.17 96.568-34.209 27.257-22.276 27.6-80.71 26.248-112.025-.144-3.323-1.197-7.337-2.097-10.538a128.964 128.964 0 0 0-4.768-13.828c-3.382-8.27-11.228-25.733-22.623-23.328-10.038 2.12-18.89 18.32-23.452 26.646-2.7 4.927-5.244 9.93-7.853 14.905-1.603 3.051-3.492 6.875-5.533 9.635a6.433 6.433 0 0 1-.355.437m-158.413 405.541c62.489 0 113.15-50.662 113.15-113.15 0-62.49-50.661-113.15-113.15-113.15-62.49 0-113.15 50.66-113.15 113.15 0 62.488 50.66 113.15 113.15 113.15" fill="#ffffff" fill-rule="evenodd"/>
    <path d="M3392.287 1548.995c-.132-.223-.232-.47-.237-.626l.132-716.573c0-8.006-1.848-15.944-5.041-23.265-7.852-18.002-25.871-35.519-46.62-35.5l-30.46.026c-18.24.015-34.318 14.082-43.004 29.121-5.165 8.941-8.462 19.313-8.42 29.696.545 133.605-.204 267.22-.043 400.824.005 3.953-3.375 9.32-7.671 9.321l-34.536.015c-1.771.002-3.61-1.39-4.726-2.65-1.63-1.84-2.688-4.308-2.687-6.784l.033-400.818c0-9.807-2.911-19.57-7.58-28.145-8.577-15.764-25.231-30.688-44.15-30.428l-30.251-.158c-19.915-.104-37.087 16.167-45.253 33.163-3.827 7.965-6.115 16.781-6.115 25.645l.024 718.86a1.58 1.58 0 0 1-.354-.164c-11.71-8.068-23.354-25.514-29.235-38.229-.447-.966-.88-1.937-1.296-2.916-4.464-10.483-7.983-21.05-10.353-32.2-2.738-12.88-3.911-26.048-4.803-39.166-1.262-18.563-2.117-37.143-3.442-55.709-1.494-20.944-.637-41.164 2.13-61.956 2.925-21.957 7.597-43.76 11.6-65.546 1.965-10.693 1.876-22.05-.736-32.63-1.71-6.93-5.15-15.705-10.72-20.462-15.694-13.4-30.276-12.568-48.13-4.149-9.338 4.403-14.458 16.8-17.493 26.01-4.25 12.9-6.84 26.942-9.163 40.317-1.591 9.17-3.037 18.363-4.643 27.53-1.142 6.51-1.915 13.17-2.6 19.741-.96 9.215-1.692 18.463-2.282 27.708-1.463 22.904-2.084 45.984-1.706 68.931.12 7.291.347 14.582.706 21.865.665 13.461 1.21 27.1 2.838 40.481 2.133 17.523 6.33 35.042 10.383 52.204 1.81 7.67 4.52 15.387 7.4 22.716 3.866 9.84 8.329 19.497 13.187 28.885 11.57 22.363 25.865 44.137 42.613 62.965 26.623 29.93 61.55 54.405 103.045 54.364l9.587-.009h203.937c34.795 0 69.6-12.17 96.568-34.209 27.257-22.276 27.6-80.71 26.248-112.025-.144-3.323-1.197-7.337-2.097-10.538a128.964 128.964 0 0 0-4.768-13.828c-3.382-8.27-11.228-25.733-22.623-23.328-10.038 2.12-18.89 18.32-23.452 26.646-2.7 4.927-5.244 9.93-7.853 14.905-1.603 3.051-3.492 6.875-5.533 9.635a6.433 6.433 0 0 1-.355.437zm-158.413 405.541c62.489 0 113.15-50.662 113.15-113.15 0-62.49-50.661-113.15-113.15-113.15-62.49 0-113.15 50.66-113.15 113.15 0 62.488 50.66 113.15 113.15 113.15z" fill="none" stroke="#fff" stroke-width="28.346" stroke-miterlimit="22.926"/>
    <path d="M3336.152 1685.63H3132.215l-9.592.01c-90.45.093-150.988-123.33-160.723-164.564-10.676-45.216-11.13-52.305-13.076-91.661-2.693-54.501 1.935-114.918 5.804-136.987 6.077-34.665 11.691-81.954 28.133-89.708 15.777-7.44 28.06-8.597 42.03 3.333 6.793 5.8 13.75 24.972 9.562 47.756-8.61 46.86-17.219 81.149-13.808 128.929 4.672 65.476 2.404 89.838 19.036 128.893 8.195 19.244 22.195 36.472 32.53 43.593 3.111 2.143 9.24 2.113 9.24-4.348l-.024-719.017c0-26.251 22.59-53.258 45.67-53.138l30.307.158c23.002-.356 46.036 26.989 46.034 52.902l-.034 400.819c.004 7.97 6.605 15.103 13.085 15.104l34.536-.015c6.942-.018 13.347-7.21 13.338-14.997-.1-83.535.497-289.5.043-400.84-.103-25.531 22.734-53.106 45.76-53.126l30.46-.027c22.865-.02 45.991 26.38 45.986 53.095l-.13 716.574c-.002 4.614 5.828 10.309 10.82 3.56 6.781-9.171 21.542-46.494 33.45-49.008 10.336-2.183 22.291 34.036 22.651 42.39 2.845 65.879-9.667 95.538-24.17 107.39-36.222 29.602-76.123 32.93-92.98 32.93m-102.279 263.236c59.36 0 107.48-48.12 107.48-107.48 0-59.36-48.12-107.481-107.48-107.481-59.36 0-107.48 48.12-107.48 107.48 0 59.36 48.12 107.48 107.48 107.48" fill="#ffffff" fill-rule="evenodd"/>
    <path d="M3336.152 1685.63H3132.215l-9.592.01c-90.45.093-150.988-123.33-160.723-164.564-10.676-45.216-11.13-52.305-13.076-91.661-2.693-54.501 1.935-114.918 5.804-136.987 6.077-34.665 11.691-81.954 28.133-89.708 15.777-7.44 28.06-8.597 42.03 3.333 6.793 5.8 13.75 24.972 9.562 47.756-8.61 46.86-17.219 81.149-13.808 128.929 4.672 65.476 2.404 89.838 19.036 128.893 8.195 19.244 22.195 36.472 32.53 43.593 3.111 2.143 9.24 2.113 9.24-4.348l-.024-719.017c0-26.251 22.59-53.258 45.67-53.138l30.307.158c23.002-.356 46.036 26.989 46.034 52.902l-.034 400.819c.004 7.97 6.605 15.103 13.085 15.104l34.536-.015c6.942-.018 13.347-7.21 13.338-14.997-.1-83.535.497-289.5.043-400.84-.103-25.531 22.734-53.106 45.76-53.126l30.46-.027c22.865-.02 45.991 26.38 45.986 53.095l-.13 716.574c-.002 4.614 5.828 10.309 10.82 3.56 6.781-9.171 21.542-46.494 33.45-49.008 10.336-2.183 22.291 34.036 22.651 42.39 2.845 65.879-9.667 95.538-24.17 107.39-36.222 29.602-76.123 32.93-92.98 32.93zm-102.278 263.236c59.36 0 107.48-48.12 107.48-107.48 0-59.36-48.12-107.481-107.48-107.481-59.36 0-107.48 48.12-107.48 107.48 0 59.36 48.12 107.48 107.48 107.48z" fill="none" stroke="#000000" stroke-width="28.346" stroke-miterlimit="22.926"/>
    <path d="M3812.645 1585.605c-.548-.33-1.112-1.466-1.112-2.02l.152-832.12c.002-9.169-2.119-18.262-5.777-26.649-8.968-20.56-29.58-40.698-53.298-40.677l-35.37.03c-20.84.02-39.233 16.19-49.15 33.361-5.916 10.242-9.703 22.13-9.655 34.024.633 155.15-.237 310.31-.05 465.458.006 5.102-4.305 11.738-9.822 11.74l-40.105.018c-2.34.001-4.687-1.71-6.172-3.387-2.04-2.304-3.35-5.384-3.35-8.483l.038-465.449c0-11.235-3.344-22.425-8.689-32.247-9.795-17.998-28.845-35.159-50.462-34.857l-35.14-.183c-22.758-.12-42.397 18.585-51.722 37.992-4.383 9.125-7.01 19.23-7.01 29.384l.028 834.958c0 .187-.016.585-.077.858-.537.06-1.415-.236-1.768-.48-6.462-4.452-12.666-11.319-17.489-17.46-6.557-8.348-12.314-17.666-16.77-27.3a123.333 123.333 0 0 1-1.516-3.413c-5.207-12.228-9.31-24.555-12.075-37.562-3.19-15-4.557-30.33-5.596-45.607-1.466-21.555-2.458-43.13-3.997-64.69-1.74-24.384-.742-47.926 2.48-72.133 3.397-25.512 8.825-50.845 13.477-76.159 2.258-12.29 2.158-25.346-.843-37.507-1.935-7.842-5.848-17.9-12.155-23.285-17.942-15.32-34.502-14.309-54.906-4.687-10.563 4.98-16.407 19.255-19.836 29.664-4.92 14.934-7.919 31.202-10.609 46.688-1.848 10.648-3.526 21.326-5.392 31.971-1.322 7.537-2.218 15.252-3.01 22.861-1.114 10.69-1.963 21.415-2.648 32.14-1.697 26.573-2.417 53.35-1.979 79.974.14 8.456.402 16.912.82 25.36.771 15.608 1.402 31.426 3.29 46.942 2.471 20.315 7.34 40.627 12.037 60.522 2.094 8.864 5.228 17.785 8.555 26.254 4.48 11.397 9.648 22.582 15.274 33.456 13.4 25.9 29.956 51.124 49.353 72.93 30.734 34.55 71.068 62.876 118.982 62.827l11.132-.012h236.822c40.195 0 80.408-14.06 111.56-39.52 31.347-25.615 31.7-93.36 30.147-129.34-.164-3.781-1.378-8.387-2.403-12.028a148.686 148.686 0 0 0-5.502-15.96c-3.713-9.08-12.656-29.197-25.236-26.541-11.26 2.378-21.502 21.147-26.62 30.488-3.133 5.716-6.085 11.522-9.113 17.293-1.884 3.59-4.097 8.06-6.499 11.307-.213.288-.809 1.016-1.224 1.257m-183.88 468.727c72.061 0 130.481-58.42 130.481-130.481 0-72.061-58.42-130.481-130.48-130.481-72.06 0-130.482 58.42-130.482 130.48 0 72.062 58.421 130.482 130.481 130.482" fill="#ffffff" fill-rule="evenodd"/>
    <path d="M3812.645 1585.605c-.548-.33-1.112-1.466-1.112-2.02l.152-832.12c.002-9.169-2.119-18.262-5.777-26.649-8.968-20.56-29.58-40.698-53.298-40.677l-35.37.03c-20.84.02-39.233 16.19-49.15 33.361-5.916 10.242-9.703 22.13-9.655 34.024.633 155.15-.237 310.31-.05 465.458.006 5.102-4.305 11.738-9.822 11.74l-40.105.018c-2.34.001-4.687-1.71-6.172-3.387-2.04-2.304-3.35-5.384-3.35-8.483l.038-465.449c0-11.235-3.344-22.425-8.689-32.247-9.795-17.998-28.845-35.159-50.462-34.857l-35.14-.183c-22.758-.12-42.397 18.585-51.722 37.992-4.383 9.125-7.01 19.23-7.01 29.384l.028 834.958c0 .187-.016.585-.077.858-.537.06-1.415-.236-1.768-.48-6.462-4.452-12.666-11.319-17.489-17.46-6.557-8.348-12.314-17.666-16.77-27.3a123.333 123.333 0 0 1-1.516-3.413c-5.207-12.228-9.31-24.555-12.075-37.562-3.19-15-4.557-30.33-5.596-45.607-1.466-21.555-2.458-43.13-3.997-64.69-1.74-24.384-.742-47.926 2.48-72.133 3.397-25.512 8.825-50.845 13.477-76.159 2.258-12.29 2.158-25.346-.843-37.507-1.935-7.842-5.848-17.9-12.155-23.285-17.942-15.32-34.502-14.309-54.906-4.687-10.563 4.98-16.407 19.255-19.836 29.664-4.92 14.934-7.919 31.202-10.609 46.688-1.848 10.648-3.526 21.326-5.392 31.971-1.322 7.537-2.218 15.252-3.01 22.861-1.114 10.69-1.963 21.415-2.648 32.14-1.697 26.573-2.417 53.35-1.979 79.974.14 8.456.402 16.912.82 25.36.771 15.608 1.402 31.426 3.29 46.942 2.471 20.315 7.34 40.627 12.037 60.522 2.094 8.864 5.228 17.785 8.555 26.254 4.48 11.397 9.648 22.582 15.274 33.456 13.4 25.9 29.956 51.124 49.353 72.93 30.734 34.55 71.068 62.876 118.982 62.827l11.132-.012h236.822c40.195 0 80.408-14.06 111.56-39.52 31.347-25.615 31.7-93.36 30.147-129.34-.164-3.781-1.378-8.387-2.403-12.028a148.686 148.686 0 0 0-5.502-15.96c-3.713-9.08-12.656-29.197-25.236-26.541-11.26 2.378-21.502 21.147-26.62 30.488-3.133 5.716-6.085 11.522-9.113 17.293-1.884 3.59-4.097 8.06-6.499 11.307-.213.288-.809 1.016-1.224 1.257zm-183.88 468.727c72.061 0 130.481-58.42 130.481-130.48 0-72.062-58.42-130.482-130.48-130.482-72.06 0-130.482 58.42-130.482 130.482 0 72.06 58.421 130.48 130.481 130.48z" fill="none" stroke="#fff" stroke-width="28.346" stroke-miterlimit="22.926"/>
    <path d="M3747.535 1742.98H3510.714l-11.14.012c-105.033.106-175.332-143.216-186.64-191.1-12.395-52.507-12.924-60.74-15.182-106.44-3.127-63.29 2.247-133.45 6.739-159.077 7.058-40.255 13.576-95.17 32.67-104.174 18.32-8.64 32.585-9.983 48.808 3.871 7.887 6.735 15.964 28.998 11.103 55.456-10 54.417-19.996 94.234-16.035 149.72 5.427 76.033 2.792 104.324 22.105 149.676 9.517 22.347 25.775 42.352 37.776 50.621 3.613 2.49 10.73 2.455 10.73-5.048l-.027-834.957c-.002-30.485 26.23-61.847 53.033-61.707l35.195.183c26.71-.413 53.458 31.342 53.456 61.434l-.04 465.45c.006 9.255 7.67 17.538 15.196 17.54l40.105-.019c8.06-.02 15.499-8.372 15.489-17.416-.118-97.003.578-336.178.05-465.474-.121-29.648 26.399-61.669 53.139-61.692l35.37-.03c26.554-.024 53.407 30.633 53.4 61.655l-.151 832.12c-.001 5.357 6.77 11.971 12.565 4.135 7.877-10.65 25.017-53.992 38.845-56.912 12.002-2.534 25.885 39.525 26.305 49.227 3.303 76.501-11.227 110.942-28.07 124.707-42.061 34.373-88.395 38.24-107.973 38.24m-118.77 305.682c68.932 0 124.812-55.88 124.812-124.812 0-68.932-55.88-124.812-124.812-124.812-68.931 0-124.811 55.88-124.811 124.812 0 68.931 55.88 124.812 124.81 124.812" fill="#ffffff" fill-rule="evenodd"/>
    <path d="M3747.535 1742.98H3510.714l-11.14.012c-105.033.106-175.332-143.216-186.64-191.1-12.395-52.507-12.924-60.74-15.182-106.44-3.127-63.29 2.247-133.45 6.739-159.077 7.058-40.255 13.576-95.17 32.67-104.174 18.32-8.64 32.585-9.983 48.808 3.871 7.887 6.735 15.964 28.998 11.103 55.456-10 54.417-19.996 94.234-16.035 149.72 5.427 76.033 2.792 104.324 22.105 149.676 9.517 22.347 25.775 42.352 37.776 50.621 3.613 2.49 10.73 2.455 10.73-5.048l-.027-834.957c-.002-30.485 26.23-61.847 53.033-61.707l35.195.183c26.71-.413 53.458 31.342 53.456 61.434l-.04 465.45c.006 9.255 7.67 17.538 15.196 17.54l40.105-.019c8.06-.02 15.499-8.372 15.489-17.416-.118-97.003.578-336.178.05-465.474-.121-29.648 26.399-61.669 53.139-61.692l35.37-.03c26.554-.024 53.407 30.633 53.4 61.655l-.151 832.12c-.001 5.357 6.77 11.971 12.565 4.135 7.877-10.65 25.017-53.992 38.845-56.912 12.002-2.534 25.885 39.525 26.305 49.227 3.303 76.501-11.227 110.942-28.07 124.707-42.061 34.373-88.395 38.24-107.973 38.24zm-118.77 305.683c68.932 0 124.812-55.88 124.812-124.812 0-68.932-55.88-124.812-124.812-124.812-68.931 0-124.811 55.88-124.811 124.812 0 68.931 55.88 124.812 124.81 124.812z" fill="none" stroke="#000000" stroke-width="28.346" stroke-miterlimit="22.926"/>
    <path d="M4516.451 1604.336c-.087-.294-.107-.794-.107-1.012l.028-856.15c0-10.33-2.653-20.61-7.087-29.904-9.494-19.901-29.594-39.16-52.914-39.038l-35.983.189c-22.144-.311-41.642 17.352-51.624 35.804-5.418 10.018-8.806 21.418-8.805 32.858l.04 477.264c0 3.212-1.354 6.404-3.468 8.797-1.547 1.748-3.98 3.518-6.42 3.517l-41.064-.017c-5.734-.003-10.2-6.882-10.192-12.182.192-159.088-.699-318.186-.052-477.273.05-12.121-3.79-24.237-9.795-34.69-10.112-17.601-28.935-34.241-50.28-34.26l-36.217-.032c-24.325-.021-45.435 20.743-54.547 41.85-3.678 8.519-5.808 17.743-5.806 27.042l.167 912.66c.005 28.907-7.49 56.356-26.843 78.323-5.52 6.268-11.613 11.608-18.306 16.575-2.073 1.538-4.226 3.019-6.256 4.607-2.657 2.078-5.098 4.752-3.989 8.484 1.52 5.11 7.38 4.924 11.605 4.825 6.388-.15 12.85-.61 19.233-.942 29.98-1.562 59.918-2.183 89.938-2.183h242.482l11.406.012c13.663.014 27.09-2.255 40.053-6.545 32.135-10.636 59.623-32.965 81.825-58 19.812-22.34 36.722-48.16 50.41-74.67 5.748-11.13 11.027-22.577 15.602-34.241 3.4-8.666 6.601-17.793 8.738-26.862 4.808-20.395 9.794-41.217 12.324-62.04 1.932-15.908 2.578-32.123 3.368-48.124a794.21 794.21 0 0 0 .84-26.002c.447-27.295-.29-54.747-2.029-81.99-.7-10.993-1.569-21.991-2.709-32.948-.812-7.8-1.728-15.706-3.08-23.431-1.912-10.915-3.629-21.862-5.522-32.78-2.753-15.871-5.819-32.545-10.857-47.853-3.494-10.621-9.46-25.245-20.237-30.334-20.843-9.843-37.759-10.881-56.08 4.787-6.435 5.502-10.427 15.795-12.4 23.8-3.068 12.448-3.169 25.815-.86 38.395 4.761 25.955 10.32 51.929 13.796 78.087 3.303 24.835 4.326 48.99 2.543 74.007-1.576 22.109-2.592 44.234-4.093 66.338-1.065 15.674-2.465 31.4-5.734 46.79-2.833 13.342-7.036 25.988-12.37 38.532a125.144 125.144 0 0 1-1.533 3.456c-4.567 9.899-10.47 19.473-17.197 28.05-4.95 6.314-11.316 13.373-17.952 17.952-.394.273-1.42.614-1.99.502m-186.588 476.784c73.81 0 133.65-59.838 133.65-133.648s-59.84-133.65-133.65-133.65-133.649 59.84-133.649 133.65 59.84 133.648 133.65 133.648" fill="#ffffff" fill-rule="evenodd"/>
    <path d="M4516.451 1604.336c-.087-.294-.107-.794-.107-1.012l.028-856.15c0-10.33-2.653-20.61-7.087-29.904-9.494-19.901-29.594-39.16-52.914-39.038l-35.983.189c-22.144-.311-41.642 17.352-51.624 35.804-5.418 10.018-8.806 21.418-8.805 32.858l.04 477.264c0 3.212-1.354 6.404-3.468 8.797-1.547 1.748-3.98 3.518-6.42 3.517l-41.064-.017c-5.734-.003-10.2-6.882-10.192-12.182.192-159.088-.699-318.186-.052-477.273.05-12.121-3.79-24.237-9.795-34.69-10.112-17.601-28.935-34.241-50.28-34.26l-36.217-.032c-24.325-.021-45.435 20.743-54.547 41.85-3.678 8.519-5.808 17.743-5.806 27.042l.167 912.66c.005 28.907-7.49 56.356-26.843 78.323-5.52 6.268-11.613 11.608-18.306 16.575-2.073 1.538-4.226 3.019-6.256 4.607-2.657 2.078-5.098 4.752-3.989 8.484 1.52 5.11 7.38 4.924 11.605 4.825 6.388-.15 12.85-.61 19.233-.942 29.98-1.562 59.918-2.183 89.938-2.183h242.482l11.406.012c13.663.014 27.09-2.255 40.053-6.545 32.135-10.636 59.623-32.965 81.825-58 19.812-22.34 36.722-48.16 50.41-74.67 5.748-11.13 11.027-22.577 15.602-34.241 3.4-8.666 6.601-17.793 8.738-26.862 4.808-20.395 9.794-41.217 12.324-62.04 1.932-15.908 2.578-32.123 3.368-48.124a794.21 794.21 0 0 0 .84-26.002c.447-27.295-.29-54.747-2.029-81.99-.7-10.993-1.569-21.991-2.709-32.948-.812-7.8-1.728-15.706-3.08-23.431-1.912-10.915-3.629-21.862-5.522-32.78-2.753-15.871-5.819-32.545-10.857-47.853-3.494-10.621-9.46-25.245-20.237-30.334-20.843-9.843-37.759-10.881-56.08 4.787-6.435 5.502-10.427 15.795-12.4 23.8-3.068 12.448-3.169 25.815-.86 38.395 4.761 25.955 10.32 51.929 13.796 78.087 3.303 24.835 4.326 48.99 2.543 74.007-1.576 22.109-2.592 44.234-4.093 66.338-1.065 15.674-2.465 31.4-5.734 46.79-2.833 13.342-7.036 25.988-12.37 38.532a125.144 125.144 0 0 1-1.533 3.456c-4.567 9.899-10.47 19.473-17.197 28.05-4.95 6.314-11.316 13.373-17.952 17.952-.394.273-1.42.614-1.99.502zm-186.588 476.784c73.81 0 133.65-59.838 133.65-133.648s-59.84-133.65-133.65-133.65-133.649 59.84-133.649 133.65 59.84 133.648 133.65 133.648z" fill="none" stroke="#fff" stroke-width="28.346" stroke-miterlimit="22.926"/>
    <path d="M4207.707 1763.779h242.488l11.407.012c107.545.11 179.527-146.851 191.103-195.95 12.693-53.84 13.235-62.281 15.547-109.143 3.203-64.895-2.3-136.836-6.9-163.114-7.225-41.276-13.901-97.585-33.452-106.817-18.759-8.86-33.363-10.237-49.975 3.969-8.075 6.906-16.347 29.734-11.368 56.864 10.239 55.798 20.472 96.626 16.418 153.519-5.557 77.963-2.859 106.972-22.635 153.476-9.744 22.914-26.391 43.426-38.679 51.905-3.7 2.554-10.987 2.517-10.987-5.176l.029-856.15c0-31.257-26.859-63.415-54.303-63.271l-36.039.187c-27.347-.424-54.736 32.137-54.732 62.993l.039 477.263c-.006 9.49-7.854 17.984-15.559 17.984l-41.064-.017c-8.255-.022-15.871-8.584-15.859-17.858.12-99.466-.592-344.712-.052-477.29.124-30.398-27.031-63.232-54.41-63.257l-36.218-.031c-27.188-.024-54.685 31.41-54.679 63.22l.167 912.662c.018 135.406-158.62 104.02 59.713 104.02m122.156 311.672c70.68 0 127.979-57.298 127.979-127.98 0-70.68-57.299-127.98-127.979-127.98-70.681 0-127.98 57.3-127.98 127.98 0 70.682 57.299 127.98 127.98 127.98" fill="#ffffff" fill-rule="evenodd"/>
    <path d="M4207.707 1763.779h242.488l11.407.012c107.545.11 179.527-146.851 191.103-195.95 12.693-53.84 13.235-62.281 15.547-109.143 3.203-64.895-2.3-136.836-6.9-163.114-7.225-41.276-13.901-97.585-33.452-106.817-18.759-8.86-33.363-10.237-49.975 3.969-8.075 6.906-16.347 29.734-11.368 56.864 10.239 55.798 20.472 96.626 16.418 153.519-5.557 77.963-2.859 106.972-22.635 153.476-9.744 22.914-26.391 43.426-38.679 51.905-3.7 2.554-10.987 2.517-10.987-5.176l.029-856.15c0-31.257-26.859-63.415-54.303-63.271l-36.039.187c-27.347-.424-54.736 32.137-54.732 62.993l.039 477.263c-.006 9.49-7.854 17.984-15.559 17.984l-41.064-.017c-8.255-.022-15.871-8.584-15.859-17.858.12-99.466-.592-344.712-.052-477.29.124-30.398-27.031-63.232-54.41-63.257l-36.218-.031c-27.188-.024-54.685 31.41-54.679 63.22l.167 912.662c.018 135.406-158.62 104.02 59.713 104.02zm122.156 311.672c70.68 0 127.979-57.298 127.979-127.98 0-70.68-57.299-127.98-127.979-127.98-70.681 0-127.98 57.3-127.98 127.98 0 70.682 57.299 127.98 127.98 127.98z" fill="none" stroke="#000000" stroke-width="28.346" stroke-miterlimit="22.926"/>
    <path d="M4188.802 583.751c-24.867-.353-46.78 19.576-57.982 40.283-6.097 11.272-9.915 24.101-9.914 36.973l.044 542.367c0 3.84-1.606 7.648-4.134 10.509-1.914 2.165-4.867 4.261-7.874 4.259l-46.667-.02c-6.96-.004-12.363-8.163-12.355-14.618.217-180.79-.795-361.591-.06-542.38.056-13.637-4.274-27.274-11.028-39.033-11.348-19.754-32.502-38.525-56.468-38.545l-41.16-.037c-27.32-.024-51.046 23.398-61.275 47.092-4.138 9.584-6.536 19.963-6.534 30.424l.189 1034.862c-.377.271-.756.53-1.063.749-1.734 1.232-3.492 2.437-5.233 3.662-5.801 4.079-11.44 8.316-16.934 12.803-19.274 15.735-36.543 34.032-51.997 53.496-5.138 6.473-9.982 13.317-14.71 20.096-6.018 8.633-11.893 17.376-17.676 26.169-7.252 11.026-14.39 22.156-21.281 33.411-2.665 4.354-5.301 8.735-7.833 13.169-1.663 2.913-3.412 5.984-4.784 9.045-4.563 10.19-9.182 20.328-13.574 30.596-6.136 14.344-11.884 28.842-17.116 43.541-13.272 37.288-23.306 75.968-28.036 115.307-1.594 13.252-2.195 27.016-2.67 40.353-.637 17.906-.833 35.86-.675 53.776.154 17.687.64 35.443 1.8 53.094.496 7.537 1.118 15.083 2 22.585.705 5.991 1.565 12.07 2.878 17.96 6.109 27.427 9.328 54.927 24.95 79.188 8.487 13.18 27.995 20.677 43.118 21.166 7.186.232 14.17-.066 21.045-2.402 8.789-2.985 15.535-8.701 20.867-16.212 13.063-18.4 12.887-40.719 10.545-62.255-.367-3.375-.878-6.73-1.494-10.068-1.38-7.482-3.26-14.878-4.96-22.292-2.113-9.222-3.902-18.402-5.208-27.779-1.873-13.445-2.816-27.015-3.203-40.581-.572-20.102.037-40.306 1.21-60.376 1.25-21.419 4.17-42.49 9.605-63.262 4.35-16.626 10.209-32.408 16.636-48.317 2.773-6.867 5.607-13.709 8.365-20.583 10.444-26.035 24-51.094 39.612-74.391 5.375-8.021 11.025-15.884 16.97-23.492 3.18-4.069 6.487-8.183 9.948-12.02 13.823-15.327 40.749-39.963 62.425-39.963h275.56l12.962.013c15.445.016 30.62-2.55 45.273-7.4 36.38-12.042 67.51-37.344 92.647-65.685 22.474-25.339 41.654-54.629 57.18-84.698 6.52-12.627 12.51-25.611 17.699-38.842 3.849-9.814 7.476-20.152 9.898-30.423 5.457-23.148 11.118-46.784 13.99-70.419 2.194-18.058 2.926-36.468 3.823-54.633a902.76 902.76 0 0 0 .953-29.523c.508-30.997-.33-62.174-2.303-93.111-.795-12.484-1.782-24.971-3.076-37.412-.92-8.846-1.96-17.814-3.494-26.575-2.171-12.404-4.123-24.845-6.275-37.252-3.122-17.998-6.598-36.913-12.31-54.273-3.89-11.824-10.59-28.344-22.594-34.014-23.407-11.053-42.313-12.271-62.897 5.33-7.174 6.134-11.644 17.721-13.843 26.644-3.46 14.039-3.572 29.118-.968 43.308 5.414 29.508 11.732 59.036 15.686 88.776 3.759 28.275 4.924 55.777 2.893 84.259-1.79 25.124-2.944 50.267-4.65 75.385-1.213 17.849-2.811 35.757-6.532 53.283-3.23 15.209-8.022 29.628-14.102 43.928a146.093 146.093 0 0 1-1.751 3.947c-5.215 11.304-11.956 22.236-19.637 32.031-5.676 7.24-12.962 15.31-20.571 20.561-.496.341-1.164.57-1.756.665-1.692.268-1.84-.182-1.84-1.882l.032-972.937c0-11.624-2.991-23.193-7.98-33.653-10.653-22.334-33.24-44.057-59.43-43.92zM4085.93 2176.248c83.452 0 151.107-67.655 151.107-151.107s-67.655-151.106-151.107-151.106c-83.451 0-151.106 67.654-151.106 151.106s67.655 151.107 151.106 151.107" fill="#ffffff" fill-rule="evenodd"/>
    <path d="M4188.802 583.751c-24.867-.353-46.78 19.576-57.982 40.283-6.097 11.272-9.915 24.101-9.914 36.973l.044 542.367c0 3.84-1.606 7.648-4.134 10.509-1.914 2.165-4.867 4.261-7.874 4.259l-46.667-.02c-6.96-.004-12.363-8.163-12.355-14.618.217-180.79-.795-361.591-.06-542.38.056-13.637-4.274-27.274-11.028-39.033-11.348-19.754-32.502-38.525-56.468-38.545l-41.16-.037c-27.32-.024-51.046 23.398-61.275 47.092-4.138 9.584-6.536 19.963-6.534 30.424l.189 1034.862c-.377.271-.756.53-1.063.749-1.734 1.232-3.492 2.437-5.233 3.662-5.801 4.079-11.44 8.316-16.934 12.803-19.274 15.735-36.543 34.032-51.997 53.496-5.138 6.473-9.982 13.317-14.71 20.096-6.018 8.633-11.893 17.376-17.676 26.169-7.252 11.026-14.39 22.156-21.281 33.411-2.665 4.354-5.301 8.735-7.833 13.169-1.663 2.913-3.412 5.984-4.784 9.045-4.563 10.19-9.182 20.328-13.574 30.596-6.136 14.344-11.884 28.842-17.116 43.541-13.272 37.288-23.306 75.968-28.036 115.307-1.594 13.252-2.195 27.016-2.67 40.353-.637 17.906-.833 35.86-.675 53.776.154 17.687.64 35.443 1.8 53.094.496 7.537 1.118 15.083 2 22.585.705 5.991 1.565 12.07 2.878 17.96 6.109 27.427 9.328 54.927 24.95 79.188 8.487 13.18 27.995 20.677 43.118 21.166 7.186.232 14.17-.066 21.045-2.402 8.789-2.985 15.535-8.701 20.867-16.212 13.063-18.4 12.887-40.719 10.545-62.255-.367-3.375-.878-6.73-1.494-10.068-1.38-7.482-3.26-14.878-4.96-22.292-2.113-9.222-3.902-18.402-5.208-27.779-1.873-13.445-2.816-27.015-3.203-40.581-.572-20.102.037-40.306 1.21-60.376 1.25-21.419 4.17-42.49 9.605-63.262 4.35-16.626 10.209-32.408 16.636-48.317 2.773-6.867 5.607-13.709 8.365-20.583 10.444-26.035 24-51.094 39.612-74.391 5.375-8.021 11.025-15.884 16.97-23.492 3.18-4.069 6.487-8.183 9.948-12.02 13.823-15.327 40.749-39.963 62.425-39.963h275.56l12.962.013c15.445.016 30.62-2.55 45.273-7.4 36.38-12.042 67.51-37.344 92.647-65.685 22.474-25.339 41.654-54.629 57.18-84.698 6.52-12.627 12.51-25.611 17.699-38.842 3.849-9.814 7.476-20.152 9.898-30.423 5.457-23.148 11.118-46.784 13.99-70.419 2.194-18.058 2.926-36.468 3.823-54.633a902.76 902.76 0 0 0 .953-29.523c.508-30.997-.33-62.174-2.303-93.111-.795-12.484-1.782-24.971-3.076-37.412-.92-8.846-1.96-17.814-3.494-26.575-2.171-12.404-4.123-24.845-6.275-37.252-3.122-17.998-6.598-36.913-12.31-54.273-3.89-11.824-10.59-28.344-22.594-34.014-23.407-11.053-42.313-12.271-62.897 5.33-7.174 6.134-11.644 17.721-13.843 26.644-3.46 14.039-3.572 29.118-.968 43.308 5.414 29.508 11.732 59.036 15.686 88.776 3.759 28.275 4.924 55.777 2.893 84.259-1.79 25.124-2.944 50.267-4.65 75.385-1.213 17.849-2.811 35.757-6.532 53.283-3.23 15.209-8.022 29.628-14.102 43.928a146.093 146.093 0 0 1-1.751 3.947c-5.215 11.304-11.956 22.236-19.637 32.031-5.676 7.24-12.962 15.31-20.571 20.561-.496.341-1.164.57-1.756.665-1.692.268-1.84-.182-1.84-1.882l.032-972.937c0-11.624-2.991-23.193-7.98-33.653-10.653-22.334-33.24-44.057-59.43-43.92zM4085.93 2176.248c83.452 0 151.107-67.655 151.107-151.107s-67.655-151.106-151.107-151.106c-83.451 0-151.106 67.654-151.106 151.106s67.655 151.107 151.106 151.107z" fill="none" stroke="#fff" stroke-width="28.346" stroke-miterlimit="22.926"/>
    <path d="M3947.111 1816.39h275.567l12.961.014c122.217.125 204.018-166.883 217.173-222.68 14.425-61.184 15.04-70.777 17.668-124.03 3.64-73.748-2.615-155.501-7.84-185.365-8.212-46.906-15.798-110.896-38.017-121.388-21.318-10.068-37.914-11.632-56.79 4.51-9.18 7.848-18.579 33.792-12.92 64.62 11.634 63.41 23.265 109.807 18.657 174.463-6.314 88.597-3.25 121.563-25.722 174.41-11.075 26.04-29.992 49.35-43.956 58.987-4.205 2.9-12.486 2.86-12.486-5.883l.032-972.936c.001-35.523-30.522-72.068-61.71-71.905l-40.953.214c-31.08-.481-62.203 36.52-62.2 71.586l.044 542.366c-.006 10.786-8.925 20.438-17.68 20.439l-46.667-.021c-9.38-.025-18.035-9.754-18.022-20.294.136-113.033-.672-391.733-.059-542.396.141-34.546-30.719-71.858-61.832-71.886l-41.158-.036c-30.897-.027-62.145 35.695-62.138 71.845l.19 1037.157c.001 2.72-33.742 18.135-76.454 71.94-17.85 22.487-59.388 86.923-65.55 100.685-13.906 31.044-48.069 102.94-58.274 187.802-4.536 37.716-5.376 147.19 3.238 185.859 5.511 24.745 8.921 53.65 24.183 77.35 8.258 12.825 27.716 18.22 38.534 18.57 12.392.4 26.012-.6 37.107-16.23 11.304-15.922 12.03-35.38 9.532-58.36-3.562-32.77-19.999-53.88-13.679-162.04 3.66-62.618 19.561-95.44 35.004-133.941 24.225-60.398 60.35-103.571 67.581-111.59 16.716-18.534 43.857-41.835 66.636-41.835m138.818 354.187c80.324 0 145.438-65.114 145.438-145.437 0-80.322-65.114-145.437-145.438-145.437-80.322 0-145.436 65.115-145.436 145.437 0 80.323 65.114 145.437 145.436 145.437" fill="#ffffff" fill-rule="evenodd"/>
    <path d="M3947.111 1816.39h275.567l12.961.014c122.217.125 204.018-166.883 217.173-222.68 14.425-61.184 15.04-70.777 17.668-124.03 3.64-73.748-2.615-155.501-7.84-185.365-8.212-46.906-15.798-110.896-38.017-121.388-21.318-10.068-37.914-11.632-56.79 4.51-9.18 7.848-18.579 33.792-12.92 64.62 11.634 63.41 23.265 109.807 18.657 174.463-6.314 88.597-3.25 121.563-25.722 174.41-11.075 26.04-29.992 49.35-43.956 58.987-4.205 2.9-12.486 2.86-12.486-5.883l.032-972.936c.001-35.523-30.522-72.068-61.71-71.905l-40.953.214c-31.08-.481-62.203 36.52-62.2 71.586l.044 542.366c-.006 10.786-8.925 20.438-17.68 20.439l-46.667-.021c-9.38-.025-18.035-9.754-18.022-20.294.136-113.033-.672-391.733-.059-542.396.141-34.546-30.719-71.858-61.832-71.886l-41.158-.036c-30.897-.027-62.145 35.695-62.138 71.845l.19 1037.157c.001 2.72-33.742 18.135-76.454 71.94-17.85 22.487-59.388 86.923-65.55 100.685-13.906 31.044-48.069 102.94-58.274 187.802-4.536 37.716-5.376 147.19 3.238 185.859 5.511 24.745 8.921 53.65 24.183 77.35 8.258 12.825 27.716 18.22 38.534 18.57 12.392.4 26.012-.6 37.107-16.23 11.304-15.922 12.03-35.38 9.532-58.36-3.562-32.77-19.999-53.88-13.679-162.04 3.66-62.618 19.561-95.44 35.004-133.941 24.225-60.398 60.35-103.571 67.581-111.59 16.716-18.534 43.857-41.835 66.636-41.835zm138.818 354.188c80.324 0 145.438-65.114 145.438-145.437 0-80.322-65.114-145.437-145.438-145.437-80.322 0-145.436 65.115-145.436 145.437 0 80.323 65.114 145.437 145.436 145.437z" fill="none" stroke="#000000" stroke-width="28.346" stroke-miterlimit="22.926"/>
    <path d="M71.56 1573.71c6.574 1.897 18.763 3.975 36.431 6.458 12.17 1.66 22.51 2.31 30.922 1.905 5.47-.353 9.147-.884 11.001-1.667 3.777-1.592 4.782-4.392 3.05-8.5-1.398-3.315-5.227-5.181-11.458-5.526-14.03-.706-41.622-7.665-82.772-20.876l-16.789 54.949c-5.773 17.033-9.413 27.65-11.052 31.905-1.67 4.184-3.149 7.524-4.433 9.847-3.202 6.104-4.195 10.597-3.01 13.407.638 1.514 1.715 2.588 3.328 3.266 1.515.635 2.951.708 4.276.149 1.26-.53 2.498-1.477 3.586-2.784 2.08-2.659 7.618-13.396 16.655-32.314 6.16-12.782 12.905-29.546 20.265-50.219m-22.968-54.487c6.574 1.897 18.794 4.046 36.492 6.601 12.17 1.661 22.48 2.239 30.861 1.761 5.47-.354 9.147-.885 11.002-1.667 3.776-1.592 4.781-4.392 3.05-8.5-1.368-3.243-5.167-5.037-11.398-5.381-14.03-.706-41.652-7.737-82.832-21.02l-16.79 54.949c-5.773 17.033-9.413 27.649-11.052 31.905-1.67 4.184-3.149 7.524-4.433 9.847-3.202 6.102-4.195 10.596-3.01 13.406.64 1.515 1.715 2.588 3.328 3.267 1.516.634 2.952.708 4.276.149 1.26-.531 2.5-1.477 3.586-2.785 2.08-2.658 7.618-13.397 16.655-32.314 6.16-12.782 12.905-29.545 20.265-50.218m.67 277.255l-7.332 7.224c7.454 15.724 14.173 33.381 20.01 53.143 10.093-11.72 18.4-20.742 24.904-27.236l35.086-33.631c13.144 23.566 17.65 44.339 13.353 62.318-4.196 18.014-13.817 31.172-28.762 39.508-10.487 5.849-21.302 6.239-32.445 1.17-11.205-5.034-21.57-16.09-31.058-33.098-13.488-24.181-21.015-50.075-22.657-77.817-1.643-27.744 2.647-52.526 12.883-74.177 10.197-21.719 23.824-37.29 40.904-46.817 4.647-2.591 9.361-4.326 14.18-5.132 4.718-.841 9.503-.824 14.316-.016 2.824.486 7.505 2.531 14.007 6.07 7.385 3.941 12.37 6.087 15.091 6.538 2.747.35 5.364-.125 7.94-1.561 2.636-1.471 4.262-3.721 5.066-6.857.703-3.168.273-6.153-1.404-9.158-4.229-7.582-13.62-12.464-28.2-14.542-14.553-2.181-29.285.93-44.292 9.302-20.66 11.522-36.895 29.355-48.768 53.531-11.835 24.244-16.753 51.886-14.755 82.923 1.998 31.037 11.246 61.344 27.705 90.853 13.373 23.976 27.942 39.763 43.643 47.394 15.7 7.633 29.78 7.929 42.34.924 11.93-6.655 20.406-16.846 25.554-30.644 5.11-13.865 5.596-30.705 1.385-50.656 8.248 10.803 16.28 18.413 24.197 22.864 7.891 4.555 16 6.839 24.273 7.06 8.3.118 16.486-2.031 24.524-6.514 13.25-7.391 23.446-18.63 30.527-33.685 7.082-15.055 9.905-33.02 8.51-53.825-1.434-20.874-7.104-40.191-17.087-58.087-2.895-5.192-9.67-16.011-20.3-32.561-4.975-7.883-9.926-16.316-14.917-25.264-7.582-13.594-13.32-26.245-17.179-37.884l-8.496 8.678c7.057 14.424 9.543 26.113 7.457 35.068-2.086 8.955-10.892 21.211-26.522 36.735l-90.554 89.467c-3.936 3.718-6.984 6.225-9.37 7.556-1.82 1.015-3.91 1.106-6.246.169-2.358-.834-4.23-2.566-5.64-5.094-.609-1.092-1.207-2.46-1.87-4.239m81.927-9.874l31.411-30.775c16.256-15.874 28.17-29.057 35.8-39.582 4.592-6.233 7.847-12.796 9.641-19.618 9.406 10.517 16.58 20.129 21.417 28.804 13.031 23.361 16.243 44.765 9.66 64.11-6.582 19.344-18.049 33.621-34.375 42.728-8.1 4.518-16.329 6.151-24.683 4.9-8.316-1.182-15.675-4.78-22.075-10.793-6.4-6.013-15.365-19.283-26.796-39.774m165.141 285.433c-4.63 33.639-.466 58.893 12.487 75.869 7.165 9.389 16.06 13.818 26.593 13.16 10.475-.614 21.262-5.205 32.41-13.71 26.351-20.107 43.738-47.934 52.112-83.543 8.363-35.503 3.958-64.51-13.17-86.957-8.872-11.628-18.896-18.246-30.06-19.958-11.119-1.651-21.246.96-30.277 7.852-7.603 5.801-17.002 15.53-28.206 29.293l-72.072 89.033c-28.455 34.895-41.69 65.555-39.753 91.92 1.938 26.363 8.32 46.581 19.043 60.634 3.084 4.042 7.641 8.829 13.756 14.592 22.543 21.365 36.016 34.993 40.475 40.838 3.322 4.352 4.64 12.005 3.904 22.896l7.834 2.68c5.824-15.954 7.94-27.998 6.301-36.192-1.592-8.131-5.23-15.981-10.97-23.505-7.307-9.576-23.134-25.933-47.376-49.051-7.673-7.329-12.762-12.695-15.277-15.99-4.507-5.908-5.378-12.621-2.52-20.017 2.754-7.414 11.904-20.79 27.447-40.127zm69.027-83.66c5.774-4.405 12.303-6.042 19.636-4.848 7.275 1.238 12.93 4.499 16.867 9.66 10.817 14.178 9.998 34.085-2.513 59.767-12.407 25.7-27.724 45.454-45.787 59.236-6.917 5.278-14.296 8.645-22.185 10.041-7.89 1.395-14.01-.82-18.423-6.603-4.698-6.156-6.723-16.515-5.982-30.952.742-14.438 7.14-31.42 19.25-50.991 12.11-19.57 25.132-34.623 39.137-45.31m59.985 300.476c9.72 11.448 21.934 17.391 36.75 17.843 14.76.499 29.62-5.551 44.528-18.209 23.733-20.15 37.365-47.421 40.836-81.661 3.47-34.241-3.402-61.444-20.664-81.776-10.58-12.461-22.862-19.373-36.85-20.63-13.99-1.256-27.479 3.63-40.416 14.613-22.472 19.08-37.323 43.693-44.5 73.899-8.747 37.693-1.958 69.686 20.316 95.921m-.487-25.237c-8.403-9.898-9.98-24.976-4.836-45.246 5.144-20.271 19.225-40.126 42.081-59.532 13.922-11.82 27.314-18.265 40.181-19.441 9.408-.806 17.127 2.286 23.05 9.261 8.251 9.719 10.203 23.35 5.91 40.846-5.76 22.435-19.33 42.78-40.76 60.975-16.062 13.635-29.49 21.036-40.342 22.143-10.85 1.106-19.26-1.911-25.284-9.006m97.452 55.475l-12.258-.187c-.699 20.686 1.296 38.376 5.993 53.178 4.803 14.804 10.767 25.722 17.944 32.703 2.747 2.673 5.48 4.127 8.358 4.42 2.773.29 5.363-.802 7.72-3.224 2.857-2.938 5.43-6.254 7.708-10.056 2.28-3.8 7.213-13.246 14.687-28.445 1.772 31.717 3.934 52.378 6.535 61.93 4.35 16.169 10.76 28.424 19.281 36.714 5.55 5.399 12.616 7.558 21.197 6.477 8.475-1.085 17.501-6.549 26.977-16.29 23.665-24.326 37.935-55.484 42.756-93.528 4.77-37.993-2.828-66.75-22.898-86.276-7.849-7.635-17.66-13.367-29.269-17.136l34.53-63.312c2.067-3.808 4.025-6.718 5.881-8.625 3.66-3.762 7.78-4.97 12.418-3.568 7.166 2.056 19.094 9.648 35.786 22.776l5.09-9.494c-18.808-15.888-33.257-28.741-43.349-38.558-10.427-10.145-23.28-23.852-38.616-41.178l-5.089 9.494c7.495 8.896 11.494 16.9 11.941 23.955.453 7.162-2.435 16.188-8.66 27.186l-81.748 143.37c-15.152 26.79-23.88 41.371-26.236 43.793-2.558 2.628-5.213 2.553-7.904-.064-4.82-4.691-7.692-20.023-8.775-46.055m102.456-39.362c16.411.516 29.13 5.165 38.267 14.055 13.12 12.762 15.493 33.429 7.116 61.894-8.377 28.465-21.237 51.666-38.635 69.55-5.615 5.772-11.228 8.738-16.939 9.001-5.66.21-10.87-1.949-15.58-6.531-5.27-5.127-8.907-13.279-10.91-24.456-3.084-17.244-3.756-32.143-2.12-44.595 1.302-8.965 6.432-21.53 15.547-37.741zm126.382 213.086c11.59 19.833 21.334 32.95 29.402 39.392 11.125 8.88 22.354 13.245 33.641 13.147 11.393-.104 20.917-5.014 28.633-14.679 13.504-16.913 16.81-38.104 9.963-63.627-6.846-25.523-20.232-46.238-40.22-62.196-23.777-18.983-41.169-21.644-52.115-7.933-3.006 3.765-9.162 16.239-18.424 37.367l-31.016 71.569c-1.612 3.773-3.112 6.531-4.503 8.274-2.647 3.314-5.232 3.919-7.738 1.918-5.256-4.196-9.76-17.36-13.57-39.54l-12.327-.732c7.986 41.522 18.366 67.382 31.141 77.581 6.54 5.222 13.07 3.812 19.486-4.224 6.235-7.811 15.492-26.55 27.647-56.317m33.016-68.684c3.68-4.608 7.805-7.018 12.362-7.336 4.558-.318 10.557 2.448 18.014 8.401 13.02 10.394 20.813 22.321 23.32 35.73 2.504 13.409-1.672 26.913-12.438 40.399-13.592 17.026-29.764 18.101-48.407 3.217-6.6-5.27-12.974-13.21-19.132-23.924 14.565-33.914 23.276-52.722 26.281-56.487m91.3 216.051c5.083 33.574 16.228 56.615 33.457 69.229 9.53 6.977 19.315 8.705 29.23 5.092 9.873-3.555 18.92-11.011 27.202-22.325 19.58-26.745 28.376-58.357 26.325-94.879-2.03-36.419-14.468-62.991-37.25-79.671-11.802-8.639-23.289-12.147-34.482-10.629-11.13 1.565-20.104 6.936-26.815 16.103-5.649 7.716-11.908 19.708-18.757 36.081l-43.915 105.796c-17.41 41.523-21.422 74.675-12.099 99.413 9.323 24.736 21.168 42.319 35.431 52.762 4.102 3.003 9.828 6.304 17.324 10.099 27.67 14.109 44.45 23.364 50.383 27.707 4.417 3.234 7.847 10.201 10.226 20.854l8.272.353c1.068-16.951-.312-29.101-4.204-36.495-3.83-7.348-9.54-13.847-17.177-19.437-9.719-7.116-29.53-18.322-59.325-33.631-9.434-4.856-15.833-8.561-19.179-11.011-5.995-4.388-8.732-10.581-8.084-18.483.542-7.89 5.53-23.309 14.962-46.256zm42.515-99.78c4.29-5.859 10.088-9.278 17.46-10.209 7.327-.873 13.673.654 18.911 4.489 14.39 10.534 19.241 29.859 14.512 58.032-4.623 28.161-13.719 51.444-27.14 69.777-5.14 7.02-11.264 12.339-18.435 15.91-7.17 3.573-13.67 3.181-19.539-1.115-6.248-4.575-11.124-13.937-14.5-27.993-3.377-14.057-2.05-32.155 4.023-54.354 6.073-22.197 14.302-40.323 24.708-54.537m221.358 165.714l11.077-3.972c-15.476-47.259-34.656-77.66-57.676-91.284-9.289-5.497-18.146-6.811-26.465-3.964-8.356 2.908-16.339 10.716-23.883 23.463-15.27 25.803-21.883 56.479-19.91 92.154 2.007 40.374 16.287 68.459 43.01 84.274 9.288 5.497 17.705 7.553 25.146 6.193 7.44-1.362 13.41-5.767 17.841-13.254 4.65-7.858 6.23-17.284 4.811-28.4-1.42-11.117-7.3-25.292-17.678-42.463-5.33-8.501-17.37-25.32-36.19-50.494 2.7-7.174 5.756-13.721 9.272-19.661 5.054-8.539 10.086-13.665 15.026-15.253 4.976-1.651 10.272-.772 15.926 2.574 5.385 3.187 10.4 8.076 15.213 14.684 6.486 8.852 14.6 24.014 24.48 45.403m-84.373-14.843c16.01 21.171 26.364 39.916 31.103 56.172 3.064 11.255 2.597 20.337-1.467 27.205-3.04 5.136-6.975 8.405-11.767 9.746-4.756 1.279-9.508.556-14.22-2.233-4.847-2.868-8.57-7.327-11.133-13.439-3.555-8.12-4.747-17.932-3.61-29.374 1.78-16.827 5.454-32.867 11.094-48.077m261.051 247.628c13.553 6.468 27.13 6.892 40.833 1.242 13.672-5.586 24.755-17.187 33.177-34.838 13.41-28.099 14.686-58.561 3.84-91.223s-28.25-54.669-52.32-66.157c-14.754-7.04-28.789-8.32-42.067-3.742-13.278 4.579-23.587 14.558-30.895 29.873-12.696 26.605-16.174 55.141-10.36 85.64 7.445 37.97 26.732 64.384 57.792 79.205m-10.773-22.827c-11.718-5.592-19.327-18.704-22.93-39.305-3.602-20.601 1.121-44.479 14.034-71.539 7.865-16.483 17.447-27.845 28.705-34.184 8.255-4.585 16.562-4.923 24.822-.982 11.505 5.491 18.864 17.129 22.108 34.85 3.926 22.827-.129 46.944-12.237 72.317-9.074 19.013-18.299 31.262-27.746 36.712-9.448 5.451-18.356 6.139-26.756 2.131m164.613 45.405c14.184 30.852 31.275 49.905 51.324 57.253 11.09 4.064 20.97 3.014 29.497-3.203 8.501-6.151 15.128-15.821 19.953-28.986 11.407-31.123 11.103-63.934-.984-98.46-12.039-34.431-31.35-56.518-57.86-66.234-13.734-5.034-25.744-5.223-36.078-.664-10.262 4.587-17.396 12.234-21.305 22.9-3.29 8.979-5.984 22.236-8.03 39.866l-12.892 113.82c-5.228 44.72.1 77.688 15.91 98.875 15.81 21.186 32.061 34.801 48.658 40.883 4.773 1.75 11.19 3.336 19.444 4.906 30.496 5.893 49.182 10.138 56.086 12.668 5.14 1.884 10.365 7.628 15.602 17.205l8.046-1.952c-3.668-16.584-8.36-27.876-14.148-33.903-5.715-6-13.003-10.661-21.889-13.918-11.309-4.146-33.448-9.427-66.319-15.883-10.41-2.054-17.585-3.841-21.477-5.268-6.977-2.556-11.322-7.749-12.888-15.521-1.665-7.732-1.143-23.929 1.564-48.591zm13.215-107.652c2.5-6.819 7.124-11.71 13.948-14.646 6.8-2.868 13.32-3.159 19.415-.926 16.744 6.137 26.758 23.362 30.018 51.743 3.36 28.339 1.067 53.231-6.752 74.565-2.994 8.168-7.405 14.976-13.305 20.394-5.902 5.419-12.255 6.842-19.085 4.339-7.27-2.664-14.548-10.309-21.685-22.881-7.139-12.572-10.877-30.33-11.19-53.341-.313-23.012 2.574-42.707 8.636-59.247m124.801 141.991l-10.998 5.417c8.8 18.734 18.634 33.573 29.557 44.61 11.02 10.992 21.303 17.995 30.871 20.941 3.663 1.128 6.758 1.177 9.454.127 2.601-1.005 4.41-3.157 5.404-6.386 1.206-3.917 1.985-8.041 2.282-12.463.298-4.423.387-15.078.118-32.014 16.024 27.429 27.36 44.838 34.026 52.157 11.237 12.413 22.526 20.402 33.888 23.901 7.401 2.278 14.674.982 21.82-3.889 7.052-4.826 12.598-13.802 16.597-26.79 9.986-32.435 8.498-66.674-4.54-102.737-13.059-35.996-32.922-58.136-59.683-66.376-10.464-3.222-21.809-3.856-33.86-1.924l1.9-72.091c.105-4.33.523-7.814 1.306-10.356 1.544-5.017 4.663-7.968 9.431-8.833 7.315-1.433 21.393-.109 42.232 3.976l.206-10.771c-23.98-5.577-42.697-10.438-56.153-14.581-13.904-4.281-31.59-10.629-53.135-19.068l-.205 10.77c10.724 4.505 17.93 9.809 21.542 15.887 3.665 6.168 5.206 15.521 4.673 28.147l-7.47 164.868c-1.285 30.751-2.414 47.708-3.408 50.938-1.08 3.504-3.477 4.646-7.066 3.542-6.428-1.98-15.968-14.321-28.789-37.002m73.28-81.711c14.845-7.015 28.285-8.67 40.47-4.918 17.491 5.386 29.018 22.703 34.526 51.859 5.508 29.156 4.63 55.668-2.713 79.514-2.37 7.696-6.016 12.893-10.98 15.728-4.945 2.766-10.567 3.217-16.846 1.284-7.026-2.164-13.977-7.764-20.85-16.803-10.6-13.947-17.988-26.904-22.2-38.734-2.926-8.575-4.082-22.097-3.352-40.681zm264.607 95.108l9.227-7.303c-29.763-39.836-57.652-62.515-83.819-68.07-10.558-2.241-19.37-.657-26.343 4.699-6.989 5.426-12.06 15.375-15.136 29.864-6.226 29.329-2.69 60.511 10.577 93.685 14.802 37.617 37.307 59.667 67.682 66.115 10.558 2.241 19.191 1.501 25.807-2.166 6.615-3.668 10.865-9.749 12.671-18.259 1.896-8.933.381-18.369-4.516-28.449-4.896-10.081-14.997-21.634-30.317-34.589-7.767-6.353-24.55-18.443-50.427-36.284.267-7.662 1.071-14.841 2.505-21.593 2.06-9.707 5.192-16.172 9.365-19.256 4.187-3.153 9.487-4.012 15.914-2.649 6.12 1.3 12.434 4.331 19.107 9.055 8.973 6.315 21.506 18.091 37.703 35.2m-84.694 12.893c21.935 14.947 37.736 29.401 47.421 43.291 6.5 9.686 8.96 18.44 7.302 26.248-1.24 5.838-3.924 10.193-8.036 12.995-4.098 2.732-8.833 3.564-14.189 2.427-5.508-1.17-10.46-4.205-14.842-9.177-5.965-6.559-10.228-15.476-12.807-26.682-3.69-16.514-5.332-32.886-4.849-49.102m118.441 70.425l-8.125 7.399c12.621 16.159 25.148 28.588 37.492 37.341 12.355 8.682 22.461 13.71 30.178 14.99 3.163.525 5.661.284 7.493-.724 1.755-1.021 2.898-2.654 3.274-4.923.436-2.625.06-8.008-1.073-15.995-1.619-12.222-2.493-21.769-2.753-28.809 30.712 39.496 55.713 60.845 74.85 64.019 5.014.832 9.007.182 11.99-2.02 2.98-2.202 4.975-6.099 5.916-11.773.953-5.746.351-15.977-1.908-30.564 14.377 19.44 27.304 33.756 38.74 42.723 11.501 9.05 20.724 14.152 27.822 15.329 6.328 1.05 11.46.225 15.485-2.533 4.025-2.758 6.57-7.584 7.711-14.464.694-4.185.735-9.207.21-15.126-.602-5.93-3.22-24.075-7.923-54.52-5.952-37.721-8.352-60.057-7.199-67.009.776-4.682 3.25-6.677 7.493-5.973 2.854.474 5.491 1.786 7.921 3.865 7.974 7.372 15.878 16.118 23.78 26.32l8.755-6.419c-2.776-2.865-7.982-8.758-15.477-17.581-10.378-11.999-17.599-19.611-21.74-22.849-7.93-6.198-14.95-9.768-20.89-10.754-4.554-.754-8.83.649-12.973 4.117-4.143 3.467-6.77 8.789-7.958 15.953-1.095 6.597-1.309 14.579-.696 23.791.613 9.213 3.402 30.156 8.368 62.831 3.78 24.533 5.22 39.276 4.395 44.241-.777 4.681-3.402 6.651-7.955 5.896-3.704-.614-8.437-3.149-14.188-7.674-11.697-9.302-21.129-19.831-28.065-31.55-4.83-8.163-8.195-20.382-10.17-36.672-4.395-35.641-7.279-64.617-8.74-86.872l-32.33-5.362 12.656 132.564c.874 9.547 1.238 15.001 1.002 16.42-.305 1.844-1.158 3.16-2.558 3.948-1.32.802-3.178 1.004-5.416.633-4.09-.679-9.934-4.637-17.623-11.816-13.268-12.26-22.506-23.485-27.547-33.723-5.04-10.239-8.367-25.076-9.89-44.57l-5.872-72.621-32.33-5.363 9.09 103.402c2.81 29.911 4.001 46.144 3.59 48.627-.484 2.907-2.108 4.096-4.809 3.648-5.864-.973-16.506-10.901-32.003-29.798m417.824-31.07l8.12-8.517c-35.02-35.303-65.796-53.879-92.482-55.735-10.767-.75-19.272 2.046-25.433 8.321-6.164 6.346-9.8 16.905-10.828 31.68-2.082 29.912 5.762 60.297 23.518 91.301 19.897 35.187 45.253 53.89 76.23 56.046 10.767.748 19.213-1.186 25.253-5.74 6.04-4.552 9.401-11.165 10.005-19.845.634-9.109-2.18-18.243-8.432-27.543-6.253-9.301-17.864-19.334-34.84-30.03-8.575-5.209-26.878-14.844-54.987-28.909-.802-7.624-1.006-14.845-.527-21.731.69-9.899 2.89-16.737 6.593-20.372 3.708-3.706 8.835-5.295 15.39-4.838 6.242.434 12.916 2.555 20.181 6.305 9.766 5.004 23.816 14.919 42.24 29.607m-82.075 24.561c23.802 11.747 41.462 23.859 52.987 36.266 7.784 8.686 11.44 17.013 10.885 24.975-.414 5.954-2.466 10.64-6.148 13.987-3.678 3.276-8.25 4.76-13.712 4.379-5.618-.391-10.945-2.707-15.976-7.021-6.819-5.664-12.283-13.901-16.397-24.638-5.954-15.839-9.86-31.823-11.639-47.948m171.602 55.548l-9.904 7.583c32.97 26.512 57.861 39.56 74.672 39.143 7.976-.198 12.402-4.695 13.277-13.564l12.38-131.642 98.773 136.937 32.371-.803-23.643-73.064c-13.572-42.458-20.43-66.599-20.578-72.564-.136-5.464 1.985-8.249 6.442-8.36 5.552-.138 18.365 8.607 38.52 26.232l7.391-7.952c-31.3-28.568-54.263-42.671-68.884-42.308-4.144.103-8.089 1.927-11.757 5.471-3.745 3.546-5.579 8.481-5.42 14.807.234 9.488 6.132 32.789 17.777 70.045l15.062 48.894-96.537-135.051-17.59.437-11.74 122.778c-22.839-56.397-41.055-90.54-54.733-102.571-13.678-12.032-28.688-17.845-45.029-17.439-8.132.202-14.259 2.368-18.304 6.497-4.124 4.058-6.12 8.711-5.99 13.958.125 5.031 2.034 9.443 5.803 13.162 3.77 3.718 8.43 5.473 13.903 5.337 3.518-.088 8.027-1.279 13.447-3.571 6.045-2.308 10.397-3.495 12.977-3.559 6.725-.167 13.62 3.402 20.685 10.635 6.986 7.235 17.535 25.602 31.564 54.958 14.03 29.357 21.123 47.162 21.276 53.343.088 3.522-1.746 5.294-5.578 5.389-9.148.228-22.718-7.491-40.633-23.158m411.802-30.455l-8.753 8.886c36.338 21.669 62.802 31.127 79.391 28.376 7.871-1.306 11.628-6.375 11.261-15.279l-6.053-132.084 116.863 121.866 31.944-5.298-33.577-69.066c-19.347-40.157-29.496-63.109-30.474-68.995-.893-5.392.82-8.446 5.218-9.175 5.48-.909 19.384 5.968 41.794 20.617l6.214-8.901c-34.972-23.937-59.67-34.708-74.1-32.315-4.09.678-7.742 3.034-10.882 7.053-3.215 4.032-4.344 9.176-3.308 15.417 1.553 9.364 10.636 31.617 27.348 66.891l21.718 46.324-114.385-120.309-17.36 2.88 5.454 123.218c-30.46-52.672-53.25-83.949-68.468-93.961-15.218-10.011-30.89-13.68-47.017-11.005-8.025 1.331-13.79 4.328-17.222 8.978-3.519 4.594-4.849 9.479-3.99 14.656.823 4.966 3.327 9.07 7.577 12.228 4.25 3.157 9.108 4.246 14.51 3.35 3.472-.575 7.771-2.382 12.82-5.406 5.665-3.126 9.81-4.907 12.356-5.329 6.635-1.101 13.961 1.474 21.962 7.654 7.925 6.192 20.926 22.913 38.904 50.032 17.976 27.12 27.476 43.765 28.488 49.865.577 3.476-.992 5.486-4.773 6.113-9.028 1.498-23.54-4.258-43.46-17.281m315.491-95.572c22.746 2.64 39.086 2.707 48.93.153 13.701-3.556 23.851-9.905 30.542-18.996 6.672-9.16 8.456-19.725 5.35-31.696-5.438-20.949-20.412-36.302-44.867-46.15-24.454-9.846-48.983-11.577-73.664-5.172-29.374 7.624-41.858 19.926-37.45 36.908 1.211 4.663 7.501 17.07 18.854 37.152l38.671 67.74c2.054 3.553 3.36 6.407 3.921 8.565 1.065 4.106 0 6.536-3.104 7.342-6.51 1.69-19.747-2.601-39.78-12.852l-7.978 9.424c38.015 18.511 64.934 25.713 80.758 21.606 8.1-2.102 10.887-8.174 8.304-18.126-2.51-9.674-11.955-28.32-28.487-55.898m-35.162-67.609c-1.482-5.707-.936-10.455 1.542-14.292 2.403-3.819 8.215-6.961 17.375-9.338 16.05-4.165 30.191-3.23 42.348 2.826 12.158 6.056 20.46 17.495 24.795 34.198 5.473 21.088-3.289 34.653-26.228 40.607-8.1 2.103-18.275 2.44-30.467.925-18.328-32.015-28.156-50.264-29.365-54.926m204.483 96.686l31.04-8.056-39.283-65.426c-22.807-38.058-34.933-59.87-36.413-65.577-1.373-5.29-.016-8.465 4.148-9.545 5.3-1.376 19.765 4.23 43.32 16.836l5.316-9.403c-36.895-20.732-62.46-29.251-76.692-25.557-3.937 1.022-7.365 3.693-10.207 7.998-2.86 4.233-3.45 9.438-1.86 15.562 2.366 9.117 13.46 30.381 33.34 63.7zm162.49-111.634l-4.534 9.844c24.814 8.254 43.728 12.74 56.715 13.391 12.943.746 23.262-.528 30.911-3.724 3.031-1.267 5.091-2.83 6.351-4.681 1.19-1.822 1.5-3.51.835-5.103-.472-1.128-1.693-3.033-3.56-5.681l-25.93-35.063c20.416 8.689 44.097 14.845 71.07 18.534 14.22 1.772 25.06 1.138 32.492-1.969 5.484-2.292 9.15-5.695 10.85-10.145 1.771-4.482 1.42-9.789-1.078-15.76-1.69-4.046-4.226-8.286-7.63-12.786-5.76-7.489-19.287-23.423-40.624-47.703-19.985-22.664-31.806-38.374-35.438-47.065-1.138-2.72-1.564-4.957-1.325-6.616.284-1.755 1.233-2.931 2.75-3.565 4.112-1.719 12.06-.755 23.842 2.894 8.397 2.647 16.627 4.896 24.691 6.747l1.77-9.156c-18.41-7.737-36.168-12.705-53.379-14.941-11.01-1.398-19.31-.969-25.083 1.443-5.34 2.232-8.705 5.743-10.166 10.562-1.462 4.819-.465 11.26 2.918 19.354 4.824 11.543 24.67 36.915 59.516 76.278 11.656 14.299 18.002 22.79 19.14 25.51 1.607 3.848-.187 6.857-5.382 9.029-5.629 2.353-14.055 2.679-25.205.949-16.633-2.477-31.61-7.283-45.035-14.453-8.568-4.679-17.989-13.834-28.12-27.524l-45.512-60.622-31.465 13.151c14.042 16.964 26.93 33.399 38.736 49.272l49.624 65.995c1.94 2.618 3.161 4.524 3.688 5.784 1.414 3.383.691 5.711-2.123 6.888-2.309.965-6.11.995-11.506.055-11.022-1.628-21.967-4.691-32.805-9.123m206.722-95.796l-3.935 11.611c19.475 7.006 36.926 10.528 52.455 10.594 15.563-.035 27.785-2.366 36.63-7.058 3.384-1.796 5.606-3.95 6.767-6.601 1.127-2.55.881-5.351-.702-8.336-1.92-3.621-4.289-7.085-7.209-10.42-2.92-3.334-10.398-10.925-22.575-22.698 30.733 8.034 51.062 12.309 60.953 12.761 16.723.815 30.352-1.531 40.855-7.101 6.841-3.629 11.061-9.692 12.662-18.192 1.565-8.399-.87-18.666-7.237-30.671-15.902-29.982-41.187-53.115-75.923-69.364-34.703-16.184-64.405-17.767-89.14-4.646-9.675 5.131-18.138 12.712-25.284 22.607l-49.682-52.272c-2.99-3.134-5.16-5.89-6.407-8.24-2.46-4.637-2.346-8.93.41-12.914 4.153-6.192 15.036-15.219 32.647-27.084l-7.477-7.754c-20.888 13.032-37.55 22.847-49.989 29.444-12.85 6.816-29.838 14.85-51.03 24.137l7.476 7.754c10.765-4.408 19.61-5.761 26.463-4.024 6.956 1.763 14.663 7.279 23.223 16.576l111.414 121.755c20.86 22.633 32.062 35.41 33.646 38.395 1.72 3.239.833 5.744-2.484 7.503-5.942 3.152-21.417 1.186-46.527-5.762m-6.066-109.589c5.52-15.462 13.843-26.144 25.106-32.119 16.17-8.575 36.57-4.501 61.097 12.198 24.527 16.697 42.671 36.049 54.361 58.091 3.774 7.114 4.877 13.366 3.375 18.883-1.533 5.453-5.185 9.75-10.99 12.829-6.495 3.445-15.369 4.408-26.622 2.889-17.36-2.35-31.749-6.276-43.099-11.65-8.136-3.988-18.522-12.721-31.16-26.366zm355.498-32.126l14.386-6.027-43.603-35.086c-17.347-13.975-36.21-30.825-56.526-50.593-11.073-10.704-17.782-17.909-20.154-21.512-2.372-3.604-1.99-6.437 1.211-8.545 1.96-1.29 6.017-2.238 11.976-2.717 10.646-.897 21.638-.558 32.976 1.018l1.634-10.889c-22.449-2.525-36.55-3.746-42.326-3.559-11.527.271-21.727 1.562-30.69 4.019-5.967 1.604-11.225 3.859-15.798 6.87-3.267 2.15-5.275 4.505-6.064 7.005-.724 2.457-.19 5.117 1.55 7.76 1.147 1.741 3.25 3.8 6.312 6.175l23.22 18.631c-18.923-4.847-38.853-6.533-59.703-5.204-12.796.761-23.134 3.693-30.908 8.81-7.447 4.903-11.484 11.004-12.307 18.431-1.088 10.013 1.81 20.245 8.687 30.695 8.184 12.432 20.91 23.94 38.138 34.464 17.293 10.482 36.03 18.033 56.365 22.466 20.27 4.477 39.057 5.279 56.325 2.349 13.248-2.35 27.973-8.858 44.175-19.524a129.803 129.803 0 0 0 11.938-8.89zm-41.624-11.596c-6.03 5.777-11.41 10.265-16.114 13.361-11.433 7.526-23.327 11.223-35.719 11.031-12.394-.192-27.178-5.438-44.418-15.697-17.239-10.258-30.822-22.925-40.705-37.939-5.259-7.988-7.576-14.639-6.969-20.118.607-5.479 3.315-9.758 8.018-12.854 8.755-5.762 21.05-7.571 36.842-5.485 15.833 2.145 31.518 9.898 47.015 23.197zm117.593-143.852l9.348-6.561c16.422-11.994 19.163-25.481 8.265-40.404-11.155-15.271-31.229-22.601-60.227-21.99-29.06.657-52.697 7.68-71.078 21.105-22.802 16.653-26.028 36.105-9.7 58.46 19.337 26.478 46.966 45.742 82.888 57.794 35.878 11.992 65.712 9.345 89.4-7.954 18-13.147 21.456-27.247 10.431-42.343-10.815-14.807-30.612-20.827-59.327-18.107m-61.17 23.929c47.132-12.251 76.878-9.847 89.345 7.224 7.846 10.741 6.883 19.636-2.78 26.694-19.012 13.885-47.902 2.575-86.565-33.918m-10.463-11.144c-5.654-5.487-10.76-11.285-15.213-17.381-7.422-10.162-11.332-18.168-11.838-24.032-.505-5.864 2.306-11.033 8.37-15.461 8.716-6.367 20.866-8.563 36.428-6.483 15.625 2.032 27.615 8.768 36.055 20.323 8.651 11.845 8.113 21.32-1.55 28.378-7.77 5.674-25.146 10.529-52.252 14.656m268.24-81.082c11.241-9.957 16.928-22.293 17.07-37.114.191-14.768-6.169-29.498-19.135-44.139-20.642-23.308-48.193-36.366-82.499-39.12-34.305-2.754-61.359 4.686-81.325 22.369-12.237 10.838-18.89 23.262-19.855 37.274-.963 14.012 4.204 27.397 15.455 40.1 19.545 22.069 44.463 36.402 74.812 42.948 37.868 7.955 69.712.499 95.476-22.318m-25.222 1.015c-9.719 8.608-24.76 10.499-45.134 5.78-20.375-4.719-40.52-18.381-60.399-40.827-12.108-13.673-18.832-26.927-20.277-39.766-1.002-9.39 1.927-17.17 8.778-23.238 9.544-8.453 23.131-10.689 40.713-6.763 22.55 5.289 43.175 18.431 61.814 39.477 13.967 15.772 21.648 29.044 22.981 39.869 1.333 10.826-1.508 19.296-8.476 25.468m155.13-315.855l-5.253-12.041c-44.149 8.699-74.86 22.214-92.129 40.546-9.17 9.736-12.629 19.803-10.479 30.209 2.204 10.35 8.172 20.162 17.907 29.333 16.172 15.234 37.214 26.244 63.124 32.923 25.91 6.785 49.722 7.724 71.43 3.03 16.933-3.82 31.595-12.359 43.984-25.51 7.723-8.198 12.21-15.792 13.3-22.716 1.143-6.982-.327-12.343-4.409-16.188-3.193-3.008-6.83-4.286-10.91-3.938-4.08.347-8.025 2.541-11.78 6.526-3.646 3.872-6.744 10.411-9.29 19.616-2.499 9.573-5.759 16.495-9.782 20.765-5.096 5.409-12.494 8.754-22.143 9.873-9.594 1.063-23.32-2.089-41.016-9.518-17.697-7.429-33.192-17.405-46.38-29.83-9.684-9.121-15.289-18.27-16.713-27.455-1.239-6.863.688-12.999 5.836-18.465 12.281-13.037 33.886-22.128 64.703-27.16m127.27-81.293l7.06-8.978c12.265-16.221 11-29.925-3.738-41.072-15.084-11.406-36.42-12.636-64.01-3.69-27.637 9.009-48.244 22.549-61.973 40.703-17.032 22.521-14.512 42.077 7.568 58.775 26.15 19.777 58.161 30.256 96.031 31.438 37.814 1.139 65.618-9.999 83.31-33.393 13.445-17.779 12.69-32.276-2.222-43.552-14.623-11.06-35.315-11.117-62.027-.231m-51.67 40.55c41.595-25.321 70.771-31.597 87.632-18.846 10.61 8.024 12.253 16.818 5.034 26.362-14.2 18.778-45.124 16.279-92.667-7.516m-13.234-7.654c-6.996-3.623-13.556-7.702-19.578-12.256-10.036-7.591-16.089-14.129-18.263-19.598-2.176-5.469-.974-11.229 3.554-17.218 6.511-8.609 17.512-14.215 33.012-16.712 15.548-2.559 28.972.434 40.384 9.064 11.7 8.848 13.916 18.075 6.697 27.621-5.802 7.672-21.04 17.331-45.806 29.099m237.964-137.866c8.523-12.364 11.081-25.705 7.662-40.127-3.36-14.381-13.07-27.154-29.172-38.254-25.633-17.67-55.513-23.733-89.477-18.171-33.963 5.562-58.439 19.279-73.577 41.238-9.278 13.459-12.754 27.118-10.326 40.951 2.428 13.834 10.657 25.587 24.63 35.217 24.271 16.732 51.901 24.664 82.935 23.732 38.67-1.368 67.793-16.251 87.325-44.586m-24.24 7.04c-7.37 10.689-21.517 16.137-42.428 16.447-20.91.31-43.747-8.117-68.433-25.134-15.036-10.365-24.746-21.619-29.23-33.735-3.228-8.874-2.252-17.131 2.942-24.666 7.236-10.496 19.888-15.929 37.898-16.338 23.161-.28 46.338 7.527 69.484 23.483 17.346 11.957 27.988 22.997 31.88 33.186 3.893 10.188 3.168 19.093-2.114 26.757m22.941-250.612l-4.277-10.961c-46.81 16.777-76.67 36.791-89.652 60.18-5.238 9.437-6.306 18.327-3.23 26.564 3.138 8.272 11.163 16.037 24.115 23.225 26.215 14.551 57.064 20.312 92.67 17.353 40.302-3.125 67.982-18.177 83.051-45.327 5.238-9.437 7.061-17.908 5.494-25.308-1.567-7.399-6.135-13.244-13.742-17.467-7.984-4.431-17.45-5.749-28.523-4.023s-25.079 7.996-41.956 18.846c-8.35 5.563-24.829 18.065-49.473 37.574-7.247-2.502-13.875-5.375-19.91-8.725-8.677-4.815-13.94-9.704-15.664-14.598-1.787-4.928-1.056-10.247 2.133-15.992 3.036-5.471 7.784-10.618 14.257-15.612 8.668-6.729 23.6-15.259 44.707-25.729m-12.5 84.753c20.718-16.589 39.17-27.459 55.29-32.646 11.165-3.375 20.255-3.159 27.233.713 5.22 2.897 8.595 6.74 10.068 11.494 1.411 4.718.82 9.488-1.838 14.276-2.733 4.924-7.087 8.769-13.126 11.5-8.019 3.779-17.794 5.241-29.263 4.421-16.869-1.312-33.004-4.542-48.365-9.758m156.652 44.904c2.808-5.061 3.603-10.345 2.321-15.887s-4.344-9.657-9.122-12.308c-4.652-2.583-9.7-2.97-15.144-1.161-5.445 1.809-9.572 5.243-12.38 10.304-2.81 5.061-3.54 10.38-2.197 15.957 1.345 5.577 4.344 9.656 8.996 12.238 4.778 2.652 9.89 3.074 15.272 1.231 5.381-1.844 9.445-5.313 12.254-10.374m31.81-58.201c2.847-5.13 3.68-10.482 2.322-15.887-1.258-5.44-4.294-9.451-8.883-11.998-4.778-2.652-9.852-3.142-15.133-1.332-5.306 1.706-9.407 5.244-12.254 10.374-2.808 5.06-3.603 10.344-2.245 15.75 1.257 5.439 4.357 9.485 9.135 12.137 4.59 2.547 9.598 3.002 14.88 1.192 5.306-1.706 9.37-5.176 12.178-10.236m-119.31-154.647l-5.656 11.862c64.703 19.668 118.944 37.555 162.66 53.629 2.468 1.004 4.522 1.204 6.001.609 2.794-1.181 6.236-4.392 10.36-9.532 6.781-8.377 11.08-14.386 12.863-18.128 1.38-2.895.756-4.926-1.906-6.195-1.817-.866-4.423-1.415-7.882-1.678-5.644-.525-29.178-4.292-70.572-11.202zm-27.026.547c2.558-5.366 2.831-10.782.847-16.146-1.95-5.435-5.812-9.53-11.459-12.222-8.178-3.898-15.613-4.844-22.34-2.765-6.692 2.009-11.587 6.261-14.683 12.756-2.559 5.365-2.96 10.72-1.237 15.96 1.755 5.343 5.292 9.282 10.745 11.882 7.918 3.774 16.075 4.544 24.405 2.276 6.197-1.638 10.76-5.528 13.722-11.741m93.6-110.632c3.083 5.984 9.946 16.124 20.493 30.463 7.353 10.093 14.085 17.968 20.197 23.624 3.995 3.653 6.871 5.894 8.658 6.654 3.771 1.602 6.481.374 8.224-3.73 1.376-3.239.02-7.215-4.072-11.929-9.262-10.563-23.31-35.229-42.182-73.925l-51.199 26.175c-16.379 7.658-26.666 12.379-30.735 14.05-4.1 1.742-7.46 3.033-10.15 3.846-6.68 1.75-10.664 4.137-11.918 7.089-.642 1.51-.664 3.032-.028 4.662.601 1.529 1.68 2.668 3.07 3.258 1.19.505 2.697.636 4.555.491 3.325-.286 14.926-3.686 34.894-10.413 13.301-4.461 30.031-11.29 50.193-20.315m23.124-54.421c3.082 5.984 9.946 16.123 20.493 30.463 7.383 10.021 14.146 17.823 20.197 23.623 3.995 3.653 6.871 5.894 8.657 6.654 3.772 1.602 6.481.374 8.224-3.73 1.377-3.239.02-7.215-4.07-11.928-9.2-10.708-23.25-35.374-42.183-73.926l-51.107 25.96c-16.439 7.801-26.759 12.595-30.827 14.265-4.1 1.742-7.43 2.962-10.059 3.63-6.742 1.894-10.755 4.353-12.008 7.304-.643 1.513-.665 3.033-.029 4.663.601 1.529 1.68 2.668 3.07 3.259 1.19.506 2.697.635 4.555.491 3.325-.287 14.926-3.687 34.894-10.414 13.363-4.605 30.093-11.434 50.193-20.314" fill="#ffffff"/>
  </g>
  <text style="-inkscape-font-specification:Arial-BoldMT" transform="matrix(1.33333 0 0 1.33333 465.36 3812.949)" font-weight="700" font-size="220" font-family="Arial" fill="#ffffff">
    <tspan y="0" x="0 158.17999 301.84 473 660.65997 814 985.15997 1211.98"></tspan>
  </text>
  <g transform="matrix(1.33333 0 0 -1.33333 0 4251.08)">
    <text style="-inkscape-font-specification:Arial-BoldMT" transform="matrix(1 0 0 -1 287.859 82.822)" font-weight="700" font-size="220" font-family="Arial" fill="#ffffff">
      <tspan y="0" x="0 122.32 259.16 418 576.17999 735.02002 881.76001 1023 1181.84 1340.02 1474.4399 1621.1801 1755.6 1914.4399 2048.6399 2207.48 2365.6599 2426.8201 2580.1599 2745.8201 2900.26 3058.4399 3215.0801 3373.9199 3520.6599 3679.5 3850.6599 4004 4138.4199 4296.6001"> </tspan>
    </text>
  </g>
</svg>
