<svg viewBox="0 0 139 139" xmlns="http://www.w3.org/2000/svg">
  <path d="M127.558 111.961L100.249 84.65a47.75 47.75 0 0 0 7.333-25.488c0-26.509-21.49-47.996-47.998-47.996S11.588 32.653 11.588 59.162c0 26.51 21.487 47.995 47.996 47.995a47.776 47.776 0 0 0 27.414-8.605l26.984 26.986a9.574 9.574 0 0 0 6.788 2.806 9.58 9.58 0 0 0 6.791-2.806 9.602 9.602 0 0 0-.003-13.577zM59.584 91.607c-17.917 0-32.443-14.525-32.443-32.443S41.667 26.72 59.584 26.72c17.918 0 32.443 14.526 32.443 32.444S77.502 91.607 59.584 91.607z"/>
</svg>
