<svg viewBox="0 0 100 100" xmlns="http://www.w3.org/2000/svg">
  <circle cx="50" cy="50" fill="#4A74A5" r="45"/>
  <path clip-rule="evenodd" d="M42.275 38.826c.206-.547.6-.885 1.082-1.123.926-.455 1.925-.594 2.937-.574 1.438.029 2.875.123 4.312.184.646.027 1.289.055 1.9.301.914.367 1.397 1.062 1.42 2.021.018.781-.094 1.564-.12 2.348-.058 1.67-.13 3.338-.126 5.006.002.527.224 1.057.363 1.578.04.148.139.281.229.41.344.498.464.494.957.182.916-.58 1.592-1.373 2.212-2.252a25.256 25.256 0 0 0 2.209-3.734c.619-1.307 1.243-2.613 1.825-3.939.289-.662.735-.941 1.451-.938 2.696.018 5.394.016 8.09.004.866-.004 1.485.736 1.288 1.586-.206.896-.61 1.699-1.086 2.469-1.339 2.172-2.824 4.238-4.52 6.15-.596.672-1.132 1.389-1.408 2.262-.3.951-.109 1.785.599 2.492 1.255 1.25 2.542 2.469 3.764 3.752.722.762 1.361 1.604 1.995 2.441.408.535.668 1.152.594 1.855-.08.783-.479 1.189-1.264 1.23-1.519.08-3.042.139-4.562.207-.886.041-1.77.088-2.655.125-.707.029-1.337-.229-1.937-.572-.954-.547-1.751-1.291-2.535-2.049-.812-.783-1.565-1.615-2.171-2.576-.384-.609-1.455-.941-2.129-.689-.522.195-.771.619-.824 1.148-.088.871-.136 1.748-.218 2.619-.1 1.074-.773 1.74-1.843 1.885-2.107.281-4.198.176-6.277-.23-1.525-.301-2.843-1.035-4.099-1.926-1.719-1.215-3.18-2.701-4.548-4.277-.709-.82-1.331-1.721-1.942-2.621-1.947-2.861-3.789-5.789-5.402-8.855-.773-1.469-1.547-2.939-1.955-4.564-.092-.365-.14-.742-.214-1.113-.036-.184.032-.32.2-.373.438-.135.876-.338 1.321-.355 1.43-.061 2.86-.053 4.29-.062.618-.002 1.237.061 1.854.027.829-.043 1.383.34 1.741 1.033.357.695.665 1.418 1.005 2.123 1.218 2.533 2.537 5.006 4.251 7.244.254.33.631.592.999.803.438.252.823.117 1.092-.312a3.273 3.273 0 0 0 .474-1.684c.026-1.689.076-3.379.058-5.066-.021-1.742-.886-2.902-2.524-3.529-.042-.019-.084-.041-.153-.072z" fill="#FFF" fill-rule="evenodd"/>
</svg>
