<svg xmlns="http://www.w3.org/2000/svg" viewBox="0 0 3023.627 6803.146">
  <defs>
    <clipPath id="a">
      <path d="M0 5102.362h2267.717V0H0z"/>
    </clipPath>
  </defs>
  <path d="M0-.002v3023.62L3023.623-.002z" fill="#1f1b6d"/>
  <path d="M0 3401.572v3401.574h3023.623V377.95z" fill="#cb2026"/>
  <g clip-path="url(#a)" transform="matrix(1.33333 0 0 -1.33333 0 6803.147)">
    <path d="M1433.645 2800.262c.253 6.936.046 13.938-.72 20.976-.766 7.037-2.126 13.485-4.047 19.244-1.92 5.76-4.338 10.106-7.287 13.074-6.98 7.025-14.885 11.95-23.686 14.74-8.866 2.79-17.676 3.213-26.46 1.171-8.783-1.976-16.59-6.389-23.383-13.139-6.926-6.88-12.971-15.835-18.103-26.896-5.166-11.095-7.704-23.315-7.583-36.695-.004-1.447.416-3.322 1.263-5.69.88-2.404 2.025-4.282 3.467-5.732 2.063-2.078 3.9-3.333 5.51-3.832a14.325 14.325 0 0 1 5.192-.477c1.81.158 3.09.121 3.813-.078 4.236-1.362 7.292-2.062 9.165-2.167 1.873-.105 3.651.678 5.3 2.316 2.506 2.491 4.33 7.12 5.436 13.855 1.141 6.768 2.308 12.057 3.471 15.834 1.196 3.81 4.334 8.237 9.38 13.25 3.397 3.374 6.094 4.09 8.028 2.143 1.376-1.385 2.157-3.623 2.345-6.713.211-5.49.097-10.258-.31-14.398-.44-4.108-1.415-10.712-2.925-19.944-7.292-8.096-11.485-13.902-12.55-17.317-1.128-3.415-.217-6.639 2.764-9.64 3.833-3.859 7.67-6.666 11.478-8.454 3.742-1.787 8.733-3.578 14.939-5.473 7.128-1.766 11.995-1.387 14.6 1.202 1.022 1.015 1.882 2.59 2.613 4.757.73 2.168 1.722 3.874 2.942 5.086 2.078 2.064 4.313 1.926 6.704-.482 2.523-2.934 3.92-7.574 4.13-13.984.275-6.412-.436-12.82-2.068-19.225-1.632-6.404-3.685-10.803-6.158-13.26-3.397-3.375-6.46-4.91-9.155-4.638-2.726.305-5.976 1.86-9.78 4.634-3.838 2.806-7.745 3.97-11.791 3.49-4.012-.513-7.106-1.817-9.315-4.013-4.42-4.39-7.402-11.416-8.912-21.043-.604-3.547-.45-6.474.43-8.745.88-2.27 3.599-5.666 8.12-10.217 5.997-6.036 12.59-9.903 19.883-11.637 7.292-1.733 14.49-1.855 21.564-.399 7.105 1.423 13.49 3.638 19.154 6.643 5.697 2.973 10.079 6.016 13.179 9.096 6.43 6.39 11.884 15.083 16.325 25.982 4.407 10.867 7.339 22.495 8.793 34.817 1.388 12.323 1.063 23.731-1.007 34.191-2.07 10.461-5.987 18.56-11.688 24.3-4.686 4.716-10.164 8.251-16.403 10.638-6.237 2.322-11.791 3.294-16.657 2.85m-134.35-209.424c-.136 8.186-1.288 17.788-3.422 28.71-2.133 10.986-4.83 21.35-8.051 31.058-3.288 9.71-6.585 16.787-9.924 21.203-2.127 3.13-4.287 5.833-6.548 8.108-2.654 2.672-4.951 3.928-6.892 3.77-.79-.259-1.316-.52-1.546-.75-1.583-1.573-1.89-4.76-.854-9.498 8.137-34.905 18.272-62.19 30.304-81.954.785-1.317 1.93-2.669 3.405-4.153 1.148-1.154 1.935-1.486 2.463-.96.692.687 1.025 2.132 1.066 4.466m-52.844 135.118c2.29 6.994 5.068 12.114 8.367 15.39.989.983 3.948 1.17 8.877.497 4.928-.608 11.265-3.094 19.042-7.426 7.744-4.299 16.236-11.065 25.443-20.333 5.374-5.409 10.81-11.804 16.309-19.12 8.567-13.967 15.224-28.65 19.973-44.116 4.749-15.466 7.033-30.957 6.85-46.473-.247-15.515-3.353-30.133-9.381-43.855-1.988-4.858-4.5-8.795-7.501-11.776-2.968-2.949-6.525-5.04-10.638-6.244-7.733-2.31-16.382-3.43-25.981-3.334-9.6.031-17.188 1.14-22.771 3.262-5.942 2.29-11.256 5.725-15.974 10.474-3.965 3.991-8.286 9.527-12.964 16.611-1.02-.49-2.01-1.21-2.933-2.127-2.74-3.246-4.194-6.002-4.333-8.303a1015.868 1015.868 0 0 1 29.946-60.618c1.569-2.898 2.317-5.3 2.376-7.273.027-1.939-1.164-4.105-3.605-6.53-2.342-2.326-4.878-3.862-7.641-4.709-2.764-.845-6.45-1.425-11.052-1.87-4.637-.412-7.564-.764-8.78-1.056-8.653-1.78-15.944.282-21.841 6.22-2.13 2.142-4.42 5.897-6.866 11.264a1389.736 1389.736 0 0 0-9.3 21.102c-2.97 6.946-5.971 13.925-8.94 20.937-1.97.664-7.968 6.108-18.06 16.266-1.866 1.88-3.24 4.185-4.053 6.916-.846 2.764-.871 4.967-.11 6.707.927 1.97 1.889 4.497 2.885 7.518 1.029 2.99 1.792 5.123 2.355 6.271-2.117 5.892-4.693 12.64-7.66 20.242-2.933 7.637-5.996 15.603-9.125 23.896-3.096 8.262-5.475 14.746-7.104 19.42-2.735 7.766-1.498 14.238 3.648 19.35 1.484 1.474 3.13 2.323 5.005 2.547 1.84.257 4.438.282 7.824.172 3.352-.143 5.917-.019 7.693.37 1.086.357 2.567.714 4.442 1.202 1.875.486 3.52.744 4.966.805 1.448.061 2.926-.175 4.436-.77 1.543-.565 3.085-1.655 4.69-3.27 3.375-3.398 5.6-6.56 6.675-9.49 1.399-4.574 3.712-11.058 6.873-19.385 3.194-8.36 5.184-13.2 6.034-14.583 2.209 2.195 3.334 4.361 3.34 6.465a123.86 123.86 0 0 0-5.876 22.21c-1.29 7.695-2.054 15.127-2.195 22.196-.207 7.068-.12 13.708.163 19.888.283 6.18.53 11.34.74 15.415 1.377 8.51 3.367 14.025 5.94 16.582 1.714 1.703 4.38 2.78 7.932 3.162 3.585.35 10.882.13 21.86-.696m-117.99-302.805c.026-2.334-.307-3.845-.967-4.5-.561-.557-1.414-.225-2.594.962-1.443 1.451-2.556 2.835-3.307 4.186-12.36 20.355-22.363 47.575-30.14 81.723-1.168 4.87-.96 8.09.656 9.696.264.261.758.49 1.547.75 1.875.224 4.172-1.033 6.892-3.77 2.227-2.242 4.388-4.879 6.515-8.075 3.338-4.416 6.668-11.462 9.957-21.17 3.289-9.643 5.984-20.007 8.15-31.026 2.133-10.987 3.22-20.59 3.291-28.776m-52.649 134.921c-11.437.892-18.832 1.146-22.219.796-3.387-.35-5.955-1.395-7.703-3.13-1.682-1.672-3.005-4.297-4.036-7.878-.998-3.612-1.566-6.536-1.739-8.804-.774-15.579-.917-29.287-.33-41.156.584-11.869 3.562-26.212 8.931-43.028 5.37-16.816 14.22-34.497 26.617-53.045 4.416-6.82 8.77-12.39 12.997-16.645 4.816-4.848 10.13-8.349 15.91-10.472 5.58-2.254 13.203-3.397 22.77-3.46 9.598-.032 18.215 1.123 25.947 3.498 4.707 1.53 8.428 3.653 11.1 6.307 2.407 2.392 4.787 6.33 7.106 11.78 4.604 10.536 7.533 21.507 8.72 32.843 1.221 11.371.897 22.844-.873 34.455a162.873 162.873 0 0 1-9.125 34.251c-4.27 11.224-9.69 22.155-16.198 32.86-5.53 7.35-10.968 13.744-16.34 19.153-9.142 9.202-17.569 15.903-25.346 20.235-7.776 4.332-14.113 6.818-19.075 7.46-4.929.672-7.888.485-8.877-.498-3.694-3.67-6.44-8.822-8.237-15.522m-100.657-140.172c-1.583-1.572-2.378-3.41-2.385-5.514.906-14.632 3.49-28.776 7.784-42.399 4.23-13.624 8.794-25.079 13.727-34.398 4.868-9.319 8.661-15.315 11.315-17.986 5.997-6.036 10.923-7.17 14.75-3.369 2.44 2.425 4.655 6.132 6.644 11.19 1.99 5.054 3.252 9.39 3.921 13.004.676 5.717 2.63 10.15 5.731 13.23 3.067 3.046 6.422 3.758 10.066 2.136.295-.1 1.543-.367 3.646-.834 2.135-.5 4.14-1.198 5.976-2.19 1.806-.959 3.708-2.412 5.608-4.325 2.915-2.934 5.333-7.348 7.287-13.206 1.953-5.857 2.695-10.1 2.26-12.63-1.172-6.21-3.036-13.5-5.727-21.875-2.69-8.374-4.218-13.43-4.618-15.206-1.434-5.813-5.003-11.587-10.74-17.289-4.948-4.914-10.71-7.953-17.257-9.147-6.545-1.13-16.639-1.656-30.248-1.545-9.828.328-19.084 4.894-27.832 13.701-7.11 7.156-13.723 15.528-19.872 25.147a206.268 206.268 0 0 0-15.975 30.46c-4.502 10.666-8.082 21.46-10.677 32.448-2.593 10.99-3.94 21.315-4.105 31.046-.25 14.037 1.897 27.51 6.312 40.348 4.447 12.872 8.781 21.372 13.003 25.565 5.771 5.735 15.713 9.976 29.858 12.756 3.454.745 7.827.895 13.02.352 5.191-.477 9.917-2.859 14.144-7.113 4.784-4.816 9.268-10.913 13.483-18.388 4.25-7.443 6.403-12.514 6.493-15.242.121-3.222-1.573-8.312-4.98-15.303-3.444-7.023-6.352-11.682-8.693-14.008-2.177-2.163-5.73-3.466-10.73-3.975-4.966-.477-8.874.686-11.757 3.588-1.147 1.155-2.747 4.35-4.703 9.55a42.628 42.628 0 0 1-4.729 11.421m-138.628-231.303c.864-7.267-.964-13.146-5.548-17.7-3.195-2.06-5.956-1.92-8.282.421-2.85 2.87-4.806 8.201-5.898 15.963-1.06 7.795-1.099 15.685-.087 23.702 1.078 8.018 2.971 13.698 5.743 17.11 2.743-5.467 7.434-18.632 14.072-39.496m43.11 33.785c-2.092 4.017-4.345 8.791-6.726 14.29a415.979 415.979 0 0 0-7.142 17.477c-2.347 6.123-4.107 10.665-5.346 13.694-.522 1.251.734 3.416 3.834 6.496 5.562 2.052 9.966 1.447 13.177-1.786 2.785-2.803 4.676-7.214 5.676-13.233s1.11-12.463.43-19.299c-.68-6.835-1.98-12.715-3.904-17.639m47.016-37.828c3.1 3.081 5.325 9.681 6.74 19.867 1.38 10.154 1.681 21.723.934 34.613s-2.58 24.827-5.504 35.816c-2.955 11.023-6.94 19.057-11.986 24.136-9.403 9.465-19.377 15.415-29.922 17.85-10.577 2.467-20.109 2.63-28.63.456-8.489-2.208-14.646-5.048-18.438-8.553-.423 1.217-.912 2.501-1.4 3.851a38.317 38.317 0 0 1-1.598 4.048c-.588 1.317-1.242 2.372-2.028 3.163-2.982 3.001-6.925 3.671-11.893 2.011-9.413-3.125-15.469-5.21-18.1-6.253-2.635-1.043-4.875-2.482-6.722-4.317-3.166-3.146-3.967-6.824-2.436-11.07.586-1.579 1.793-4.64 3.652-9.216 1.793-4.576 3.292-8.46 4.466-11.686 1.238-3.224 2.573-7.075 4.038-11.453-.46-.063-1.873.171-4.239.64-2.398.434-4.6.672-6.572.612-2.005-.026-3.619-.645-4.773-1.792-7.288-7.24-12.779-17.546-16.34-30.848-3.594-13.335-5.153-27.596-4.644-42.752.476-15.19 2.928-29.596 7.386-43.319 4.46-13.657 10.54-24.393 18.304-32.21 4.554-4.585 8.26-7.522 11.083-8.715 2.822-1.258 8.538-2.723 17.211-4.396 10.221-.657 17.063.766 20.56 4.24 2.44 2.424 4.954 7.15 7.574 14.144 2.62 7.058 4.12 13.135 4.53 18.328 1.665-3.786 3.035-6.946 4.177-9.482a52.722 52.722 0 0 1 3.561-6.948c1.275-2.074 2.945-4.15 5.01-6.229 3.505-3.529 6.457-5.577 8.822-6.176 2.365-.6 5.03.082 7.93 1.98 2.14 1.537 3.853 2.451 5.004 2.678 1.184.193 3.125.418 5.82.606 2.072.158 4.078.315 6.018.408 1.94.157 3.815.58 5.625 1.33 1.811.75 3.788 2.19 5.932 4.32 2.308 2.292 3.695 4.326 4.195 6.133.5 1.806.112 4.174-1.193 7.137-13.456 26.672-20.835 42.146-22.103 46.39 2.038-.006 5.488-.379 10.351-1.183 4.895-.838 8.872-1.213 11.995-1.19 3.123.088 5.624 1.066 7.603 3.031m-197.917-156.518c-.07 8.185-1.158 17.788-3.29 28.774-2.168 11.02-4.863 21.384-8.15 31.027-3.29 9.708-6.62 16.754-9.958 21.17-2.126 3.196-4.287 5.833-6.515 8.075-2.72 2.738-5.017 3.994-6.89 3.77-.79-.26-1.285-.489-1.549-.75-1.616-1.606-1.824-4.827-.657-9.696 7.778-34.148 17.781-61.367 30.141-81.724.752-1.35 1.865-2.734 3.306-4.185 1.18-1.188 2.033-1.519 2.594-.962.66.655.994 2.167.968 4.501m-52.648 134.92c1.797 6.7 4.542 11.852 8.236 15.522.99.983 3.948 1.17 8.878.496 4.961-.64 11.297-3.127 19.074-7.459 7.777-4.332 16.203-11.032 25.346-20.234 5.373-5.409 10.81-11.804 16.34-19.152 6.507-10.705 11.928-21.638 16.198-32.862a162.901 162.901 0 0 0 9.125-34.25c1.77-11.61 2.094-23.085.874-34.455-1.188-11.337-4.117-22.307-8.72-32.845-2.32-5.449-4.7-9.385-7.107-11.778-2.672-2.653-6.394-4.778-11.099-6.308-7.733-2.375-16.35-3.53-25.949-3.499-9.566.065-17.188 1.207-22.77 3.461-5.778 2.123-11.093 5.625-15.909 10.473-4.227 4.255-8.58 9.825-12.996 16.644-12.398 18.548-21.249 36.23-26.618 53.047-5.369 16.815-8.347 31.158-8.932 43.027-.586 11.87-.442 25.577.332 41.156.171 2.268.74 5.192 1.738 8.805 1.031 3.58 2.354 6.205 4.036 7.876 1.748 1.736 4.316 2.78 7.703 3.131 3.387.35 10.783.095 22.22-.796m-85.826-148.636c1.236-3.816 2.004-10.328 2.204-19.5.266-9.173-1.467-16.334-5.133-21.549-8.317 19.982-12.684 31.896-13.065 35.776.403 2.76 2.024 5.615 4.926 8.498 1.32 1.311 2.407 2.063 3.196 2.258 2.14 1.012 3.915.81 5.291-.576.917-.924 1.767-2.57 2.581-4.907m32.233 35.562c-5.209 5.244-10.292 8.975-15.249 11.194-4.956 2.22-11.69 3.918-20.2 5.162-17.909 2.326-34.2-3.768-48.778-18.249-6.333-6.29-11.78-13.21-16.242-20.723-4.495-7.547-7.707-14.472-9.7-20.777-.864-2.759-1.004-5.454-.323-8.185.682-2.665 1.4-4.442 2.251-5.3 1.737-1.748 4.92-3.698 9.482-5.784 4.628-2.086 8.141-3.445 10.605-4.078.93-7.005 3.43-16.448 7.468-28.36a714.903 714.903 0 0 1 12.902-35.152 1984.877 1984.877 0 0 1 15.818-38.349c5.937-14.09 9.004-21.332 9.167-21.76.75-1.876 2.386-4.05 4.876-6.557 3.768-3.793 7.642-5.318 11.622-4.575 2.5.386 5.132 1.101 7.8 2.177 2.665 1.076 5.231 1.79 7.6 2.178 2.565.386 5.03.345 7.396.01 2.398-.372 4.535-.41 6.41-.122 1.316.26 2.302.454 3.026.582a7.706 7.706 0 0 1 1.942.75c.56.36 1.417 1.081 2.571 2.227 1.287 1.278 1.882 2.525 1.755 3.71-.095 1.216-.613 3.452-1.589 6.743-2.446 6.025-7.505 16.922-15.277 32.727-7.806 15.771-13.058 28.248-15.756 37.362 3.971-1.887 9.49-3.482 16.52-4.689 6.998-1.24 12.162-.17 15.56 3.204 1.945 1.932 3.542 7.714 4.79 17.341 1.314 9.627 2.005 20.013 2.14 31.157.168 11.11-.266 19.134-1.203 24.1-3.354 19.735-9.159 33.758-17.384 42.036m-65.938-239.234c3.961-5.239 6.41-10.21 7.281-14.98.938-4.77-.16-8.679-3.16-11.66-2.903-2.883-14.488-6.922-34.82-12.115-3.718-.94-7.363.353-10.967 3.981-.917.923-3.469 4.942-7.653 12.056-15.885 27.994-33.445 66.382-52.68 115.163-.56-.556-1.682-1.539-3.363-2.947-1.648-1.375-2.934-2.52-3.759-3.34-1.748-1.737-3.002-3.377-3.763-4.92 3.608-12.404 7.123-23.264 10.478-32.579 3.356-9.313 7.4-18.926 12.036-28.869 4.635-9.877 10.384-21.138 17.214-33.75 6.862-12.58 15.654-28.159 26.442-46.669 1.47-2.536 2.187-4.709 2.18-6.55.027-1.807-.965-3.71-2.944-5.676-2.012-1.999-6.524-4.647-13.537-8.076-7.013-3.363-11.523-5.156-13.627-5.413-2.86.042-6.999 1.174-12.317 3.361-5.286 2.154-9.517 4.831-12.598 7.931-3.079 3.1-5.435 6.527-7.099 10.313a3232.538 3232.538 0 0 0-19.03 41.384c-5.678 12.642-11.062 24.855-16.152 36.772a1526.228 1526.228 0 0 0-14.513 35.19c-4.955 2.81-10.79 7.628-17.573 14.456-3.113 3.132-4.68 6.031-4.639 8.628.01 2.563.872 5.322 2.557 8.176 3.507 6.63 13.802 18.43 30.886 35.403 8.971 8.912 17.71 17.07 26.15 24.47 8.438 7.402 14.8 12.28 19.08 14.632 2.174 1.242 4.115 1.663 5.691 1.197 1.642-.464 3.94-1.72 6.891-3.704 2.953-1.98 5.48-3.403 7.58-4.265 4.4-1.659 7.19-2.752 8.405-3.249 1.247-.53 2.887-1.85 4.951-3.928 1.573-1.583 2.751-2.968 3.537-4.153.785-1.187 1.406-2.274 1.797-3.196.425-.954.717-1.974 1.01-3.059.26-1.054.52-2.04.746-2.995 18.483-57.655 38.265-99.995 59.282-127.02M1557.266 2453.615a42.645 42.645 0 0 0 4.752-11.413c1.966-5.196 3.573-8.387 4.723-9.539 2.888-2.896 6.799-4.052 11.763-3.565 4.997.52 8.549 1.83 10.722 3.997 2.337 2.332 5.235 6.996 8.663 14.027 3.395 6.997 5.077 12.091 4.949 15.312-.094 2.73-2.258 7.794-6.522 15.23-4.232 7.466-8.728 13.554-13.522 18.36-4.235 4.244-8.966 6.617-14.16 7.084-5.192.532-9.564.373-13.016-.379-14.14-2.809-24.074-7.07-29.833-12.816-4.213-4.202-8.53-12.71-12.951-25.592-4.387-12.849-6.508-26.324-6.23-40.36.185-9.732 1.554-20.055 4.17-31.038 2.616-10.983 6.219-21.77 10.742-32.426a206.248 206.248 0 0 1 16.038-30.428c6.168-9.606 12.798-17.965 19.923-25.106 8.766-8.789 18.03-13.336 27.859-13.645 13.61-.082 23.702.464 30.245 1.607 6.543 1.208 12.3 4.258 17.238 9.183 5.726 5.713 9.284 11.494 10.705 17.311.396 1.774 1.915 6.835 4.588 15.215 2.673 8.378 4.522 15.674 5.68 21.886.43 2.531-.32 6.772-2.285 12.626-1.965 5.854-4.391 10.262-7.314 13.192-1.905 1.908-3.81 3.357-5.616 4.312-1.84.99-3.844 1.682-5.98 2.178-2.103.463-3.352.727-3.648.826-3.647 1.615-7.001.897-10.062-2.157-3.094-3.087-5.04-7.522-5.703-13.24-.662-3.617-1.917-7.955-3.896-13.014-1.978-5.06-4.185-8.773-6.621-11.2-3.818-3.81-8.748-2.687-14.755 3.337-2.661 2.666-6.466 8.653-11.352 17.963-4.953 9.31-9.541 20.754-13.798 34.37-4.322 13.614-6.934 27.753-7.87 42.382.003 2.104.794 3.944 2.374 5.52m-17.25-232.326c2.396-3.915 2.062-7.4-1-10.453-2.27-2.265-6.282-4.035-12.07-5.278-9.272-1.63-16.208-1.985-20.81-1.125-4.634.894-9.266 3.628-13.862 8.237-.624.625-2.921 3.98-6.891 10.067-6.068 10.56-10.66 19.112-13.775 25.724-3.148 6.578-6.196 13.716-9.211 21.28-2.983 7.597-6.293 15.523-9.931 23.846-3.672 8.288-8.492 18.123-14.494 29.603-1.843-1.97-3.95-4.992-6.322-9.13-2.34-4.107-4.02-6.702-5.14-7.818-1.94-1.938-3.847-2-5.685-.158-2.463 2.074-7.127 5.5-14.058 10.208-6.93 4.775-11.364 8.167-13.334 10.141-2.594 2.601-3.05 6.086-1.4 10.423.692 1.873 3.689 6.504 8.99 13.895 5.303 7.39 11.427 15.403 18.374 23.974 6.946 8.572 13.004 15.402 18.072 20.457 2.205 2.201 4.476 3.81 6.81 4.76 2.27.95 5.59 1.44 9.93 1.433 4.339-.005 10.618-.638 18.769-1.897 4.042-.892 7.098-2.376 9.265-4.548 1.772-1.777 2.952-4.803 3.57-9.044.554-5.162-.767-9.369-3.991-12.585-.66-.658-1.91-1.774-3.752-3.415-1.876-1.608-3.325-2.92-4.345-3.94-2.567-2.56-4.674-5.319-6.321-8.275 1.936-1.943 3.546-3.292 4.794-4.017 1.28-.758 2.365-1.58 3.284-2.502 2.2-2.206 3.775-4.706 4.724-7.502 25.013-56.803 44.95-97.59 59.81-122.36m-195.666 22.76c2.703 5.584 5.864 10.181 9.484 13.794.988.984 3.29 2.56 6.91 4.724 3.619 2.166 6.449 4.266 8.489 6.302 1.909 1.904 2.832 4.204 2.803 6.933-.03 2.728-1.243 5.326-3.738 7.828-.854.855-4.797 2.635-11.893 5.34-7.032 2.705-12.553 4.486-16.53 5.378-2.463.431-4.963-.09-7.43-1.568-7.534-4.889-14.05-10.075-19.58-15.59-5.134-5.123-10.896-12.577-17.252-22.267-6.357-9.69-10.64-17.115-12.815-22.24-.956-2.07-1.124-4.403-.47-6.968.655-2.565 1.67-4.572 3.018-5.92 2.955-2.963 9.492-6.752 19.513-11.268 4.547-18.119 8.474-32.324 11.814-42.585-1.68-2.398-3.063-5.092-4.151-8.082-1.09-3.713.023-7.199 3.274-10.458 2.134-2.139 5.616-4.576 10.445-7.31 6.85-15.558 12.227-27.53 16.129-35.917 3.967-8.388 7.379-14.046 10.3-16.976 3.383-3.39 8.508-6.026 15.31-7.908 6.409-1.422 13.705-2.483 21.923-3.15 8.184-.7 13.642.344 16.407 3.102 5.233 5.221 12.477 14.68 21.698 28.41 10.373 14.482 15.778 24.732 16.18 30.715.199 1.906-.16 3.847-1.078 5.82-.853 1.973-2.1 4.145-3.74 6.448-1.608 2.335-2.56 3.685-2.822 4.08-.098.164-.46.986-1.082 2.533a69.346 69.346 0 0 1-2 4.111 15.073 15.073 0 0 1-2.43 3.225c-2.691 2.698-5.648 3.951-8.968 3.725-3.288-.193-6.15-1.47-8.552-3.869-1.613-1.608-4.971-5.878-10.108-12.84-5.137-6.963-10.57-13.3-16.362-19.08-8.298 14.836-12.755 26.151-13.403 33.975 5.665 8.804 12.612 17.308 20.939 25.615 4.805 4.794 6.753 11.136 5.777 19.093-.161 2.531-1.474 5.031-3.936 7.5-1.445 1.447-3.152 2.764-5.123 3.95-4.894 3.326-8.41 5.533-10.446 6.588-2.07 1.088-4.206 1.058-6.377-.058-.856-.393-2.698-1.969-5.463-4.726-1.777-1.774-4.411-4.53-7.9-8.275-3.522-3.71-5.86-6.173-6.978-7.29-6.358 15.196-9.632 26.903-9.786 35.155m-12.71-230.624c2.395-3.915 2.062-7.398-1-10.452-2.27-2.265-6.283-4.036-12.07-5.278-9.273-1.632-16.21-1.984-20.811-1.124-4.634.893-9.265 3.627-13.862 8.235-.623.625-2.92 3.982-6.891 10.068-6.068 10.56-10.66 19.112-13.775 25.723-3.148 6.58-6.195 13.716-9.211 21.281-2.982 7.597-6.292 15.524-9.931 23.845-3.672 8.288-8.492 18.123-14.493 29.604-1.844-1.97-3.951-4.992-6.323-9.13-2.34-4.107-4.02-6.702-5.138-7.818-1.942-1.938-3.848-2-5.687-.158-2.463 2.075-7.127 5.498-14.058 10.208-6.93 4.776-11.363 8.166-13.333 10.141-2.595 2.601-3.05 6.086-1.401 10.423.692 1.873 3.69 6.505 8.99 13.894 5.303 7.39 11.428 15.404 18.374 23.975 6.947 8.571 13.004 15.401 18.073 20.458 2.205 2.2 4.476 3.808 6.81 4.758 2.27.95 5.59 1.44 9.93 1.434 4.339-.005 10.617-.637 18.768-1.897 4.043-.893 7.098-2.376 9.265-4.548 1.773-1.777 2.953-4.803 3.572-9.044.553-5.162-.768-9.368-3.993-12.586-.658-.656-1.91-1.772-3.752-3.414-1.876-1.608-3.324-2.922-4.345-3.939-2.566-2.56-4.674-5.32-6.321-8.277 1.937-1.94 3.546-3.292 4.794-4.016 1.282-.758 2.365-1.58 3.285-2.502 2.199-2.206 3.774-4.706 4.723-7.5 25.013-56.804 44.95-97.59 59.81-122.364m-226.647 9.912c-2.56 4.671-4.66 7.83-6.301 9.475-2.561 2.568-4.827 4.05-6.8 4.446-1.971.331-4.371.105-7.166-.713-12.727-3.765-20.357-6.912-22.924-9.473-3.522-3.513-4.382-8.049-2.614-13.573 3.734-10.853 8.977-24.009 15.829-39.5 6.818-15.525 14.72-32.399 23.738-50.655 8.95-18.255 18.396-36.807 28.3-55.689 2.822-4.606 5.513-8.225 8.107-10.825 2.068-2.074 4.302-3.194 6.735-3.46 2.399-.233 6.048-.204 10.848.118 4.799.323 8.745.186 11.8-.44 5.686-1.422 10.323-.409 13.844 3.104 1.777 1.773 2.7 3.68 2.769 5.65.133 1.973-.29 4.44-1.207 7.4-1.767 7.168-3.468 14.007-5.005 20.42a1425.313 1425.313 0 0 0-4.808 20.353c-1.601 7.136-3.301 15.554-5.03 25.253a849.081 849.081 0 0 0-4.96 30.381c1.606-3.32 4.13-8.946 7.507-16.873 3.41-7.894 6.49-14.866 9.212-20.886 2.72-6.019 5.442-11.51 8.198-16.578 2.788-5.033 5.182-8.619 7.317-10.759 4.892-4.903 11.433-5.799 19.556-2.62.855.327 2.894 1.048 6.216 2.128 3.322 1.081 5.953 2.13 7.926 3.18 1.974 1.05 3.85 2.461 5.594 4.2 7.307 7.29 6.727 16.561-1.741 27.813-7.55 9.872-14.505 20.531-20.835 31.946-6.298 11.447-12.068 23.026-17.248 34.801a643.332 643.332 0 0 0-14.388 35.16c-4.39 11.642-8.323 22.1-11.83 31.342-2.293 5.92-3.866 9.34-4.753 10.23-2.2 2.204-5.19 3.622-9.035 4.251-3.878.662-11.077.704-21.663.125-4.668-.257-7.791-.483-9.468-.777-1.644-.26-3.19-1.147-4.64-2.59-1.941-1.938-2.536-5.159-1.72-9.598 1.692-14.137 3.45-27.88 5.308-41.197 1.824-13.349 3.65-25.514 5.477-36.43 1.795-10.883 3.625-20.09 5.456-27.587-3.903 7.138-7.15 13.618-9.805 19.44-2.59 5.822-5.703 13.42-9.406 22.793-3.637 9.373-5.801 14.767-6.39 16.214m-93.271-113.922c-1.58-1.576-2.371-3.416-2.373-5.52.935-14.63 3.547-28.768 7.87-42.383 4.256-13.615 8.844-25.06 13.797-34.37 4.886-9.308 8.692-15.297 11.352-17.963 6.008-6.022 10.938-7.146 14.755-3.338 2.436 2.43 4.644 6.142 6.622 11.202 1.979 5.06 3.233 9.398 3.895 13.013.665 5.72 2.61 10.155 5.704 13.241 3.06 3.053 6.415 3.772 10.06 2.157.297-.099 1.546-.364 3.649-.826 2.136-.496 4.14-1.189 5.98-2.177 1.807-.956 3.712-2.404 5.616-4.314 2.923-2.929 5.349-7.337 7.315-13.19 1.965-5.855 2.716-10.096 2.285-12.627-1.158-6.212-3.007-13.507-5.681-21.887-2.673-8.379-4.191-13.439-4.588-15.214-1.421-5.817-4.978-11.598-10.705-17.31-4.937-4.926-10.694-7.976-17.237-9.185-6.543-1.14-16.636-1.688-30.245-1.606-9.83.308-19.093 4.856-27.86 13.644-7.124 7.143-13.755 15.5-19.923 25.108a206.326 206.326 0 0 0-16.037 30.427c-4.524 10.656-8.126 21.443-10.743 32.425-2.616 10.984-3.984 21.308-4.17 31.038-.278 14.037 1.843 27.513 6.23 40.361 4.422 12.881 8.739 21.39 12.95 25.593 5.76 5.745 15.694 10.005 29.834 12.816 3.452.751 7.824.91 13.018.378 5.193-.467 9.924-2.839 14.159-7.085 4.793-4.806 9.29-10.893 13.52-18.36 4.266-7.435 6.429-12.499 6.524-15.228.128-3.222-1.555-8.315-4.95-15.313-3.427-7.03-6.326-11.696-8.662-14.026-2.173-2.168-5.725-3.477-10.722-3.998-4.965-.487-8.875.67-11.764 3.566-1.15 1.151-2.757 4.342-4.722 9.54a42.674 42.674 0 0 1-4.753 11.411m-99.691-122.69c1.244-3.816 2.025-10.326 2.244-19.498.284-9.172-1.434-16.336-5.09-21.558-8.357 19.964-12.748 31.87-13.137 35.75.398 2.76 2.012 5.618 4.908 8.507 1.317 1.314 2.403 2.07 3.192 2.264 2.138 1.017 3.913.817 5.292-.564.919-.922 1.772-2.567 2.59-4.902m32.162 35.628c-5.22 5.233-10.311 8.954-15.273 11.162-4.961 2.21-11.697 3.894-20.21 5.12-17.913 2.291-34.193-3.837-48.741-18.348-6.32-6.304-11.752-13.234-16.2-20.756-4.48-7.555-7.676-14.487-9.657-20.797-.858-2.76-.992-5.455-.305-8.185.687-2.664 1.408-4.439 2.26-5.295 1.74-1.745 4.928-3.688 9.494-5.764 4.633-2.077 8.148-3.43 10.613-4.058.945-7.003 3.465-16.44 7.526-28.345a715.629 715.629 0 0 1 12.975-35.124 1975.586 1975.586 0 0 1 15.896-38.318c5.966-14.077 9.047-21.312 9.21-21.74.754-1.875 2.395-4.046 4.89-6.548 3.776-3.785 7.653-5.302 11.632-4.55 2.499.391 5.13 1.111 7.794 2.193 2.664 1.081 5.229 1.8 7.596 2.192 2.565.392 5.03.356 7.396.024 2.4-.365 4.536-.4 6.41-.106 1.316.261 2.303.457 3.026.588.69.163 1.348.426 1.94.753.559.361 1.415 1.084 2.567 2.232 1.284 1.281 1.877 2.53 1.747 3.713-.097 1.216-.62 3.452-1.603 6.74-2.458 6.02-7.54 16.907-15.344 32.696-7.837 15.756-13.114 28.221-15.832 37.33 3.976-1.878 9.497-3.463 16.53-4.655 7-1.225 12.163-.147 15.553 3.235 1.942 1.937 3.527 7.722 4.755 17.351 1.294 9.63 1.964 20.017 2.077 31.162.145 11.111-.306 19.132-1.252 24.097-3.395 19.728-9.23 33.74-17.47 42.001M786 1687.077c.156-8.252 3.429-19.958 9.787-35.155 1.12 1.118 3.456 3.58 6.978 7.291 3.489 3.743 6.123 6.501 7.9 8.274 2.765 2.758 4.608 4.333 5.463 4.727 2.17 1.115 4.307 1.145 6.377.057 2.037-1.055 5.552-3.26 10.446-6.587 1.97-1.186 3.678-2.504 5.123-3.95 2.462-2.47 3.774-4.97 3.936-7.5.976-7.958-.971-14.3-5.777-19.094-8.327-8.306-15.274-16.81-20.94-25.615.649-7.824 5.106-19.139 13.405-33.975 5.793 5.78 11.224 12.118 16.36 19.08 5.138 6.962 8.496 11.232 10.109 12.841 2.403 2.397 5.264 3.675 8.552 3.868 3.32.226 6.277-1.026 8.969-3.725.92-.922 1.74-2.008 2.429-3.225a69.044 69.044 0 0 0 2-4.11c.623-1.547.984-2.369 1.082-2.534.263-.395 1.214-1.744 2.822-4.079 1.64-2.304 2.888-4.476 3.74-6.449.918-1.973 1.277-3.913 1.077-5.82-.402-5.982-5.805-16.23-16.178-30.716-9.222-13.729-16.465-23.188-21.7-28.409-2.763-2.758-8.222-3.803-16.406-3.102-8.218.668-15.515 1.728-21.923 3.15-6.802 1.882-11.927 4.52-15.31 7.908-2.921 2.93-6.333 8.588-10.3 16.976-3.902 8.387-9.278 20.36-16.13 35.917-4.828 2.734-8.31 5.172-10.444 7.311-3.25 3.258-4.364 6.744-3.275 10.457 1.089 2.991 2.473 5.685 4.153 8.082-3.341 10.261-7.268 24.467-11.815 42.585-10.021 4.516-16.558 8.305-19.513 11.267-1.346 1.35-2.363 3.356-3.017 5.921-.654 2.565-.487 4.898.469 6.97 2.176 5.125 6.459 12.548 12.815 22.238s12.119 17.144 17.253 22.266c5.529 5.517 12.044 10.703 19.579 15.591 2.467 1.477 4.966 2 7.43 1.57 3.977-.893 9.498-2.675 16.53-5.38 7.097-2.704 11.04-4.485 11.893-5.34 2.495-2.502 3.709-5.1 3.738-7.828.03-2.729-.894-5.029-2.803-6.933-2.041-2.036-4.87-4.136-8.49-6.302-3.618-2.165-5.921-3.74-6.908-4.724-3.62-3.612-6.782-8.21-9.485-13.795m-76.56-185.968c1.214-1.218 2.395-3.389 3.509-6.48 1.179-3.092 1.834-5.657 1.996-7.728 1.169-11.44-.715-19.69-5.685-24.648-7.897 20.753-12.025 31.737-12.386 32.954.595 1.972 1.78 3.811 3.492 5.518 3.159 3.153 6.184 3.281 9.074.384m-32.03 71.275c1.839-1.842 2.622-6.775 2.382-14.894-.207-8.087-1.366-14.233-3.442-18.47a240.184 240.184 0 0 0-10.982 24.898c.957 2.267 2.273 4.238 3.919 5.88 3.588 3.58 6.285 4.43 8.123 2.586m50.032-27.313c1.264 11.636 1.113 22.714-.32 33.301-1.5 10.587-5.828 19.467-13.018 26.675-8.405 8.427-17.11 13.73-26.082 15.944-8.971 2.214-17.946 1.6-26.991-1.906-8.978-3.507-17.862-9.61-26.584-18.31-9.216-9.194-17.084-18.947-23.573-29.228-6.49-10.283-10.476-18.265-12.061-23.984-.991-3.68-.338-6.705 2.027-9.075 8.634-8.656 14.545-14.384 17.697-17.215 3.185-2.798 5.846-4.543 7.982-5.17 2.136-.628 5.193-.73 9.204-.34 14.056-37.46 26.046-71.072 35.937-100.8 1.704-5.13 3.737-8.88 6.1-11.25 2.595-2.602 5.19-4.15 7.819-4.679 2.596-.562 5.72-.533 9.336-.012 3.649.555 5.95.816 6.904.715.559-.033 2.695-.2 6.41-.5 3.78-.3 6.804-.305 9.139.054 2.334.358 4.275 1.244 5.756 2.721 1.053 1.051 1.712 2.431 2.109 4.14.396 1.774.53 3.55.368 5.424-.13 1.906-.357 3.78-.65 5.72a124.018 124.018 0 0 1-1.012 5.688c4.635-.433 10.19-.275 16.6.538 6.445.847 11.313 2.88 14.572 6.13 4.476 4.465 7.543 12.187 9.2 23.1 1.657 10.976 1.378 24.816-.804 41.617-2.77 19.63-7.815 33.112-15.17 40.485-3.907 3.917-7.848 6.617-11.89 8.102-4.01 1.451-6.966 2.178-9.005 2.115m-204.861-102.706c.59-1.447 2.753-6.84 6.39-16.215 3.704-9.373 6.818-16.97 9.407-22.792 2.656-5.822 5.903-12.302 9.805-19.44-1.831 7.497-3.661 16.704-5.456 27.587-1.827 10.916-3.653 23.082-5.477 36.43-1.858 13.317-3.616 27.06-5.308 41.196-.816 4.44-.22 7.661 1.72 9.597 1.45 1.445 2.996 2.331 4.64 2.592 1.677.294 4.8.52 9.468.777 10.586.578 17.786.536 21.663-.125 3.846-.63 6.836-2.047 9.036-4.252.886-.888 2.46-4.309 4.753-10.229 3.506-9.242 7.438-19.7 11.829-31.343a643.007 643.007 0 0 1 14.388-35.159c5.179-11.775 10.95-23.354 17.248-34.802 6.33-11.414 13.286-22.073 20.835-31.945 8.468-11.253 9.048-20.524 1.74-27.813-1.743-1.74-3.62-3.15-5.592-4.2-1.974-1.05-4.605-2.098-7.927-3.18-3.322-1.08-5.36-1.8-6.215-2.128-8.124-3.179-14.665-2.284-19.557 2.621-2.134 2.138-4.53 5.725-7.317 10.758-2.755 5.066-5.477 10.56-8.198 16.58a1359.54 1359.54 0 0 0-9.212 20.884c-3.376 7.927-5.9 13.551-7.507 16.873a849.081 849.081 0 0 1 4.96-30.38c1.73-9.7 3.429-18.118 5.03-25.253a1425.8 1425.8 0 0 1 4.808-20.355c1.538-6.412 3.238-13.252 5.004-20.42.917-2.96 1.342-5.427 1.207-7.398-.067-1.973-.99-3.878-2.768-5.65-3.522-3.514-8.158-4.528-13.843-3.107-3.057.63-7.001.765-11.801.442s-8.45-.35-10.848-.118c-2.433.266-4.667 1.386-6.736 3.46-2.593 2.6-5.284 6.22-8.105 10.825-9.905 18.881-19.35 37.434-28.301 55.69-9.018 18.256-16.92 35.13-23.738 50.654-6.851 15.491-12.095 28.646-15.83 39.5-1.767 5.524-.907 10.06 2.615 13.573 2.567 2.561 10.197 5.707 22.924 9.472 2.795.818 5.196 1.045 7.167.714 1.972-.397 4.239-1.879 6.8-4.446 1.64-1.646 3.74-4.804 6.299-9.475M510.68 1253.26c-9.053 15.922-16.661 31.448-22.724 46.61-6.062 15.162-12.713 33.217-19.92 54.2-.585 4.733-2.75 9.01-6.493 12.762-3.35 3.357-8.013 5.926-13.994 7.775-1.643.594-3.647 1.55-6.045 2.835-2.398 1.351-3.942 2.108-4.665 2.307-2.958.661-7.494.732-13.577.18-6.115-.584-9.897-1.598-11.411-3.108-1.678-1.675-2.338-3.777-2.045-6.375.292-2.598.717-4.143 1.275-4.702 1.377-3.618 3.768-10.36 7.208-20.194a3317.93 3317.93 0 0 0 9.172-26.573c2.685-7.827 4.782-14.075 6.354-18.745.983-2.63.88-5.097-.207-7.43-1.153-2.332-3.524-5.353-7.276-9.096-1.316-1.313-2.5-1.444-3.518-.423-.328.33-.623.822-.853 1.448-.262.657-.425 1.02-.524 1.118-2.196 5.295-6.16 16.838-11.858 34.73-.882 4.11-2.521 7.333-4.853 9.67-3.086 3.093-10.843 4.023-23.303 2.822-11.146-.94-18.018-2.673-20.52-5.168-2.863-2.856-4.28-5.649-4.251-8.378.03-2.728.684-5.687 1.863-8.91a2785.203 2785.203 0 0 0 10.42-27.035 2191.007 2191.007 0 0 1 9.11-23.352c3.08-7.63 6.162-15.129 9.374-22.43.656-1.777.094-4.439-1.653-8.02-1.78-3.548-2.834-5.979-3.198-7.26-.33-1.25.39-2.828 2.23-4.672 2.134-2.138 4.926-4.345 8.342-6.585 3.416-2.239 5.748-3.984 7.028-5.267 1.182-1.186 2.166-2.568 3.019-4.147 13.802-30.687 22.197-47.529 25.152-50.49 2.922-2.93 7.883-5.533 14.947-7.876 7.065-2.277 11.337-3.07 12.818-2.185.427.23 2.862 1.278 7.236 3.147 4.342 1.835 8.288 3.671 11.808 5.475 3.553 1.77 6.152 3.51 7.798 5.151 1.118 1.116.105 5.161-3.01 12.167-3.114 6.94-6.69 14.078-10.69 21.315a1004.982 1004.982 0 0 1-12.63 22.271 3026.174 3026.174 0 0 1-9.085 15.691c-.458 2.04.499 4.701 2.803 7.92 2.306 3.218 3.458 5.025 3.557 5.451.265 1.053.759 2.005 1.549 2.793 1.02 1.018 1.842 1.247 2.368.72.295-.296 2.886-5.065 7.806-14.276a970.154 970.154 0 0 1 12.956-23.652c3.739-6.513 6.627-10.856 8.728-12.963 2.594-2.6 5.32-3.885 8.148-3.888 2.86.03 6.806.944 11.87 2.713 5.032 1.801 8.682 2.883 10.95 3.307 4.506.948 7.499 1.7 9.044 2.257 1.513.524 3.19 1.672 4.968 3.445 2.897 2.89 4.084 6.307 3.53 10.22-.554 3.912-2.028 7.957-4.521 12.037-2.461 4.112-5.972 9.343-10.566 15.66-4.562 6.351-7.91 11.352-10.041 15.003m-160.566-10.913c3.015-7.17 6.355-17.825 10.02-31.966 3.632-14.106 7.03-29.824 10.198-47.086 3.135-17.295 5.742-35.445 7.724-54.48 1.98-19.037 2.913-37.085 2.793-54.08-.233-2.07-1.485-4.239-3.755-6.505-1.68-1.543-3.62-2.625-5.79-3.148-2.138-.556-3.387-.95-3.75-1.179-.328-.197-1.217-.886-2.631-1.969a28.058 28.058 0 0 0-4.738-3.084c-1.776-.984-3.947-1.837-6.578-2.622-2.367-.523-6.081-.025-11.208 1.56-5.06 1.583-8.773 3.527-11.038 5.8-2.2 2.204-3.512 4.177-3.872 5.854-.36 1.677-.258 3.945.337 6.772 3.324 29.45 3.743 49.831 1.259 61.142-1.48-.359-3.288-.85-5.393-1.439-2.137-.557-4.735-.915-7.792-1.142-3.452-.29-7.56 1.062-12.224 4.092-4.664 3.03-11.2 8.725-19.538 17.085-12.772 12.804-22.227 23.137-28.397 30.97-6.171 7.831-11.52 15.3-16.081 22.373-3.084 4.08-4.066 7.83-2.944 11.246.792 3.09 3.624 7.096 8.496 11.955 2.6 2.593 6.219 4.628 10.823 6.068 5.689 1.735 12.297 2.55 19.858 2.54 3.09.062 5.719-.993 7.918-3.198 1.543-1.548 2.725-3.127 3.578-4.706 5.734-14.7 13.018-26.479 21.85-35.332 2.823-2.83 6.174-4.61 9.986-5.273-8.042 36.105-16.095 63.005-24.094 80.701-.558.888-.59 2.565-.158 4.898.462 2.366 1.286 4.107 2.537 5.355 1.48 1.478 3.257 2.461 5.297 2.985 2.433.721 6.18 1.307 11.31 1.63 5.096.355 9.467.317 13.149-.148 4.24-.563 7.919-2.409 11.039-5.536 3.545-3.555 7.482-10.266 11.809-20.133M1956.338 2793.788c1.975 1.97 3.162 4.598 3.56 7.885-1.606 4.177-3.572 9.505-5.865 15.95a567.5 567.5 0 0 1-6.291 16.839 284.39 284.39 0 0 1-6.522 15.163c-4.152-7.49-6.627-15.081-7.392-22.805-.766-7.724-.445-14.496.96-20.317 1.407-5.82 2.947-9.668 4.622-11.478 2.758-2.765 5.78-4.15 9.034-4.186 3.255-.037 5.886.946 7.894 2.949m91.682-54.781c4.266-5.2 6.365-10.067 6.227-14.67-.104-4.57-1.588-8.281-4.451-11.138-3.555-3.546-9.344-5.774-17.398-6.652-1.908-.26-4.703-1.342-8.354-3.277-3.62-1.967-6.776-3.016-9.472-3.144-2.63-.13-5.422 1.288-8.41 4.284-2.56 2.567-4.694 5.759-6.431 9.607-1.705 3.815-4.13 9.8-7.276 17.826-3.146 8.09-5.802 13.78-7.967 17.137 1.764-9.01 2.637-20.615 2.52-34.915-.115-14.234-.927-32.904-2.468-55.98-.37-5.883-1.196-10.255-2.515-13.146-1.318-2.891-3.195-5.551-5.598-7.948-3.653-3.644-7.14-5.415-10.591-5.378-3.42.07-6.541 1.027-9.398 2.904-2.86 1.877-5.124 3.359-6.832 4.479-2.366 1.384-5.717 2.637-10.154 3.793-4.403 1.124-7.721 2.738-9.987 4.878-4.925 4.937-5.675 10.23-2.25 15.814 1.812 3.12 3.43 7.952 4.818 14.525 1.389 6.573 2.714 14.987 3.944 25.274 1.26 10.255 2.292 18.9 3.056 26.032.797 7.1 1.594 13.41 2.489 18.964-6.348-2.391-11.577-3.93-15.621-4.615-4.077-.718-8.645-.154-13.771 1.759-5.126 1.913-10.71 5.93-16.784 12.019-7.321 7.34-11.615 17.24-12.817 29.7-1.2 12.46-.066 25.609 3.402 39.444 3.469 13.77 8.219 26.585 14.183 38.379 5.997 11.76 11.958 20.597 17.916 26.539 5.53 5.516 10.104 9.29 13.755 11.226 3.618 1.968 6.479 2.852 8.517 2.718 2.038-.134 5.522-.862 10.484-2.15 1.939-.495 4.667-.597 8.186-.306 3.45.292 6.179.32 8.02.122 1.84-.265 3.746-1.32 5.65-3.23 1.806-1.81 3.415-4.211 4.857-7.171 1.443-2.895 3.606-8.157 6.588-15.755 3.179-8.058 7.473-18.681 12.814-31.804 5.277-13.122 11.012-26.772 17.142-40.948 6.13-14.11 12.229-27.201 18.295-39.207 6.1-11.974 11.283-20.66 15.682-25.99m-214.78-94.803c-.33-1.052-2.107-3.482-5.3-7.26-1.712-1.706-2.962-2.691-3.785-2.986-5.67 14.438-9.201 29.696-10.594 45.838 7.907-12.007 14.467-23.851 19.68-35.592m80.46-35.964c-4.065 7.368-10.43 18.487-19.22 33.357-8.76 14.837-17.88 29.574-27.395 44.116-9.516 14.542-17.556 25.499-24.056 32.87-1.05 1.317-3.545 3.95-7.485 7.899-2.791 2.469-5.978 3.624-9.463 3.43-3.551-.192-7.333-.812-11.41-1.86-.75 5.229-2.388 9.11-4.916 11.644-1.28 1.284-2.825 1.976-4.601 2.11-1.774.133-3.583-.03-5.457-.454-1.84-.458-3.814-.916-5.92-1.44-8.35-1.83-14.368-3.301-17.953-4.382-3.617-1.047-6.25-2.425-7.927-4.1-2.107-2.1-3.425-5.254-3.99-9.43-.113-11.866.268-22.978 1.176-33.235.907-10.323 2.145-19.792 3.81-28.506a382.97 382.97 0 0 1 5.59-25.155c2.095-8.09 5.3-19.993 9.622-35.646 1.146-3.782 1.898-6.643 2.192-8.648.326-1.973-.071-4.011-1.191-6.113-1.087-2.136-1.88-4.764-2.475-7.854-.596-3.09-.27-5.194.879-6.346.165-.164 1.675-1.546 4.532-4.213 2.889-2.633 6.074-5.695 9.587-9.216.854-.856 1.642-1.975 2.297-3.291.689-1.348 1.246-2.762 1.737-4.176.459-1.382.786-2.236.918-2.565.654-2.434 1.473-5.164 2.422-8.288.949-3.124 2.393-5.625 4.23-7.467 1.479-1.482 3.088-2.568 4.764-3.261 1.708-.66 3.352-1.121 4.962-1.354 1.578-.264 3.254-.497 5.062-.73 8.677-1.324 15.185-1.661 19.525-1.01 4.932.653 9.34 2.947 13.257 6.855 2.468 2.463 3.72 4.499 3.82 6.24.068 1.71-.29 4.242-1.042 7.563-1.113 3.88-2.652 8.189-4.751 12.99-2.065 4.77-4.36 10.032-6.85 15.756-2.46 5.756-4.097 9.965-4.915 12.695 3.36 6.768 7.543 12.647 12.644 17.736 1.477-2.27 4.066-7.83 7.836-16.742 3.737-8.88 6.524-14.243 8.297-16.02 1.773-1.777 3.613-2.7 5.487-2.801 1.94-.101 4.34.389 7.299 1.438 2.96 1.048 4.736 1.637 5.36 1.736.757.163 2.664.423 5.787.847 3.124.358 5.788.847 7.99 1.469 5.23 1.802 9.079 3.934 11.48 6.33 5.827 5.812 5.312 14.886-1.544 27.222m-248.331 20.589c1.744 1.74 4.343 2.953 7.862 3.639 3.518.686 6.575.65 9.105-.11 11.436-3.301 19.78-7.585 25-12.82 1.15-1.15 2.004-2.204 2.594-3.19.624-.955 1.18-2.37 1.769-4.144.558-1.81.885-2.862 1.016-3.125 1.899-5.788 3.928-14.14 6.05-25.023 2.157-10.851 3.425-21.734 3.906-32.55.446-10.848-.714-18.967-3.515-24.322 14.939-14.976 27.056-25.411 36.385-31.34 9.295-5.962 17.739-9.95 25.232-11.931 4.272-.794 7.754-2.574 10.479-5.306 1.938-1.942 2.855-4.375 2.786-7.268-.102-2.925-1.651-5.981-4.581-9.1-3.456-3.448-6.224-8.573-8.336-15.408-.297-1.084-.66-2.431-1.056-4.008-.43-1.611-.826-2.728-1.254-3.418-.363-.69-1.186-1.642-2.371-2.824-1.777-1.773-4.375-3.25-7.795-4.495-3.388-1.212-6.676-1.733-9.766-1.598-6.673.5-14.656 4.16-23.918 11.009-9.295 6.817-20.361 16.593-33.265 29.332 1.475-3.652 4.13-9.67 7.966-17.993 3.869-8.288 7.148-15.46 9.967-21.51 2.82-5.987 4.688-10.362 5.672-12.993 3.538-9.8 4.122-15.916 1.719-18.312-1.152-1.15-2.796-2.067-4.934-2.69-2.171-.655-3.42-1.047-3.75-1.244-1.085-.557-2.96-1.968-5.626-4.234-2.665-2.265-6.02-3.84-10.131-4.853-1.842-.523-4.472-.388-7.922.372-3.384.76-6.048 1.19-7.887 1.258-2.893.004-6.507 2.179-10.84 6.523-1.248 1.25-2.2 2.534-2.823 3.883a36.363 36.363 0 0 0-1.671 4.242c-.492 1.48-1.016 3.058-1.573 4.67-3.408 8.223-7.571 18.255-12.454 30.062a5965.365 5965.365 0 0 1-17.864 42.329c-6.981 16.412-13.67 31.674-20.062 45.719-6.393 14.045-11.443 24.373-15.15 30.919-2.426 4.605-1.434 9.14 3.009 13.574 1.909 1.904 6.317 4.265 13.19 7.116 6.874 2.786 12.202 4.62 15.984 5.438 5.92 1.505 10.848.249 14.788-3.7 1.38-1.383 2.594-3.39 3.543-5.988 2.132-4.44 5.31-11.446 9.508-21.05 4.228-9.572 6.949-16.117 8.226-19.57.802 9.795.06 22.387-2.188 37.807-2.283 15.388-5.157 30.053-8.591 44.094-1.44 5.59-.25 10.322 3.567 14.13M2038.152 2271.114c2.956-2.96 5.286-7.795 6.924-14.503 1.64-6.707 2.39-13.184 2.253-19.495-.137-6.378-1.094-10.42-2.904-12.227-2.63-2.628-7.297-.586-13.999 6.126-6.795 10.361-12.177 21.805-16.145 34.332 4.503-1.153 7.33-1.748 8.447-1.946 1.117-.132 2.038.195 2.795.951.361.362.987 1.512 1.844 3.417.855 1.907 1.81 3.385 2.895 4.47 2.271 2.266 4.901 1.87 7.89-1.125m-36.668 23.238c-2.823 5.327-5.776 12.102-8.958 20.356-3.116 8.254-5.577 14.337-7.382 18.185-3.807 7.432-5.94 11.411-6.499 11.971-1.905 1.908-3.58 2.93-4.962 3.062-1.413.1-3.649-.36-6.805-1.409-3.09-1.049-5.623-1.738-7.563-2.032-1.38-.196-3.648-.227-6.87-.159-3.189.036-5.754-.094-7.693-.52-1.94-.36-3.716-1.344-5.36-2.987-1.778-1.773-2.635-4.863-2.704-9.267-.036-4.373.388-8.087 1.306-11.113 2.36-8.089 6.198-18.775 11.447-31.995a719.65 719.65 0 0 1 17.587-40.448c6.4-13.713 12.898-26.145 19.332-37.26 6.468-11.15 12.345-19.34 17.633-24.638 5.026-5.033 9.297-8.652 12.846-10.759 3.514-2.139 6.703-3.49 9.496-4.05 2.794-.628 8.35-1.454 16.632-2.579 14.462-1.852 25.116.637 31.992 7.503 10.132 10.117 17.046 21.748 20.672 34.83 3.594 13.046 4.788 25.997 3.516 38.851-1.239 12.823-3.892 24.363-7.993 34.59-4.102 10.292-8.336 17.626-12.704 22.002-4.664 4.672-11.236 9.017-19.746 13.001-8.544 4.018-16.893 6.325-25.11 6.99-8.218.663-14.498-1.205-18.84-5.54-5-4.994-9.414-13.866-13.27-26.585m-14.786-194.499c2.396-3.914 2.065-7.397-.994-10.452-2.27-2.266-6.282-4.039-12.069-5.283-9.272-1.636-16.209-1.992-20.81-1.134-4.634.892-9.267 3.624-13.865 8.23-.624.625-2.923 3.98-6.896 10.064-6.073 10.558-10.668 19.108-13.786 25.72-3.15 6.576-6.202 13.712-9.22 21.274-2.985 7.597-6.299 15.522-9.94 23.842-3.676 8.287-8.5 18.12-14.507 29.598-1.843-1.972-3.949-4.994-6.319-9.134-2.337-4.108-4.016-6.703-5.135-7.819-1.94-1.939-3.848-2.003-5.687-.16-2.464 2.073-7.129 5.494-14.06 10.202-6.934 4.772-11.369 8.161-13.34 10.135-2.595 2.6-3.052 6.084-1.405 10.422.692 1.873 3.687 6.506 8.986 13.9 5.298 7.39 11.42 15.407 18.362 23.981 6.944 8.574 12.997 15.406 18.064 20.465 2.205 2.201 4.474 3.81 6.808 4.762 2.27.951 5.59 1.441 9.93 1.438 4.34-.004 10.617-.634 18.77-1.89 4.042-.89 7.097-2.372 9.265-4.544 1.774-1.776 2.954-4.8 3.576-9.043.555-5.16-.763-9.368-3.988-12.586-.658-.658-1.908-1.774-3.75-3.416-1.875-1.61-3.322-2.923-4.343-3.942-2.566-2.56-4.672-5.32-6.318-8.278 1.938-1.942 3.548-3.29 4.797-4.015 1.281-.757 2.365-1.58 3.285-2.5 2.2-2.206 3.776-4.705 4.728-7.5 25.036-56.792 44.99-97.57 59.861-122.337m-199.23 16.302a42.588 42.588 0 0 0 4.756-11.41c1.97-5.196 3.577-8.386 4.727-9.537 2.89-2.896 6.802-4.049 11.765-3.56 4.998.522 8.548 1.833 10.72 4.001 2.336 2.332 5.233 6.998 8.657 14.03 3.392 7 5.073 12.093 4.944 15.315-.097 2.728-2.263 7.793-6.53 15.225-4.235 7.466-8.733 13.551-13.529 18.355-4.237 4.244-8.969 6.614-14.162 7.08-5.194.53-9.566.368-13.018-.385-14.138-2.816-24.07-7.08-29.827-12.829-4.21-4.205-8.524-12.716-12.94-25.597-4.382-12.85-6.497-26.327-6.212-40.364.188-9.73 1.562-20.054 4.182-31.036 2.622-10.98 6.23-21.767 10.756-32.422a206.325 206.325 0 0 1 16.051-30.42c6.172-9.604 12.806-17.96 19.934-25.098 8.77-8.785 18.036-13.329 27.865-13.633 13.61-.076 23.702.474 30.245 1.62 6.542 1.211 12.297 4.264 17.233 9.19 5.724 5.716 9.28 11.498 10.697 17.316.396 1.775 1.913 6.836 4.582 15.217 2.67 8.38 4.517 15.676 5.672 21.888.43 2.531-.323 6.773-2.29 12.625-1.969 5.854-4.398 10.26-7.322 13.19-1.904 1.907-3.81 3.355-5.617 4.31-1.84.988-3.844 1.68-5.98 2.174-2.105.462-3.354.727-3.65.825-3.647 1.614-7 .893-10.06-2.162-3.093-3.088-5.035-7.523-5.698-13.243-.66-3.615-1.913-7.954-3.89-13.015-1.977-5.06-4.182-8.773-6.616-11.204-3.817-3.81-8.746-2.688-14.758 3.332-2.66 2.665-6.469 8.651-11.359 17.958-4.956 9.307-9.549 20.75-13.812 34.364-4.328 13.613-6.946 27.751-7.889 42.38.002 2.103.793 3.944 2.372 5.52m-78.65-225.94c-.093 8.186-1.202 17.787-3.363 28.767-2.194 11.015-4.914 21.372-8.226 31.007-3.312 9.7-6.66 16.737-10.01 21.145-2.133 3.191-4.3 5.822-6.535 8.06-2.726 2.73-5.026 3.981-6.9 3.752-.789-.262-1.282-.49-1.546-.754-1.612-1.61-1.812-4.83-.632-9.697 7.861-34.129 17.932-61.324 30.342-81.649.755-1.348 1.871-2.73 3.316-4.177 1.183-1.185 2.037-1.514 2.596-.956.658.657.988 2.168.957 4.502m-52.98 134.79c1.78 6.706 4.512 11.864 8.198 15.543.986.986 3.945 1.18 8.876.52 4.963-.63 11.305-3.1 19.093-7.413 7.788-4.313 16.23-10.992 25.394-20.172 5.387-5.395 10.84-11.777 16.39-19.112 6.532-10.69 11.98-21.608 16.277-32.82a162.94 162.94 0 0 0 9.21-34.229c1.798-11.607 2.151-23.079.958-34.452-1.159-11.34-4.06-22.318-8.639-32.866-2.305-5.456-4.675-9.398-7.078-11.796-2.665-2.66-6.38-4.794-11.083-6.335-7.726-2.394-16.34-3.57-25.939-3.563-9.567.041-17.193 1.164-22.778 3.404-5.785 2.11-11.107 5.597-15.936 10.434-4.237 4.244-8.605 9.803-13.037 16.611-12.444 18.518-21.338 36.178-26.749 52.981-5.41 16.803-8.423 31.138-9.038 43.006-.615 11.867-.505 25.575.23 41.156.166 2.27.728 5.193 1.717 8.81 1.021 3.582 2.34 6.21 4.017 7.885 1.744 1.741 4.308 2.791 7.695 3.15 3.386.358 10.782.123 22.222-.742m-18.913-215.567c-9.06 15.92-16.674 31.442-22.743 46.601-6.069 15.16-12.728 33.212-19.943 54.19-.588 4.734-2.754 9.01-6.499 12.76-3.35 3.356-8.016 5.924-13.997 7.77-1.644.593-3.649 1.548-6.047 2.831-2.398 1.35-3.943 2.108-4.666 2.306-2.958.66-7.494.73-13.576.175-6.115-.587-9.897-1.603-11.41-3.113-1.678-1.676-2.337-3.78-2.043-6.376.294-2.598.72-4.143 1.278-4.702 1.378-3.618 3.771-10.359 7.216-20.19a3299.376 3299.376 0 0 0 9.182-26.569c2.69-7.826 4.79-14.074 6.363-18.743.984-2.63.884-5.096-.203-7.429-1.153-2.333-3.522-5.356-7.273-9.1-1.315-1.314-2.499-1.445-3.517-.426-.329.33-.624.824-.854 1.45-.263.656-.427 1.018-.524 1.117-2.199 5.294-6.167 16.836-11.872 34.723-.885 4.11-2.526 7.333-4.858 9.668-3.088 3.093-10.846 4.02-23.306 2.814-11.144-.944-18.016-2.682-20.516-5.178-2.862-2.857-4.278-5.65-4.247-8.379.03-2.728.685-5.687 1.866-8.91a2793.79 2793.79 0 0 0 10.432-27.03c3.05-7.925 6.07-15.686 9.12-23.348 3.084-7.629 6.168-15.127 9.384-22.427.656-1.775.094-4.438-1.65-8.019-1.778-3.549-2.833-5.98-3.195-7.263-.33-1.249.391-2.827 2.231-4.67 2.135-2.138 4.928-4.342 8.345-6.58 3.417-2.239 5.75-3.983 7.03-5.266 1.183-1.185 2.168-2.566 3.021-4.145 13.815-30.682 22.217-47.519 25.174-50.48 2.922-2.928 7.884-5.53 14.95-7.87 7.066-2.273 11.34-3.065 12.82-2.179.427.23 2.86 1.28 7.234 3.15 4.34 1.837 8.287 3.675 11.805 5.481 3.552 1.772 6.151 3.511 7.795 5.154 1.12 1.117.104 5.161-3.014 12.166-3.118 6.938-6.695 14.074-10.699 21.31a1006.12 1006.12 0 0 1-12.638 22.265 3024.36 3024.36 0 0 1-9.094 15.69c-.458 2.037.497 4.7 2.801 7.92 2.303 3.218 3.456 5.025 3.554 5.452.265 1.052.758 2.006 1.548 2.794 1.02 1.017 1.842 1.248 2.367.72.296-.296 2.89-5.064 7.813-14.272a967.255 967.255 0 0 1 12.966-23.647c3.742-6.51 6.631-10.854 8.733-12.959 2.595-2.599 5.322-3.883 8.15-3.885 2.86.03 6.805.947 11.87 2.718 5.03 1.804 8.68 2.886 10.95 3.312 4.503.95 7.495 1.703 9.041 2.261 1.512.524 3.19 1.674 4.967 3.447 2.894 2.891 4.081 6.31 3.525 10.221-.556 3.913-2.032 7.957-4.527 12.035-2.462 4.111-5.975 9.341-10.573 15.656-4.564 6.35-7.913 11.348-10.047 14.998m-191.302-57.833c-.82 2.334-1.673 3.98-2.593 4.9-1.38 1.381-3.155 1.581-5.293.563-.789-.196-1.874-.95-3.19-2.266-2.895-2.89-4.508-5.749-4.905-8.509.391-3.88 4.786-15.784 13.154-35.745 3.653 5.224 5.368 12.39 5.08 21.561-.224 9.172-1.007 15.682-2.253 19.496m32.145 35.642c8.245-8.258 14.085-22.267 17.488-41.994.95-4.964 1.403-12.986 1.262-24.097-.107-11.144-.773-21.53-2.063-31.162-1.224-9.63-2.806-15.415-4.747-17.353-3.389-3.384-8.55-4.464-15.552-3.242-7.034 1.19-12.556 2.772-16.53 4.648 2.72-9.108 8.002-21.57 15.846-37.324 7.811-15.785 12.898-26.67 15.358-32.687.984-3.289 1.508-5.525 1.605-6.74.131-1.184-.462-2.433-1.745-3.714-1.15-1.15-2.007-1.872-2.565-2.234a7.67 7.67 0 0 0-1.94-.754c-.724-.13-1.71-.328-3.025-.589-1.874-.294-4.01-.26-6.41.103a25.376 25.376 0 0 1-7.397-.026c-2.367-.393-4.93-1.115-7.595-2.197-2.665-1.083-5.294-1.803-7.793-2.196-3.978-.753-7.857.763-11.633 4.546-2.497 2.5-4.139 4.671-4.894 6.545-.164.428-3.248 7.663-9.22 21.737a1984.007 1984.007 0 0 0-15.912 38.31c-4.592 11.51-8.923 23.15-12.989 35.12-4.067 11.902-6.59 21.34-7.538 28.342-2.466.627-5.98 1.977-10.615 4.052-4.568 2.075-7.755 4.017-9.496 5.76-.854.856-1.576 2.631-2.264 5.295-.687 2.73-.555 5.424.303 8.186 1.977 6.31 5.172 13.243 9.648 20.8 4.445 7.525 9.874 14.456 16.191 20.763 14.542 14.518 30.82 20.651 48.732 18.37 8.514-1.223 15.251-2.906 20.214-5.112 4.962-2.207 10.054-5.926 15.276-11.156m-140.633-205.443c-.329-1.05-2.106-3.483-5.297-7.26-1.71-1.708-2.96-2.694-3.784-2.989-5.675 14.436-9.213 29.692-10.614 45.833 7.913-12.005 14.48-23.844 19.695-35.584m80.478-35.929c-4.07 7.366-10.438 18.483-19.236 33.348-8.766 14.833-17.893 29.568-27.414 44.106-9.522 14.537-17.567 25.49-24.07 32.86-1.05 1.316-3.547 3.946-7.488 7.895-2.793 2.467-5.98 3.621-9.465 3.426-3.55-.194-7.332-.816-11.408-1.864-.753 5.227-2.393 9.108-4.922 11.641-1.28 1.283-2.825 1.974-4.602 2.107-1.774.133-3.583-.03-5.456-.456-1.84-.458-3.814-.917-5.919-1.44-8.35-1.835-14.368-3.31-17.952-4.392-3.617-1.049-6.248-2.427-7.925-4.102-2.106-2.102-3.423-5.257-3.986-9.432-.108-11.866.278-22.979 1.19-33.235.912-10.324 2.153-19.79 3.823-28.504a383.204 383.204 0 0 1 5.601-25.153c2.097-8.089 5.31-19.99 9.636-35.642 1.148-3.782 1.901-6.642 2.196-8.648.327-1.972-.07-4.01-1.189-6.113-1.087-2.136-1.878-4.766-2.472-7.855-.594-3.089-.267-5.194.882-6.345.165-.164 1.676-1.546 4.533-4.21 2.891-2.634 6.078-5.694 9.592-9.214.854-.856 1.642-1.974 2.3-3.289.688-1.349 1.246-2.762 1.737-4.176a47.49 47.49 0 0 1 .92-2.565c.655-2.433 1.475-5.162 2.425-8.286.951-3.124 2.395-5.624 4.234-7.466 1.48-1.48 3.088-2.567 4.764-3.258 1.71-.659 3.353-1.12 4.963-1.352 1.578-.264 3.255-.496 5.062-.727 8.678-1.32 15.186-1.655 19.526-1.002 4.932.653 9.338 2.951 13.254 6.86 2.467 2.463 3.718 4.5 3.818 6.242.067 1.71-.293 4.242-1.046 7.562-1.115 3.88-2.656 8.188-4.756 12.99-2.067 4.767-4.364 10.028-6.858 15.751-2.46 5.755-4.1 9.964-4.92 12.693 3.357 6.77 7.537 12.65 12.637 17.742 1.477-2.27 4.07-7.828 7.844-16.74 3.74-8.878 6.53-14.239 8.303-16.015 1.774-1.778 3.614-2.699 5.488-2.799 1.94-.1 4.34.391 7.298 1.44 2.96 1.05 4.736 1.64 5.361 1.74.756.162 2.663.423 5.786.848 3.123.36 5.786.85 7.99 1.473 5.228 1.804 9.075 3.937 11.477 6.335 5.823 5.814 5.304 14.888-1.556 27.221m-241.872-70.877c.357-4.7 2.422-13.085 6.192-25.218 3.771-12.134 8.33-24.465 13.646-37.026 5.348-12.595 10.6-22.659 15.788-30.224 6.547 6.537 11.548 11.397 15.001 14.584-2.297 5.13-6.76 13.022-13.26 23.68-6.567 10.655-13.33 21.115-20.39 31.343-7.059 10.23-12.708 17.861-16.977 22.861m86.687-39.846c1.61-2.139 2.726-3.52 3.382-4.178 2.365-2.369 4.272-2.83 5.72-1.386 1.15 1.15 3.748 1.05 7.758-.334 4.01-1.384 7.656-3.72 10.94-7.01 3.975-3.982 7.488-9.672 10.506-17.038 3.052-7.399 4.493-13.318 4.26-17.82.025-8.383-2.972-15.58-8.894-21.493-2.5-2.496-5.852-1.638-10.057 2.572-2.463 2.468-5.159 3.851-8.018 4.215-2.925.364-5.39-.06-7.528-1.276-1.81-.886-9.639-7.783-23.522-20.658s-28.358-26.802-43.328-41.747c-.756-.755-1.25-1.51-1.514-2.234a5.68 5.68 0 0 1-.396-2.3c0-.724 0-1.316-.066-1.776-.533-7.298-1.162-12.063-1.754-14.299-.659-2.234-2.042-4.403-4.246-6.603-1.745-1.74-4.013-2.298-6.774-1.573-2.76.725-5.356 2.273-7.787 4.707-3.153 3.16-6.37 8.487-9.619 16.017-6.43 14.93-7.146 25.516-2.177 31.725 1.744 2.398 2.7 4.073 2.963 4.928.264.92.067 2.17-.589 3.748-31.433 72.741-47.363 130.94-47.788 174.595-.227 3.19.794 5.917 3.097 8.216 2.303 2.3 5.197 4.072 8.748 5.318 3.552 1.246 11.607 3.64 24.201 7.081 1.578.394 3.32.36 5.227-.169 1.906-.527 3.45-1.416 4.632-2.6 1.446-1.447 2.332-2.73 2.66-3.914.328-1.118.491-3.518.455-7.1 7.168 2.23 12.658 2.783 16.47 1.662 3.813-1.12 7.986-3.984 12.584-8.59 18.558-18.588 38.72-45.495 60.454-80.686m-240.024-61.937c-2.56 4.67-4.662 7.828-6.304 9.472-2.562 2.567-4.829 4.048-6.8 4.444-1.973.331-4.374.102-7.168-.717-12.725-3.77-20.354-6.92-22.92-9.482-3.52-3.514-4.379-8.05-2.608-13.575 3.738-10.85 8.987-24.004 15.845-39.493 6.826-15.522 14.735-32.392 23.76-50.644 8.96-18.252 18.412-36.8 28.324-55.677 2.824-4.605 5.517-8.223 8.111-10.822 2.07-2.073 4.304-3.192 6.737-3.457 2.4-.232 6.048-.203 10.848.122 4.8.326 8.744.191 11.801-.436 5.686-1.418 10.322-.404 13.842 3.111 1.777 1.775 2.7 3.68 2.766 5.652.133 1.973-.292 4.44-1.21 7.398-1.77 7.168-3.473 14.007-5.013 20.418a1424.365 1424.365 0 0 0-4.817 20.352c-1.605 7.135-3.307 15.552-5.042 25.251a852.845 852.845 0 0 0-4.972 30.38c1.61-3.323 4.135-8.946 7.515-16.87a1365.762 1365.762 0 0 1 9.22-20.883c2.724-6.018 5.448-11.509 8.205-16.575 2.79-5.03 5.187-8.616 7.322-10.755 4.894-4.902 11.435-5.795 19.558-2.613.854.328 2.893 1.05 6.214 2.132 3.321 1.082 5.952 2.132 7.926 3.182 1.972 1.05 3.847 2.462 5.59 4.204 7.305 7.292 6.72 16.562-1.75 27.812-7.554 9.868-14.515 20.525-20.85 31.936-6.303 11.445-12.079 23.021-17.263 34.794a642.667 642.667 0 0 0-14.403 35.153c-4.396 11.641-8.333 22.098-11.842 31.338-2.296 5.92-3.872 9.34-4.759 10.227-2.2 2.204-5.19 3.62-9.036 4.248-3.879.661-11.078.7-21.663.117-4.669-.26-7.792-.488-9.469-.782-1.644-.26-3.19-1.148-4.637-2.593-1.94-1.938-2.535-5.16-1.717-9.598 1.698-14.137 3.462-27.879 5.325-41.194 1.83-13.348 3.661-25.513 5.493-36.428 1.8-10.883 3.633-20.089 5.468-27.585-3.906 7.137-7.156 13.615-9.814 19.435-2.592 5.822-5.709 13.417-9.416 22.79-3.64 9.372-5.807 14.764-6.397 16.211m-91.232-93.45c7.396.224 13.377-1.95 17.943-6.523 6.34-6.35 13.138-14.344 20.46-23.982 7.356-9.67 15.27-20.689 23.741-33.122 8.471-12.368 16.09-23.55 22.82-33.384 6.731-9.835 12.313-17.664 16.681-23.42 2.068-2.73 2.755-6.577 1.962-11.507-.792-4.93-3.492-9.662-8.065-14.228-4.014-4.008-8.354-6.239-13.023-6.76-2.3-.459-4.735-1.247-7.366-2.296-2.63-1.05-4.702-1.54-6.213-1.409-3.123.167-6.508 2.043-10.12 5.662-3.746 3.75-10.18 13.29-19.307 28.616-9.127 15.326-20.42 34.861-33.812 58.607 2.98-13.579 6.881-27.75 11.668-42.547 4.787-14.797 9.872-28.443 15.22-40.972 5.315-12.496 10.796-23.579 16.443-33.248 2.297-4.473 1.966-8.22-1.029-11.209-4.145-4.139-8.026-6.963-11.644-8.472-4.768-1.937-9.96-1.866-15.647.21-3.122 1.152-7.197 2.142-12.16 2.968-4.996.86-8.71 2.54-11.272 5.104-2.398 2.402-4.565 5.625-6.5 9.67-4.956 11.148-9.482 24.038-13.645 38.67-4.13 14.665-7.7 29.954-10.778 45.933a682.05 682.05 0 0 0-7.456 48.658c-1.926 16.471-3.13 31.824-3.743 46.058-.128 4.537 1.322 8.35 4.414 11.437 2.204 2.2 4.77 3.711 7.696 4.53 2.96.786 8.055 1.604 15.354 2.321 6.443.653 11.078-.37 13.837-3.133 1.773-1.778 2.954-5.855 3.541-12.232m-81.035-246.845c.031-2.334-.299-3.846-.957-4.502-.56-.559-1.414-.23-2.596.955-1.446 1.447-2.562 2.83-3.317 4.177-12.41 20.326-22.48 47.52-30.342 81.65-1.18 4.865-.979 8.086.633 9.696.263.263.756.492 1.545.755 1.874.23 4.175-1.023 6.901-3.754 2.233-2.236 4.4-4.869 6.535-8.059 3.35-4.408 6.697-11.445 10.01-21.146 3.312-9.634 6.032-19.99 8.225-31.006 2.161-10.98 3.271-20.58 3.363-28.766m-52.982 134.79c-11.439.864-18.835 1.1-22.22.741-3.387-.359-5.952-1.408-7.696-3.15-1.678-1.674-2.995-4.303-4.017-7.886-.989-3.616-1.55-6.54-1.716-8.809-.736-15.58-.846-29.289-.23-41.157.614-11.867 3.627-26.202 9.038-43.005 5.41-16.803 14.304-34.463 26.748-52.98 4.432-6.809 8.8-12.368 13.037-16.612 4.83-4.836 10.152-8.325 15.936-10.433 5.586-2.24 13.212-3.365 22.778-3.405 9.6-.01 18.213 1.17 25.94 3.563 4.702 1.541 8.418 3.675 11.083 6.336 2.401 2.397 4.772 6.34 7.077 11.795 4.578 10.548 7.48 21.526 8.64 32.866 1.192 11.373.84 22.847-.959 34.452a162.843 162.843 0 0 1-9.21 34.23c-4.297 11.211-9.745 22.13-16.278 32.82-5.55 7.334-11 13.716-16.388 19.111-9.164 9.18-17.607 15.86-25.395 20.172-7.787 4.312-14.13 6.783-19.093 7.412-4.93.661-7.889.467-8.876-.518-3.685-3.68-6.418-8.838-8.199-15.543m-100.31-140.419c-1.579-1.577-2.37-3.417-2.372-5.52.942-14.63 3.56-28.767 7.89-42.38 4.261-13.614 8.854-25.057 13.811-34.364 4.89-9.308 8.698-15.294 11.36-17.958 6.01-6.022 10.94-7.143 14.756-3.332 2.435 2.431 4.64 6.143 6.617 11.204 1.976 5.061 3.23 9.4 3.89 13.015.662 5.72 2.605 10.155 5.697 13.243 3.06 3.055 6.413 3.775 10.061 2.161.296-.099 1.545-.362 3.65-.824 2.135-.495 4.14-1.187 5.98-2.175 1.807-.954 3.713-2.402 5.617-4.31 2.924-2.929 5.353-7.336 7.321-13.189 1.967-5.853 2.72-10.094 2.291-12.625-1.156-6.212-3.003-13.508-5.672-21.889-2.67-8.38-4.186-13.44-4.582-15.217-1.418-5.817-4.973-11.599-10.698-17.315-4.934-4.927-10.69-7.979-17.233-9.19-6.542-1.146-16.635-1.697-30.244-1.62-9.829.304-19.096 4.848-27.866 13.632-7.128 7.14-13.76 15.494-19.933 25.1a206.325 206.325 0 0 0-16.05 30.42c-4.529 10.654-8.136 21.44-10.757 32.421-2.62 10.981-3.994 21.305-4.183 31.036-.284 14.037 1.831 27.513 6.213 40.363 4.415 12.882 8.728 21.393 12.94 25.598 5.757 5.748 15.688 10.012 29.826 12.83 3.453.752 7.824.913 13.02.383 5.192-.465 9.923-2.835 14.161-7.079 4.796-4.804 9.294-10.889 13.53-18.355 4.266-7.433 6.432-12.497 6.528-15.225.13-3.222-1.552-8.316-4.943-15.315-3.424-7.032-6.32-11.698-8.657-14.03-2.172-2.168-5.723-3.48-10.72-4-4.964-.49-8.876.663-11.766 3.558-1.149 1.152-2.757 4.342-4.726 9.537a42.666 42.666 0 0 1-4.757 11.411" fill="#fff" fill-rule="evenodd"/>
  </g>
</svg>
