<svg xmlns="http://www.w3.org/2000/svg" xmlns:xlink="http://www.w3.org/1999/xlink" width="0" height="0" style="position:absolute">
	
		<symbol id="britain" viewBox="0 0 511.68 336">
			<path d="M0 336h511.68V0H0z" fill="#194093"></path><path d="M447.66 0L314.356 87.415V0H196.957v91.007L56.05 0H0v45.433l101.057 65.586H0V227.42h100.237L0 293.475V336h66.316l130.641-85.983V336h117.399v-87.49L449.326 336h62.354v-42.05l-102.7-66.529h102.7V111.02H409.496L511.68 43.813V0z" fill="#fff"></path><path d="M0 0v29.3l123.061 81.719h41.655zm347.197 227.422L511.68 336v-27.256l-122.83-81.322zm-184.121 0L0 336h39.058l157.9-103.248v-5.33zM474.373 0L314.356 104.165v6.854h31.55L511.68 2.716V0z" fill="#e30613"></path><path d="M222.114 0v135.723H.001v66.996h222.113V336h67.085V202.719h222.48v-66.996H289.2V0z" fill="#e30613"></path>
		</symbol>
	
		<symbol id="facebook" viewBox="0 0 24 24">
			<path d="M22.675 0H1.325C.593 0 0 .593 0 1.325v21.351C0 23.407.593 24 1.325 24H12.82v-9.294H9.692v-3.622h3.128V8.413c0-3.1 1.893-4.788 4.659-4.788 1.325 0 2.463.099 2.795.143v3.24l-1.918.001c-1.504 0-1.795.715-1.795 1.763v2.313h3.587l-.467 3.622h-3.12V24h6.116c.73 0 1.323-.593 1.323-1.325V1.325C24 .593 23.407 0 22.675 0z"></path>
		</symbol>
	
		<symbol id="russia" viewBox="0 0 9 6">
			<path fill="#D52B1E" d="M0 0h9v6H0z"></path><path fill="#0039A6" d="M0 0h9v4H0z"></path><path fill="#FFF" d="M0 0h9v2H0z"></path>
		</symbol>
	
		<symbol id="search" viewBox="0 0 139 139">
			<path d="M127.558 111.961L100.249 84.65a47.75 47.75 0 0 0 7.333-25.488c0-26.509-21.49-47.996-47.998-47.996S11.588 32.653 11.588 59.162c0 26.51 21.487 47.995 47.996 47.995a47.776 47.776 0 0 0 27.414-8.605l26.984 26.986a9.574 9.574 0 0 0 6.788 2.806 9.58 9.58 0 0 0 6.791-2.806 9.602 9.602 0 0 0-.003-13.577zM59.584 91.607c-17.917 0-32.443-14.525-32.443-32.443S41.667 26.72 59.584 26.72c17.918 0 32.443 14.526 32.443 32.444S77.502 91.607 59.584 91.607z"></path>
		</symbol>
	
		<symbol id="telegram" viewBox="0 0 24 24">
			<path fill-rule="evenodd" clip-rule="evenodd" d="M18.384 22.779a1.19 1.19 0 0 0 1.107.145 1.16 1.16 0 0 0 .724-.84C21.084 18 23.192 7.663 23.983 3.948a.78.78 0 0 0-.26-.758.8.8 0 0 0-.797-.14C18.733 4.602 5.82 9.447.542 11.4a.827.827 0 0 0-.542.799c.012.354.25.661.593.764 2.367.708 5.474 1.693 5.474 1.693s1.452 4.385 2.209 6.615c.095.28.314.5.603.576a.866.866 0 0 0 .811-.207l3.096-2.923s3.572 2.619 5.598 4.062zm-11.01-8.677l1.679 5.538.373-3.507 10.185-9.186a.277.277 0 0 0 .033-.377.284.284 0 0 0-.376-.064L7.374 14.102z"></path>
		</symbol>
	
		<symbol id="vkontakte" viewBox="0 0 24 24">
			<path class="st0" d="M13.162 18.994c.609 0 .858-.406.851-.915-.031-1.917.714-2.949 2.059-1.604 1.488 1.488 1.796 2.519 3.603 2.519h3.2c.808 0 1.126-.26 1.126-.668 0-.863-1.421-2.386-2.625-3.504-1.686-1.565-1.765-1.602-.313-3.486C22.864 8.997 25.22 6 23.136 6h-3.981c-.772 0-.828.435-1.103 1.083-.995 2.347-2.886 5.387-3.604 4.922-.751-.485-.407-2.406-.35-5.261.015-.754.011-1.271-1.141-1.539A8.07 8.07 0 0 0 11.148 5c-2.273 0-3.841.953-2.95 1.119 1.571.293 1.42 3.692 1.054 5.16-.638 2.556-3.036-2.024-4.035-4.305C4.976 6.426 4.902 6 4.042 6H.787C.295 6 0 6.16 0 6.516c0 .602 2.96 6.72 5.786 9.77 2.756 2.975 5.48 2.708 7.376 2.708z"></path>
		</symbol>
	
		<symbol id="youtube" viewBox="0 0 24 24">
			<path d="M19.615 3.184c-3.604-.246-11.631-.245-15.23 0C.488 3.45.029 5.804 0 12c.029 6.185.484 8.549 4.385 8.816 3.6.245 11.626.246 15.23 0C23.512 20.55 23.971 18.196 24 12c-.029-6.185-.484-8.549-4.385-8.816zM9 16V8l8 3.993L9 16z"></path>
		</symbol>
	
</svg>
