<svg xmlns="http://www.w3.org/2000/svg" xmlns:xlink="http://www.w3.org/1999/xlink" width="0" height="0" style="position:absolute">
	
		<symbol id="britain" viewBox="0 0 511.68 336">
			<path d="M0 336h511.68V0H0z" fill="#194093"></path><path d="M447.66 0L314.356 87.415V0H196.957v91.007L56.05 0H0v45.433l101.057 65.586H0V227.42h100.237L0 293.475V336h66.316l130.641-85.983V336h117.399v-87.49L449.326 336h62.354v-42.05l-102.7-66.529h102.7V111.02H409.496L511.68 43.813V0z" fill="#fff"></path><path d="M0 0v29.3l123.061 81.719h41.655zm347.197 227.422L511.68 336v-27.256l-122.83-81.322zm-184.121 0L0 336h39.058l157.9-103.248v-5.33zM474.373 0L314.356 104.165v6.854h31.55L511.68 2.716V0z" fill="#e30613"></path><path d="M222.114 0v135.723H.001v66.996h222.113V336h67.085V202.719h222.48v-66.996H289.2V0z" fill="#e30613"></path>
		</symbol>
	
		<symbol id="facebook" viewBox="0 0 24 24">
			<path d="M22.675 0H1.325C.593 0 0 .593 0 1.325v21.351C0 23.407.593 24 1.325 24H12.82v-9.294H9.692v-3.622h3.128V8.413c0-3.1 1.893-4.788 4.659-4.788 1.325 0 2.463.099 2.795.143v3.24l-1.918.001c-1.504 0-1.795.715-1.795 1.763v2.313h3.587l-.467 3.622h-3.12V24h6.116c.73 0 1.323-.593 1.323-1.325V1.325C24 .593 23.407 0 22.675 0z"></path>
		</symbol>
	
		<symbol id="facebook-round" viewBox="0 0 67 67">
			<path d="M29.765 50.32h6.744V33.998h4.499l.596-5.624h-5.095l.007-2.816c0-1.466.14-2.253 2.244-2.253h2.812V17.68h-4.5c-5.405 0-7.307 2.729-7.307 7.317v3.377h-3.369v5.625h3.369V50.32zM34 64C17.432 64 4 50.568 4 34 4 17.431 17.432 4 34 4s30 13.431 30 30c0 16.568-13.432 30-30 30z" fill-rule="evenodd" clip-rule="evenodd" fill="#3a589b"></path>
		</symbol>
	
		<symbol id="menu" viewBox="0 0 24 23">
			<path fill="currentColor" d="M0 0h24v3H0zm0 10h24v3H0zm0 10h24v3H0z"></path>
		</symbol>
	
		<symbol id="russia" viewBox="0 0 9 6">
			<path fill="#D52B1E" d="M0 0h9v6H0z"></path><path fill="#0039A6" d="M0 0h9v4H0z"></path><path fill="#FFF" d="M0 0h9v2H0z"></path>
		</symbol>
	
		<symbol id="search" viewBox="0 0 139 139">
			<path d="M127.558 111.961L100.249 84.65a47.75 47.75 0 0 0 7.333-25.488c0-26.509-21.49-47.996-47.998-47.996S11.588 32.653 11.588 59.162c0 26.51 21.487 47.995 47.996 47.995a47.776 47.776 0 0 0 27.414-8.605l26.984 26.986a9.574 9.574 0 0 0 6.788 2.806 9.58 9.58 0 0 0 6.791-2.806 9.602 9.602 0 0 0-.003-13.577zM59.584 91.607c-17.917 0-32.443-14.525-32.443-32.443S41.667 26.72 59.584 26.72c17.918 0 32.443 14.526 32.443 32.444S77.502 91.607 59.584 91.607z"></path>
		</symbol>
	
		<symbol id="telegram" viewBox="0 0 24 24">
			<path fill-rule="evenodd" clip-rule="evenodd" d="M18.384 22.779a1.19 1.19 0 0 0 1.107.145 1.16 1.16 0 0 0 .724-.84C21.084 18 23.192 7.663 23.983 3.948a.78.78 0 0 0-.26-.758.8.8 0 0 0-.797-.14C18.733 4.602 5.82 9.447.542 11.4a.827.827 0 0 0-.542.799c.012.354.25.661.593.764 2.367.708 5.474 1.693 5.474 1.693s1.452 4.385 2.209 6.615c.095.28.314.5.603.576a.866.866 0 0 0 .811-.207l3.096-2.923s3.572 2.619 5.598 4.062zm-11.01-8.677l1.679 5.538.373-3.507 10.185-9.186a.277.277 0 0 0 .033-.377.284.284 0 0 0-.376-.064L7.374 14.102z" fill="#FFF"></path>
		</symbol>
	
		<symbol id="telegram-round" viewBox="0 0 100 100">
			<circle cx="50" cy="50" fill="#139BD0" r="45"></circle><path clip-rule="evenodd" d="M51.474 60.754c-1.733 1.688-3.451 3.348-5.153 5.021-.595.586-1.264.91-2.118.865-.583-.031-.909-.287-1.088-.84-1.304-4.047-2.627-8.084-3.924-12.135-.126-.393-.312-.584-.71-.707a843.741 843.741 0 0 1-9.199-2.871c-.471-.15-.946-.346-1.353-.623-.629-.426-.721-1.121-.157-1.621a6.227 6.227 0 0 1 1.789-1.119c3.755-1.488 7.53-2.928 11.299-4.381 9.565-3.693 19.13-7.383 28.696-11.076 1.819-.703 3.217.287 3.028 2.254-.121 1.258-.447 2.496-.71 3.738a26979.26 26979.26 0 0 1-6.244 29.42c-.496 2.328-2.131 2.936-4.047 1.523-3.209-2.365-6.415-4.738-9.622-7.107-.153-.111-.312-.218-.487-.341zm-7.203 2.978l.108-.029c.02-.092.049-.182.057-.273.206-2.223.424-4.445.603-6.672.04-.496.21-.848.583-1.182 2.958-2.645 5.898-5.307 8.844-7.963 3.261-2.941 6.523-5.879 9.772-8.832.201-.182.285-.492.423-.744-.306-.033-.634-.156-.912-.084-.379.098-.738.318-1.076.531-7.197 4.533-14.388 9.074-21.59 13.598-.407.256-.483.473-.328.92.531 1.525 1.014 3.064 1.515 4.6l2.001 6.13z" fill="#FFF" fill-rule="evenodd"></path>
		</symbol>
	
		<symbol id="vkontakte" viewBox="0 0 24 24">
			<path d="M13.162 18.994c.609 0 .858-.406.851-.915-.031-1.917.714-2.949 2.059-1.604 1.488 1.488 1.796 2.519 3.603 2.519h3.2c.808 0 1.126-.26 1.126-.668 0-.863-1.421-2.386-2.625-3.504-1.686-1.565-1.765-1.602-.313-3.486C22.864 8.997 25.22 6 23.136 6h-3.981c-.772 0-.828.435-1.103 1.083-.995 2.347-2.886 5.387-3.604 4.922-.751-.485-.407-2.406-.35-5.261.015-.754.011-1.271-1.141-1.539A8.07 8.07 0 0 0 11.148 5c-2.273 0-3.841.953-2.95 1.119 1.571.293 1.42 3.692 1.054 5.16-.638 2.556-3.036-2.024-4.035-4.305C4.976 6.426 4.902 6 4.042 6H.787C.295 6 0 6.16 0 6.516c0 .602 2.96 6.72 5.786 9.77 2.756 2.975 5.48 2.708 7.376 2.708z" fill="#FFF"></path>
		</symbol>
	
		<symbol id="vkontakte-round" viewBox="0 0 100 100">
			<circle cx="50" cy="50" fill="#4A74A5" r="45"></circle><path clip-rule="evenodd" d="M42.275 38.826c.206-.547.6-.885 1.082-1.123.926-.455 1.925-.594 2.937-.574 1.438.029 2.875.123 4.312.184.646.027 1.289.055 1.9.301.914.367 1.397 1.062 1.42 2.021.018.781-.094 1.564-.12 2.348-.058 1.67-.13 3.338-.126 5.006.002.527.224 1.057.363 1.578.04.148.139.281.229.41.344.498.464.494.957.182.916-.58 1.592-1.373 2.212-2.252a25.256 25.256 0 0 0 2.209-3.734c.619-1.307 1.243-2.613 1.825-3.939.289-.662.735-.941 1.451-.938 2.696.018 5.394.016 8.09.004.866-.004 1.485.736 1.288 1.586-.206.896-.61 1.699-1.086 2.469-1.339 2.172-2.824 4.238-4.52 6.15-.596.672-1.132 1.389-1.408 2.262-.3.951-.109 1.785.599 2.492 1.255 1.25 2.542 2.469 3.764 3.752.722.762 1.361 1.604 1.995 2.441.408.535.668 1.152.594 1.855-.08.783-.479 1.189-1.264 1.23-1.519.08-3.042.139-4.562.207-.886.041-1.77.088-2.655.125-.707.029-1.337-.229-1.937-.572-.954-.547-1.751-1.291-2.535-2.049-.812-.783-1.565-1.615-2.171-2.576-.384-.609-1.455-.941-2.129-.689-.522.195-.771.619-.824 1.148-.088.871-.136 1.748-.218 2.619-.1 1.074-.773 1.74-1.843 1.885-2.107.281-4.198.176-6.277-.23-1.525-.301-2.843-1.035-4.099-1.926-1.719-1.215-3.18-2.701-4.548-4.277-.709-.82-1.331-1.721-1.942-2.621-1.947-2.861-3.789-5.789-5.402-8.855-.773-1.469-1.547-2.939-1.955-4.564-.092-.365-.14-.742-.214-1.113-.036-.184.032-.32.2-.373.438-.135.876-.338 1.321-.355 1.43-.061 2.86-.053 4.29-.062.618-.002 1.237.061 1.854.027.829-.043 1.383.34 1.741 1.033.357.695.665 1.418 1.005 2.123 1.218 2.533 2.537 5.006 4.251 7.244.254.33.631.592.999.803.438.252.823.117 1.092-.312a3.273 3.273 0 0 0 .474-1.684c.026-1.689.076-3.379.058-5.066-.021-1.742-.886-2.902-2.524-3.529-.042-.019-.084-.041-.153-.072z" fill="#FFF" fill-rule="evenodd"></path>
		</symbol>
	
		<symbol id="youtube" viewBox="0 0 24 24">
			<path d="M19.615 3.184c-3.604-.246-11.631-.245-15.23 0C.488 3.45.029 5.804 0 12c.029 6.185.484 8.549 4.385 8.816 3.6.245 11.626.246 15.23 0C23.512 20.55 23.971 18.196 24 12c-.029-6.185-.484-8.549-4.385-8.816zM9 16V8l8 3.993L9 16z"></path>
		</symbol>
	
</svg>
